<svg xmlns="http://www.w3.org/2000/svg" width="1005" height="600"><rect width="1005" height="600" x="0" y="0" fill="#FFFFFF" id="backgorund"/><g id="viz"><g transform="translate(0,0)"><g transform="translate(50,20)"><g id="Value" fill="rgb(158, 1, 66)"><rect x="563.6192810457517" y="45.29279999999997" width="161.90359477124184" height="173.3578"/><rect x="382.23856209150324" y="162.31879999999998" width="161.90359477124184" height="112.73500000000001"/><rect x="200.85784313725486" y="302.8564" width="161.90359477124184" height="5.898200000000088"/><rect x="19.47712418300648" y="462.952" width="161.90359477124184" height="15.180200000000013"/></g><g id="Year" fill="rgb(94, 79, 162)"><rect x="563.6192810457517" y="218.65059999999997" width="161.90359477124184" height="341.34940000000006"/><rect x="382.23856209150324" y="275.05379999999997" width="161.90359477124184" height="284.94620000000003"/><rect x="200.85784313725486" y="308.7546" width="161.90359477124184" height="251.24540000000002"/><rect x="19.47712418300648" y="478.1322" width="161.90359477124184" height="81.86779999999999"/></g><g id="xAxis" transform="translate(0,560)" fill="none" font-size="10" font-family="sans-serif" text-anchor="middle"><path class="domain" stroke="currentColor" d="M0.5,0.5H745.5"/><g class="tick" opacity="1" transform="translate(100.4289215686274,0)"><line stroke="currentColor" y2="6"/><text fill="currentColor" y="9" dy="0.71em">UN0HELTERED</text></g><g class="tick" opacity="1" transform="translate(281.8096405228758,0)"><line stroke="currentColor" y2="6"/><text fill="currentColor" y="9" dy="0.71em">HOTEL_MOTEL</text></g><g class="tick" opacity="1" transform="translate(463.19035947712416,0)"><line stroke="currentColor" y2="6"/><text fill="currentColor" y="9" dy="0.71em">0HELTERED</text></g><g class="tick" opacity="1" transform="translate(644.5710784313726,0)"><line stroke="currentColor" y2="6"/><text fill="currentColor" y="9" dy="0.71em">DOUBLED UP</text></g></g><g id="yAxis" fill="none" font-size="10" font-family="sans-serif" text-anchor="end"><path class="domain" stroke="currentColor" d="M0.5,560.5V0.5"/><g class="tick" opacity="1" transform="translate(0,560.5)"><line stroke="currentColor" x2="-6"/><text fill="currentColor" x="-9" dy="0.32em">0</text></g><g class="tick" opacity="1" transform="translate(0,490.5)"><line stroke="currentColor" x2="-6"/><text fill="currentColor" x="-9" dy="0.32em">50,000</text></g><g class="tick" opacity="1" transform="translate(0,420.5)"><line stroke="currentColor" x2="-6"/><text fill="currentColor" x="-9" dy="0.32em">100,000</text></g><g class="tick" opacity="1" transform="translate(0,350.5)"><line stroke="currentColor" x2="-6"/><text fill="currentColor" x="-9" dy="0.32em">150,000</text></g><g class="tick" opacity="1" transform="translate(0,280.5)"><line stroke="currentColor" x2="-6"/><text fill="currentColor" x="-9" dy="0.32em">200,000</text></g><g class="tick" opacity="1" transform="translate(0,210.5)"><line stroke="currentColor" x2="-6"/><text fill="currentColor" x="-9" dy="0.32em">250,000</text></g><g class="tick" opacity="1" transform="translate(0,140.5)"><line stroke="currentColor" x2="-6"/><text fill="currentColor" x="-9" dy="0.32em">300,000</text></g><g class="tick" opacity="1" transform="translate(0,70.5)"><line stroke="currentColor" x2="-6"/><text fill="currentColor" x="-9" dy="0.32em">350,000</text></g><g class="tick" opacity="1" transform="translate(0,0.5)"><line stroke="currentColor" x2="-6"/><text fill="currentColor" x="-9" dy="0.32em">400,000</text></g></g><text y="556" x="745" text-anchor="end" style="font-family: Arial, sans-serif; font-size: 12px; fill: rgb(123, 123, 123); font-weight: bold;">Home</text></g><text x="4" y="4" style="font-family: Arial, sans-serif; font-size: 12px; fill: black; font-weight: bold; dominant-baseline: hanging;"/></g><g id="grid"><rect x="0" y="0" width="805" height="600" fill="none" stroke="#ccc"/></g></g><g id="legend" transform="translate(805,20)"><g transform="translate(5,0)"><g class="legendColor" transform="translate(0,0)"><g class="legendCells" transform="translate(0,16)"><g class="cell" transform="translate(0, 0)"><rect class="swatch" height="15" width="15" style="fill: rgb(158, 1, 66);"/><text class="label" transform="translate( 20, 12.5)" font-family="&quot;Arial&quot;, sans-serif" font-size="10px"><tspan x="0" dy="0em">Value</tspan></text></g><g class="cell" transform="translate(0, 21)"><rect class="swatch" height="15" width="15" style="fill: rgb(94, 79, 162);"/><text class="label" transform="translate( 20, 12.5)" font-family="&quot;Arial&quot;, sans-serif" font-size="10px"><tspan x="0" dy="0em">Year</tspan></text></g></g><text class="legendTitle" font-family="&quot;Arial&quot;, sans-serif" font-size="12px" font-weight="bold"><tspan x="0" dy="0em">Colors</tspan></text></g></g></g></svg>