<svg xmlns="http://www.w3.org/2000/svg" width="1000" height="400"><rect width="1000" height="400" x="0" y="0" fill="#FFFFFF" id="backgorund"/><g id="viz"><g transform="translate(0,0)"><g transform="translate(50,50)"><g class="bars"><rect id="undefined - 2009" x="21.342581676229358" y="75.12499999999999" height="224.875" width="15.787053411581825" fill="rgb(158, 1, 66)"/><rect id="undefined - 2021" x="39.02777231959614" y="74.14999999999999" height="225.85000000000002" width="15.787053411581825" fill="rgb(94, 79, 162)"/><rect id="undefined - 2009" x="531.7592483428961" y="171.89999999999998" height="128.10000000000002" width="15.787053411581825" fill="rgb(158, 1, 66)"/><rect id="undefined - 2021" x="549.4444389862629" y="74.375" height="225.625" width="15.787053411581825" fill="rgb(94, 79, 162)"/><rect id="undefined - 2009" x="588.4722113058591" y="215.17499999999998" height="84.82500000000002" width="15.787053411581825" fill="rgb(158, 1, 66)"/><rect id="undefined - 2021" x="606.1574019492259" y="104.65" height="195.35" width="15.787053411581825" fill="rgb(94, 79, 162)"/><rect id="undefined - 2009" x="645.1851742688219" y="223.125" height="76.875" width="15.787053411581825" fill="rgb(158, 1, 66)"/><rect id="undefined - 2021" x="662.8703649121887" y="104.3" height="195.7" width="15.787053411581825" fill="rgb(94, 79, 162)"/><rect id="undefined - 2009" x="78.05554463919232" y="82.80000000000001" height="217.2" width="15.787053411581825" fill="rgb(158, 1, 66)"/><rect id="undefined - 2021" x="95.7407352825591" y="55.95" height="244.05" width="15.787053411581825" fill="rgb(94, 79, 162)"/><rect id="undefined - 2009" x="134.7685076021553" y="112.37500000000001" height="187.625" width="15.787053411581825" fill="rgb(158, 1, 66)"/><rect id="undefined - 2021" x="152.45369824552205" y="49.77500000000001" height="250.225" width="15.787053411581825" fill="rgb(94, 79, 162)"/><rect id="undefined - 2009" x="191.4814705651183" y="130.35" height="169.65" width="15.787053411581825" fill="rgb(158, 1, 66)"/><rect id="undefined - 2021" x="209.16666120848504" y="38.075" height="261.925" width="15.787053411581825" fill="rgb(94, 79, 162)"/><rect id="undefined - 2009" x="248.19443352808122" y="139.4" height="160.6" width="15.787053411581825" fill="rgb(158, 1, 66)"/><rect id="undefined - 2021" x="265.87962417144803" y="35.925000000000004" height="264.075" width="15.787053411581825" fill="rgb(94, 79, 162)"/><rect id="undefined - 2009" x="304.9073964910442" y="152.375" height="147.625" width="15.787053411581825" fill="rgb(158, 1, 66)"/><rect id="undefined - 2021" x="322.59258713441096" y="44.95000000000001" height="255.04999999999998" width="15.787053411581825" fill="rgb(94, 79, 162)"/><rect id="undefined - 2009" x="361.6203594540072" y="159.50000000000003" height="140.49999999999997" width="15.787053411581825" fill="rgb(158, 1, 66)"/><rect id="undefined - 2021" x="379.30555009737395" y="50.29999999999999" height="249.70000000000002" width="15.787053411581825" fill="rgb(94, 79, 162)"/><rect id="undefined - 2009" x="418.33332241697013" y="165.35" height="134.65" width="15.787053411581825" fill="rgb(158, 1, 66)"/><rect id="undefined - 2021" x="436.0185130603369" y="51.62500000000001" height="248.375" width="15.787053411581825" fill="rgb(94, 79, 162)"/><rect id="undefined - 2009" x="475.0462853799331" y="127.85000000000001" height="172.14999999999998" width="15.787053411581825" fill="rgb(158, 1, 66)"/><rect id="undefined - 2021" x="492.7314760232999" y="12.47499999999999" height="287.52500000000003" width="15.787053411581825" fill="rgb(94, 79, 162)"/></g><g id="xAxis" transform="translate(0,300)" fill="none" font-size="10" font-family="sans-serif" text-anchor="middle"><path class="domain" stroke="currentColor" d="M0.5,0.5H700.5"/><g class="tick" opacity="1" transform="translate(38.07870370370366,0)"><line stroke="currentColor" y2="6"/><text fill="currentColor" y="9" dy="0.71em">GR001</text></g><g class="tick" opacity="1" transform="translate(94.79166666666663,0)"><line stroke="currentColor" y2="6"/><text fill="currentColor" y="9" dy="0.71em">GR002</text></g><g class="tick" opacity="1" transform="translate(151.5046296296296,0)"><line stroke="currentColor" y2="6"/><text fill="currentColor" y="9" dy="0.71em">GR003</text></g><g class="tick" opacity="1" transform="translate(208.21759259259258,0)"><line stroke="currentColor" y2="6"/><text fill="currentColor" y="9" dy="0.71em">GR004</text></g><g class="tick" opacity="1" transform="translate(264.93055555555554,0)"><line stroke="currentColor" y2="6"/><text fill="currentColor" y="9" dy="0.71em">GR005</text></g><g class="tick" opacity="1" transform="translate(321.6435185185185,0)"><line stroke="currentColor" y2="6"/><text fill="currentColor" y="9" dy="0.71em">GR006</text></g><g class="tick" opacity="1" transform="translate(378.35648148148147,0)"><line stroke="currentColor" y2="6"/><text fill="currentColor" y="9" dy="0.71em">GR007</text></g><g class="tick" opacity="1" transform="translate(435.0694444444444,0)"><line stroke="currentColor" y2="6"/><text fill="currentColor" y="9" dy="0.71em">GR008</text></g><g class="tick" opacity="1" transform="translate(491.7824074074074,0)"><line stroke="currentColor" y2="6"/><text fill="currentColor" y="9" dy="0.71em">GR009</text></g><g class="tick" opacity="1" transform="translate(548.4953703703703,0)"><line stroke="currentColor" y2="6"/><text fill="currentColor" y="9" dy="0.71em">GR010</text></g><g class="tick" opacity="1" transform="translate(605.2083333333334,0)"><line stroke="currentColor" y2="6"/><text fill="currentColor" y="9" dy="0.71em">GR011</text></g><g class="tick" opacity="1" transform="translate(661.9212962962962,0)"><line stroke="currentColor" y2="6"/><text fill="currentColor" y="9" dy="0.71em">GR012</text></g></g><g id="yAxis" fill="none" font-size="10" font-family="sans-serif" text-anchor="end"><path class="domain" stroke="currentColor" d="M0.5,300.5V0.5"/><g class="tick" opacity="1" transform="translate(0,300.5)"><line stroke="currentColor" x2="-6"/><text fill="currentColor" x="-9" dy="0.32em">0</text></g><g class="tick" opacity="1" transform="translate(0,275.5)"><line stroke="currentColor" x2="-6"/><text fill="currentColor" x="-9" dy="0.32em">1,000</text></g><g class="tick" opacity="1" transform="translate(0,250.5)"><line stroke="currentColor" x2="-6"/><text fill="currentColor" x="-9" dy="0.32em">2,000</text></g><g class="tick" opacity="1" transform="translate(0,225.5)"><line stroke="currentColor" x2="-6"/><text fill="currentColor" x="-9" dy="0.32em">3,000</text></g><g class="tick" opacity="1" transform="translate(0,200.50000000000003)"><line stroke="currentColor" x2="-6"/><text fill="currentColor" x="-9" dy="0.32em">4,000</text></g><g class="tick" opacity="1" transform="translate(0,175.49999999999997)"><line stroke="currentColor" x2="-6"/><text fill="currentColor" x="-9" dy="0.32em">5,000</text></g><g class="tick" opacity="1" transform="translate(0,150.5)"><line stroke="currentColor" x2="-6"/><text fill="currentColor" x="-9" dy="0.32em">6,000</text></g><g class="tick" opacity="1" transform="translate(0,125.49999999999999)"><line stroke="currentColor" x2="-6"/><text fill="currentColor" x="-9" dy="0.32em">7,000</text></g><g class="tick" opacity="1" transform="translate(0,100.50000000000001)"><line stroke="currentColor" x2="-6"/><text fill="currentColor" x="-9" dy="0.32em">8,000</text></g><g class="tick" opacity="1" transform="translate(0,75.5)"><line stroke="currentColor" x2="-6"/><text fill="currentColor" x="-9" dy="0.32em">9,000</text></g><g class="tick" opacity="1" transform="translate(0,50.499999999999986)"><line stroke="currentColor" x2="-6"/><text fill="currentColor" x="-9" dy="0.32em">10,000</text></g><g class="tick" opacity="1" transform="translate(0,25.50000000000001)"><line stroke="currentColor" x2="-6"/><text fill="currentColor" x="-9" dy="0.32em">11,000</text></g><g class="tick" opacity="1" transform="translate(0,0.5)"><line stroke="currentColor" x2="-6"/><text fill="currentColor" x="-9" dy="0.32em">12,000</text></g></g><text y="296" x="700" text-anchor="end" style="font-family: Arial, sans-serif; font-size: 12px; fill: rgb(123, 123, 123); font-weight: bold;">Sets</text><text y="0" x="4" dominant-baseline="hanging" text-anchor="start" style="font-family: Arial, sans-serif; font-size: 12px; fill: rgb(123, 123, 123); font-weight: bold;">Value</text></g><text x="4" y="4" style="font-family: Arial, sans-serif; font-size: 12px; fill: black; font-weight: bold; dominant-baseline: hanging;"/></g><g id="grid"><rect x="0" y="0" width="800" height="400" fill="none" stroke="#ccc"/></g></g><g id="legend" transform="translate(800,50)"><g transform="translate(5,0)"><g class="legendColor" transform="translate(0,0)"><g class="legendCells" transform="translate(0,16)"><g class="cell" transform="translate(0, 0)"><rect class="swatch" height="15" width="15" style="fill: rgb(158, 1, 66);"/><text class="label" transform="translate( 20, 12.5)" font-family="&quot;Arial&quot;, sans-serif" font-size="10px"><tspan x="0" dy="0em">2009</tspan></text></g><g class="cell" transform="translate(0, 21)"><rect class="swatch" height="15" width="15" style="fill: rgb(94, 79, 162);"/><text class="label" transform="translate( 20, 12.5)" font-family="&quot;Arial&quot;, sans-serif" font-size="10px"><tspan x="0" dy="0em">2021</tspan></text></g></g><text class="legendTitle" font-family="&quot;Arial&quot;, sans-serif" font-size="12px" font-weight="bold"><tspan x="0" dy="0em">Colors</tspan></text></g></g></g></svg>