<svg xmlns="http://www.w3.org/2000/svg" width="850" height="325"><rect width="850" height="325" x="0" y="0" fill="#FFFFFF" id="backgorund"/><g id="viz"><g transform="translate(0,0)"><g transform="translate(70,50)"><g><path fill="#1f77b4" d="M0,86.29173076923077C32.12928022609475,82.5462101906049,64.2585604521895,78.80068961197901,85,73.9998076923077C105.7414395478105,69.19892577263639,115.09503841733675,63.342682511919605,127.5,57.79461538461538C139.90496158266325,52.24654825731116,155.36128587846346,47.00665726341954,170,46.2226923076923C184.63871412153654,45.438727351965056,198.45981806880945,49.11068843440221,212.5,43.43269230769231C226.54018193119055,37.7546961809824,240.79944184629875,22.72674284512546,255,12.259807692307682C269.20055815370125,1.7928725394899034,283.34241454599544,-4.1130444302887135,297.5,-2.332307692307701C311.65758545400456,-0.5515709543266885,325.83089996971944,8.915819491413956,340,13.5523076923077C354.16910003028056,18.188795893201444,368.33398557512675,17.994381849248292,382.5,39.40269230769232C396.66601442487325,60.81100276613635,410.8331577297736,103.82203772697753,425,124.83884615384616C439.1668422702264,145.8556545807148,453.33338350577895,144.8782364736108,467.5,147.68461538461537C481.66661649422105,150.49099429561994,495.8333082471105,157.08117022473306,510,163.67134615384614L510,179.3071153846154C495.8333082471105,172.6368004534227,481.66661649422105,165.96648552223002,467.5,163.81019230769232C453.33338350577895,161.65389909315462,439.1668422702264,164.01162759527193,425,143.9725C410.8331577297736,123.93337240472808,396.66601442487325,81.49738871206694,382.5,60.69980769230769C368.33398557512675,39.90222667254843,354.1691000302805,40.74304832569102,340,36.44865384615385C325.8308999697195,32.154259366616685,311.6575854540046,22.724648754399777,297.5,21.07634615384614C283.3424145459954,19.4280435532925,269.2005581537012,25.56104896440212,255,35.39326923076923C240.7994418462988,45.22548949713634,226.54018193119057,58.75692461876092,212.5,64.12403846153845C198.45981806880943,69.49115230431597,184.6387141215365,66.69394486824648,170,67.32942307692308C155.3612858784635,67.96490128559968,139.90496158266325,72.0330651390224,127.5,76.40211538461539C115.09503841733675,80.77116563020837,105.7414395478105,85.44110226797163,85,89.73423076923078C64.2585604521895,94.02735927048992,32.12928022609475,97.94367963524496,0,101.86000000000001Z"><title>GR1</title></path><path fill="#9467bd" d="M0,102.86000000000001C32.12928022609475,98.93645343661049,64.2585604521895,95.01290687322096,85,90.73423076923078C105.7414395478105,86.4555546652406,115.09503841733675,81.82174902064978,127.5,77.40211538461539C139.90496158266325,72.982481748581,155.36128587846346,68.77702012110312,170,68.32942307692308C184.63871412153654,67.88182603274304,198.45981806880945,71.19209357186085,212.5,65.12403846153845C226.54018193119055,59.05598335121605,240.79944184629875,43.60960559145345,255,36.39326923076923C269.20055815370125,29.176932870085004,283.34241454599544,30.190637908479175,297.5,22.07634615384614C311.65758545400456,13.962054399213104,325.83089996971944,-3.280234148447139,340,-10.454807692307682C354.16910003028056,-17.629381236168225,368.33398557512675,-14.736239776229073,382.5,-5.338653846153847C396.66601442487325,4.058932083921379,410.8331577297736,19.96096248413268,425,42.435C439.1668422702264,64.90903751586733,453.33338350577895,93.95508214739067,467.5,112.27384615384614C481.66661649422105,130.5926101603016,495.8333082471105,138.18409354168926,510,145.77557692307693L510,162.67134615384614C495.8333082471105,154.74290624390864,481.66661649422105,146.81446633397113,467.5,129.1228846153846C453.33338350577895,111.43130289679809,439.1668422702264,83.97657936956256,425,62.370000000000005C410.8331577297736,40.76342063043746,396.66601442487325,25.004985418547847,382.5,16.10211538461538C368.33398557512675,7.199245350682914,354.1691000302805,5.151940494707588,340,12.5523076923077C325.8308999697195,19.95267488990781,311.6575854540046,36.800714141083354,297.5,44.94153846153845C283.3424145459954,53.082362781993545,269.2005581537012,52.51597217172815,255,59.00576923076923C240.7994418462988,65.49556628981031,226.54018193119057,79.04155101815785,212.5,84.18153846153845C198.45981806880943,89.32152590491906,184.6387141215365,86.05551606333279,170,86.3675C155.3612858784635,86.67948393666722,139.90496158266325,90.56946165158793,127.5,94.15076923076924C115.09503841733675,97.73207680995056,105.7414395478105,101.00471425339248,85,104.91096153846155C64.2585604521895,108.81720882353062,32.12928022609475,113.35706595022685,0,117.89692307692309Z"><title>GR2</title></path><path fill="#8c564b" d="M0,118.89692307692309C32.12928022609475,114.36119659841263,64.2585604521895,109.82547011990218,85,105.91096153846155C105.7414395478105,101.99645295702092,115.09503841733675,98.70316227265015,127.5,95.15076923076924C139.90496158266325,91.59837618888834,155.36128587846346,87.78688078949726,170,87.3675C184.63871412153654,86.94811921050275,198.45981806880945,89.92085303089928,212.5,85.18153846153845C226.54018193119055,80.44222389217762,240.79944184629875,67.99086093305948,255,60.00576923076923C269.20055815370125,52.02067752847899,283.34241454599544,48.50185708301669,297.5,45.94153846153845C311.65758545400456,43.38121984006021,325.83089996971944,41.77940304256608,340,37.44865384615385C354.16910003028056,33.117904649741625,368.33398557512675,26.058223054411314,382.5,17.10211538461538C396.66601442487325,8.146007714819449,410.8331577297736,-2.706526029442109,425,0.5355769230769152C439.1668422702264,3.7776798755959393,453.33338350577895,21.114419524895553,467.5,38.53596153846154C481.66661649422105,55.95750355202753,495.8333082471105,73.46384792985992,510,90.9701923076923L510,108.29346153846154C495.8333082471105,90.60696230485134,481.66661649422105,72.92046307124113,467.5,56.02192307692309C453.33338350577895,39.12338308260505,439.1668422702264,23.0128023275792,425,20.49653846153846C410.8331577297736,17.98027459549772,396.66601442487325,29.058327618442064,382.5,38.40269230769232C368.33398557512675,47.747056996942575,354.1691000302805,55.35773335249873,340,59.85692307692307C325.8308999697195,64.35611280134741,311.6575854540046,65.74381589463987,297.5,68.05384615384615C283.3424145459954,70.36387641305244,269.2005581537012,73.5962338381726,255,80.48769230769231C240.7994418462988,87.37915077721203,226.54018193119057,97.92971029113139,212.5,102.00115384615384C198.45981806880943,106.0725974011763,184.6387141215365,103.6649249973018,170,103.91884615384616C155.3612858784635,104.17276731039053,139.90496158266325,107.08828202735369,127.5,110.00769230769231C115.09503841733675,112.92710258803093,105.7414395478105,115.8504084317451,85,119.49749999999997C64.2585604521895,123.14459156825485,32.12928022609475,127.5154688610505,0,131.88634615384615Z"><title>GR3</title></path><path fill="#e377c2" d="M0,145.80442307692306C32.12928022609475,141.8734991948117,64.2585604521895,137.9425753127003,85,134.66692307692307C105.7414395478105,131.39127084114583,115.09503841733675,128.7708902517027,127.5,126.48211538461538C139.90496158266325,124.19334051752807,155.36128587846346,122.23617137279662,170,121.89038461538459C184.63871412153654,121.54459785797256,198.45981806880945,122.81019348787991,212.5,120.34307692307692C226.54018193119055,117.87596035827393,240.79944184629875,111.67613159876063,255,101.29596153846153C269.20055815370125,90.91579147816242,283.34241454599544,76.3552801170775,297.5,69.05384615384615C311.65758545400456,61.752412190614805,325.83089996971944,61.710055625237,340,60.85692307692307C354.16910003028056,60.00379052860914,368.33398557512675,58.33988199735914,382.5,61.69980769230769C396.66601442487325,65.05973338725623,410.8331577297736,73.4434933084033,425,63.370000000000005C439.1668422702264,53.296506691596704,453.33338350577895,24.765760153643022,467.5,19.991153846153857C481.66661649422105,15.21654753866469,495.8333082471105,34.19808146164004,510,53.17961538461539L510,71.3128846153846C495.8333082471105,51.854283290813875,481.66661649422105,32.39568196624316,467.5,37.53596153846154C453.33338350577895,42.676241110679925,439.1668422702264,72.4154015796874,425,83.15442307692307C410.8331577297736,93.89344457415874,396.66601442487325,85.63232709962263,382.5,82.56942307692309C368.33398557512675,79.50651905422355,354.1691000302805,81.64182848336056,340,82.44653846153847C325.8308999697195,83.25124843971638,311.6575854540046,82.72535896693527,297.5,89.49596153846154C283.3424145459954,96.26656410998781,269.2005581537012,110.33365872582146,255,119.7926923076923C240.7994418462988,129.25172588956315,226.54018193119057,134.10269843747116,212.5,135.8801923076923C198.45981806880943,137.65768617791346,184.6387141215365,136.36170137044786,170,136.55865384615385C155.3612858784635,136.75560632185983,139.90496158266325,138.44549608073746,127.5,140.3646153846154C115.09503841733675,142.28373468849335,105.7414395478105,144.4320835373717,85,147.3344230769231C64.2585604521895,150.23676261647446,32.12928022609475,153.89309284669878,0,157.54942307692306Z"><title>GR4</title></path><path fill="#7f7f7f" d="M0,158.54942307692306C32.12928022609475,155.45486220092397,64.2585604521895,152.3603013249249,85,148.3344230769231C105.7414395478105,144.30854482892127,115.09503841733675,139.35134920891676,127.5,141.3646153846154C139.90496158266325,143.37788156031405,155.36128587846346,152.36160953171583,170,152.45846153846153C184.63871412153654,152.55531354520724,198.45981806880945,143.7652895872969,212.5,136.8801923076923C226.54018193119055,129.99509502808772,240.79944184629875,125.0149244267889,255,120.7926923076923C269.20055815370125,116.57046018859572,283.34241454599544,113.10616655170139,297.5,111.41884615384616C311.65758545400456,109.73152575599093,325.83089996971944,109.82117859717476,340,104.59096153846153C354.16910003028056,99.36074447974829,368.33398557512675,88.81065752113794,382.5,83.56942307692309C396.66601442487325,78.32818863270823,410.8331577297736,78.3958067028889,425,84.15442307692307C439.1668422702264,89.91303945095723,453.33338350577895,101.36265412884492,467.5,93.935C481.66661649422105,86.50734587115508,495.8333082471105,60.202422935577545,510,33.89750000000001L510,52.17961538461539C495.8333082471105,77.86417851939613,481.66661649422105,103.5487416541769,467.5,111.27384615384614C453.33338350577895,118.99895065351538,439.1668422702264,108.7645965180731,425,103.55980769230769C410.8331577297736,98.35501886654227,396.66601442487325,98.17979535045362,382.5,103.44903846153845C368.33398557512675,108.71828157262328,354.1691000302805,119.43199131088159,340,124.34596153846155C325.8308999697195,129.25993176604152,311.6575854540046,128.3741624829431,297.5,129.6698076923077C283.3424145459954,130.9654529016723,269.2005581537012,134.44251260350003,255,137.7767307692308C240.7994418462988,141.11094893496156,226.54018193119057,144.3023255645955,212.5,150.5428846153846C198.45981806880943,156.7834436661737,184.6387141215365,166.07318513811794,170,166.16096153846155C155.3612858784635,166.24873793880516,139.90496158266325,157.13454926754815,127.5,154.74519230769232C115.09503841733675,152.3558353478365,105.7414395478105,156.69131009938184,85,160.29923076923075C64.2585604521895,163.90715143907966,32.12928022609475,166.78751802723212,0,169.66788461538462Z"><title>GR5</title></path><path fill="#bcbd22" d="M0,170.66788461538462C32.12928022609475,166.6476085529672,64.2585604521895,162.62733249054975,85,161.29923076923075C105.7414395478105,159.97112904791175,115.09503841733675,161.33520166769122,127.5,155.74519230769232C139.90496158266325,150.15518294769342,155.36128587846346,137.6110916079161,170,137.55865384615385C184.63871412153654,137.50621608439158,198.45981806880945,149.94543190064437,212.5,151.5428846153846C226.54018193119055,153.14033733012482,240.79944184629875,143.89602694335252,255,138.7767307692308C269.20055815370125,133.65743459510907,283.34241454599544,132.66315263363796,297.5,130.6698076923077C311.65758545400456,128.67646275097744,325.83089996971944,125.68405482978805,340,125.34596153846155C354.16910003028056,125.00786824713505,368.33398557512675,127.32408958567143,382.5,124.76615384615386C396.66601442487325,122.20821810663628,410.8331577297736,114.77612528906478,425,104.55980769230769C439.1668422702264,94.34349009555059,453.33338350577895,81.34294771960786,467.5,75.50442307692309C481.66661649422105,69.66589843423831,495.8333082471105,70.98939152481145,510,72.3128846153846L510,89.9701923076923C495.8333082471105,88.33749072615694,481.66661649422105,86.70478914462159,467.5,92.935C453.33338350577895,99.16521085537842,439.1668422702264,113.2583341476707,425,123.83884615384616C410.8331577297736,134.41935816002163,396.66601442487325,141.4872588800802,382.5,143.8651923076923C368.33398557512675,146.2431257353044,354.1691000302805,143.9310918704701,340,144.07807692307694C325.8308999697195,144.22506197568376,311.6575854540046,146.83106594573178,297.5,148.3703846153846C283.3424145459954,149.90970328503744,269.2005581537012,150.38233665429516,255,154.5578846153846C240.7994418462988,158.73343257647406,226.54018193119057,166.61189512939518,212.5,164.74346153846153C198.45981806880943,162.87502794752788,184.6387141215365,151.2596982127394,170,151.45846153846153C155.3612858784635,151.65722486418366,139.90496158266325,163.67008125041633,127.5,168.745C115.09503841733675,173.81991874958368,105.7414395478105,171.95689986251844,85,172.8244230769231C64.2585604521895,173.69194629132775,32.12928022609475,177.29001160720233,0,180.8880769230769Z"><title>GR6</title></path><path fill="#17becf" d="M0,181.8880769230769C32.12928022609475,178.89175604740296,64.2585604521895,175.89543517172896,85,173.8244230769231C105.7414395478105,171.75341098211723,115.09503841733675,170.60770766817953,127.5,169.745C139.90496158266325,168.88229233182048,155.36128587846346,168.3025803093992,170,167.16096153846155C184.63871412153654,166.0193427675239,198.45981806880945,164.31581724806998,212.5,165.74346153846153C226.54018193119055,167.1711058288531,240.79944184629875,171.7299199290902,255,171.93403846153845C269.20055815370125,172.1381569939867,283.34241454599544,167.98757995864608,297.5,166.80403846153845C311.65758545400456,165.62049696443083,325.83089996971944,167.40399100555618,340,162.99115384615385C354.16910003028056,158.57831668675152,368.33398557512675,147.96914832682157,382.5,144.8651923076923C396.66601442487325,141.76123628856303,410.8331577297736,146.16249261023438,425,144.9725C439.1668422702264,143.7825073897656,453.33338350577895,137.00126584762532,467.5,130.1228846153846C481.66661649422105,123.2445033831439,495.8333082471105,116.26898246080272,510,109.29346153846154L510,126.58038461538462C495.8333082471105,133.09641505048955,481.66661649422105,139.61244548559452,467.5,146.68461538461537C453.33338350577895,153.75678528363622,439.1668422702264,161.38509464657284,425,162.6973076923077C410.8331577297736,164.00952073804257,396.66601442487325,159.0056374665757,382.5,161.90807692307692C368.33398557512675,164.81051637957813,354.1691000302805,175.61927856404733,340,179.7571153846154C325.8308999697195,183.89495220518344,311.6575854540046,181.3618636618503,297.5,182.22346153846155C283.3424145459954,183.0850594150728,269.2005581537012,187.34134371162858,255,186.5798076923077C240.7994418462988,185.8182716729868,226.54018193119057,180.03891533778926,212.5,178.23788461538462C198.45981806880943,176.43685389297997,184.6387141215365,178.6141487833682,170,179.79384615384618C155.3612858784635,180.97354352432416,139.90496158266325,181.155643374892,127.5,181.64057692307694C115.09503841733675,182.12551047126186,105.7414395478105,182.9132777170638,85,184.62615384615384C64.2585604521895,186.33902997524388,32.12928022609475,188.97701498762194,0,191.61499999999998Z"><title>GR7</title></path><path fill="#cccccc" d="M0,192.61499999999998C32.12928022609475,196.57187801616425,64.2585604521895,200.52875603232846,85,197.25480769230768C105.7414395478105,193.9808593522869,115.09503841733675,183.47608465608107,127.5,182.64057692307694C139.90496158266325,181.8050691900728,155.36128587846346,190.6388284202704,170,193.86769230769232C184.63871412153654,197.09655619511423,198.45981806880945,194.72052473976052,212.5,192.71673076923076C226.54018193119055,190.712936798701,240.79944184629875,189.08138031299524,255,187.5798076923077C269.20055815370125,186.07823507162016,283.34241454599544,184.70664631595082,297.5,183.22346153846155C311.65758545400456,181.74027676097228,325.83089996971944,180.14549596166296,340,180.7571153846154C354.16910003028056,181.36873480756782,368.33398557512675,184.18675445278188,382.5,180.1998076923077C396.66601442487325,176.21286093183352,410.8331577297736,165.42094776567117,425,163.6973076923077C439.1668422702264,161.97366761894423,453.33338350577895,169.3183006383797,467.5,164.81019230769232C481.66661649422105,160.30208397700494,495.8333082471105,143.94123429619478,510,127.58038461538462L510,144.77557692307693C495.8333082471105,160.5280178462708,481.66661649422105,176.28045876946467,467.5,180.7055769230769C453.33338350577895,185.13069507668914,439.1668422702264,178.2284904607197,425,180.06C410.8331577297736,181.8915095392803,396.66601442487325,192.45673323381027,382.5,196.18692307692308C368.33398557512675,199.9171129200359,354.1691000302805,196.81226891173154,340,196.1228846153846C325.8308999697195,195.43350031903768,311.6575854540046,197.15957573464829,297.5,198.49576923076924C283.3424145459954,199.8319627268902,269.2005581537012,200.77827430352136,255,201.5730769230769C240.7994418462988,202.36787954263247,226.54018193119057,203.0111732051125,212.5,204.63307692307694C198.45981806880943,206.25498064104139,184.6387141215365,208.85549441449007,170,205.68365384615385C155.3612858784635,202.51181327781762,139.90496158266325,193.56761836769644,127.5,194.12942307692308C115.09503841733675,194.6912277861497,105.7414395478105,204.7590321147241,85,207.64461538461538C64.2585604521895,210.53019865450665,32.12928022609475,206.23356086571488,0,201.93692307692308Z"><title>GR8</title></path><path fill="#cccccc" d="M0,132.88634615384615C32.12928022609475,128.5005654166735,64.2585604521895,124.1147846795009,85,120.49749999999997C105.7414395478105,116.88021532049905,115.09503841733675,114.03142669866985,127.5,111.00769230769231C139.90496158266325,107.98395791671477,155.36128587846346,104.78527775658885,170,104.91884615384616C184.63871412153654,105.05241455110347,198.45981806880945,108.51823150574411,212.5,103.00115384615384C226.54018193119055,97.48407618656357,240.79944184629875,82.98410391274244,255,81.48769230769231C269.20055815370125,79.99128070264219,283.34241454599544,91.49842976636305,297.5,90.49596153846154C311.65758545400456,89.49349331056004,325.83089996971944,75.98140779103618,340,83.44653846153847C354.16910003028056,90.91166913204076,368.33398557512675,119.3540159925692,382.5,104.44903846153845C396.66601442487325,89.5440609305077,410.8331577297736,31.29175900791774,425,21.49653846153846C439.1668422702264,11.70131791515918,453.33338350577895,50.36317874499055,467.5,57.02192307692309C481.66661649422105,63.680667408855626,495.8333082471105,38.33629524288935,510,12.991923076923069L510,32.89750000000001C495.8333082471105,56.9138276759701,481.66661649422105,80.93015535194019,467.5,74.50442307692309C453.33338350577895,68.07869080190599,439.1668422702264,31.210898575901673,425,41.435C410.8331577297736,51.65910142409833,396.66601442487325,108.97509649829934,382.5,123.76615384615386C368.33398557512675,138.55721119400837,354.1691000302805,110.82333081551654,340,103.59096153846153C325.8308999697195,96.35859226140651,311.6575854540046,109.62773408578835,297.5,110.41884615384616C283.3424145459954,111.20995822190397,269.2005581537012,99.52304053363778,255,100.29596153846153C240.7994418462988,101.06888254328527,226.54018193119057,114.30164224119905,212.5,119.34307692307692C198.45981806880943,124.3845116049548,184.6387141215365,121.23462127079675,170,120.89038461538459C155.3612858784635,120.54614795997243,139.90496158266325,123.00756498330618,127.5,125.48211538461538C115.09503841733675,127.95666578592459,105.7414395478105,130.44434956520922,85,133.66692307692307C64.2585604521895,136.88949658863692,32.12928022609475,140.84695983278,0,144.80442307692306Z"><title>GR9</title></path><path fill="#ff7f0e" d="M0,202.93692307692308C32.12928022609475,194.07274209385554,64.2585604521895,185.20856111078794,85,185.62615384615384C105.7414395478105,186.04374658151974,115.09503841733675,195.743113035319,127.5,195.12942307692308C139.90496158266325,194.51573311852715,155.36128587846346,183.58898674793608,170,180.79384615384618C184.63871412153654,177.99870555975627,198.45981806880945,183.33517074216763,212.5,179.23788461538462C226.54018193119055,175.1405984886016,240.79944184629875,161.60956105262426,255,155.5578846153846C269.20055815370125,149.50620817814496,283.34241454599544,150.93389273964297,297.5,149.3703846153846C311.65758545400456,147.80687649112625,325.83089996971944,143.2521756811114,340,145.07807692307694C354.16910003028056,146.90397816504247,368.33398557512675,155.11048145898837,382.5,162.90807692307692C396.66601442487325,170.70567238716546,410.8331577297736,178.09436002139662,425,181.06C439.1668422702264,184.02563997860338,453.33338350577895,182.56823230157894,467.5,181.7055769230769C481.66661649422105,180.84292154457486,495.8333082471105,180.57501846459513,510,180.3071153846154L510,195.9273076923077C495.8333082471105,196.32321569529412,481.66661649422105,196.7191236982805,467.5,197.5525C453.33338350577895,198.38587630171952,439.1668422702264,199.65672090217228,425,196.73557692307693C410.8331577297736,193.8144329439816,396.66601442487325,186.70130038533804,382.5,179.1998076923077C368.33398557512675,171.69831499927736,354.1691000302805,163.8084621718603,340,161.99115384615385C325.8308999697195,160.1738455204474,311.6575854540046,164.4290816964516,297.5,165.80403846153845C283.3424145459954,167.17899522662532,269.2005581537012,165.67367258079477,255,170.93403846153845C240.7994418462988,176.19440434228213,226.54018193119057,188.22045874960006,212.5,191.71673076923076C198.45981806880943,195.21300278886147,184.6387141215365,190.17949242080505,170,192.86769230769232C155.3612858784635,195.5558921945796,139.90496158266325,205.96580233641046,127.5,206.33096153846154C115.09503841733675,206.6961207405126,105.7414395478105,197.0165290027838,85,196.25480769230768C64.2585604521895,195.49308638183155,32.12928022609475,203.64923549860808,0,211.8053846153846Z"><title>GR10</title></path><path fill="#2ca02c" d="M0,212.8053846153846C32.12928022609475,210.11549873181767,64.2585604521895,207.4256128482507,85,208.64461538461538C105.7414395478105,209.86361792098006,115.09503841733675,214.99150887727643,127.5,216.88442307692307C139.90496158266325,218.7773372765697,155.36128587846346,217.43527471956665,170,216.58673076923077C184.63871412153654,215.7381868188949,198.45981806880945,215.38316147522607,212.5,216.0882692307692C226.54018193119055,216.79337698631235,240.79944184629875,218.55861784106742,255,214.34884615384615C269.20055815370125,210.1390744666249,283.34241454599544,199.95429023742736,297.5,199.49576923076924C311.65758545400456,199.03724822411112,325.83089996971944,208.3049904399924,340,211.73538461538462C354.16910003028056,215.16577879077684,368.33398557512675,212.75882492568007,382.5,211.93788461538463C396.66601442487325,211.1169443050892,410.8331577297736,211.88201754959505,425,212.30653846153845C439.1668422702264,212.73105937348186,453.33338350577895,212.81502795286292,467.5,212.6198076923077C481.66661649422105,212.42458743175246,495.8333082471105,211.95017833126084,510,211.47576923076923L510,225C495.8333082471105,224.96440347243723,481.66661649422105,224.92880694487445,467.5,225C453.33338350577895,225.07119305512555,439.1668422702264,225.24917569293936,425,225C410.8331577297736,224.75082430706064,396.66601442487325,224.07449028336805,382.5,225C368.33398557512675,225.92550971663195,354.1691000302805,228.45286317358838,340,225C325.8308999697195,221.54713682641162,311.6575854540046,212.11405702227847,297.5,212.10442307692307C283.3424145459954,212.09478913156767,269.2005581537012,221.50860104498992,255,225C240.7994418462988,228.49139895501008,226.54018193119057,226.0603849516081,212.5,225C198.45981806880943,223.9396150483919,184.6387141215365,224.24985914857768,170,225C155.3612858784635,225.75014085142232,139.90496158266325,226.94017845408118,127.5,225C115.09503841733675,223.05982154591882,105.7414395478105,217.9894270350977,85,216.41403846153847C64.2585604521895,214.83864988797924,32.12928022609475,216.75826725168193,0,218.6778846153846Z"><title>GR11</title></path><path fill="#d62728" d="M0,219.6778846153846C32.12928022609475,219.83655084028402,64.2585604521895,219.99521706518348,85,217.41403846153847C105.7414395478105,214.83285985789345,115.09503841733675,209.5118364257041,127.5,207.33096153846154C139.90496158266325,205.15008665121897,155.36128587846346,206.10936030892333,170,206.68365384615385C184.63871412153654,207.25794738338436,198.45981806880945,207.44726080014112,212.5,205.63307692307694C226.54018193119055,203.81889304601276,240.79944184629875,200.00121187512772,255,202.5730769230769C269.20055815370125,205.1449419710261,283.34241454599544,214.10635323780951,297.5,213.10442307692307C311.65758545400456,212.10249291603662,325.83089996971944,201.13722132748032,340,197.1228846153846C354.16910003028056,193.1085479032889,368.33398557512675,196.04514606765395,382.5,197.18692307692308C396.66601442487325,198.3287000861922,410.8331577297736,197.67565594036543,425,197.73557692307693C439.1668422702264,197.79549790578844,453.33338350577895,198.56838401703845,467.5,198.5525C481.66661649422105,198.53661598296156,495.8333082471105,197.73196183763463,510,196.9273076923077L510,210.47576923076923C495.8333082471105,211.02334089075663,481.66661649422105,211.57091255074394,467.5,211.6198076923077C453.33338350577895,211.66870283387144,439.1668422702264,211.21892145701148,425,211.30653846153845C410.8331577297736,211.39415546606543,396.66601442487325,212.01917085197945,382.5,210.93788461538463C368.33398557512675,209.8565983787898,354.1691000302805,207.06901051968615,340,210.73538461538462C325.8308999697195,214.4017587110831,311.6575854540046,224.5220947615835,297.5,225C283.3424145459954,225.4779052384165,269.2005581537012,216.31337966474908,255,213.34884615384615C240.7994418462988,210.38431264294323,226.54018193119057,213.6197711948048,212.5,215.0882692307692C198.45981806880943,216.55676726673363,184.6387141215365,216.2583047868009,170,215.58673076923077C155.3612858784635,214.91515675166065,139.90496158266325,213.870471196453,127.5,215.88442307692307C115.09503841733675,217.89837495739314,105.7414395478105,222.9709642735409,85,225C64.2585604521895,227.0290357264591,32.12928022609475,226.01451786322957,0,225Z"><title>GR12</title></path></g><g id="xAxis" transform="translate(0,225)" fill="none" font-size="10" font-family="sans-serif" text-anchor="middle"><path class="domain" stroke="currentColor" d="M0.5,0.5H510.5"/><g class="tick" opacity="1" transform="translate(0.5,0)"><line stroke="currentColor" y2="6"/><text fill="currentColor" y="9" dy="0.71em">2,009</text></g><g class="tick" opacity="1" transform="translate(43,0)"><line stroke="currentColor" y2="6"/><text fill="currentColor" y="9" dy="0.71em">2,010</text></g><g class="tick" opacity="1" transform="translate(85.5,0)"><line stroke="currentColor" y2="6"/><text fill="currentColor" y="9" dy="0.71em">2,011</text></g><g class="tick" opacity="1" transform="translate(128,0)"><line stroke="currentColor" y2="6"/><text fill="currentColor" y="9" dy="0.71em">2,012</text></g><g class="tick" opacity="1" transform="translate(170.5,0)"><line stroke="currentColor" y2="6"/><text fill="currentColor" y="9" dy="0.71em">2,013</text></g><g class="tick" opacity="1" transform="translate(213,0)"><line stroke="currentColor" y2="6"/><text fill="currentColor" y="9" dy="0.71em">2,014</text></g><g class="tick" opacity="1" transform="translate(255.5,0)"><line stroke="currentColor" y2="6"/><text fill="currentColor" y="9" dy="0.71em">2,015</text></g><g class="tick" opacity="1" transform="translate(298,0)"><line stroke="currentColor" y2="6"/><text fill="currentColor" y="9" dy="0.71em">2,016</text></g><g class="tick" opacity="1" transform="translate(340.5,0)"><line stroke="currentColor" y2="6"/><text fill="currentColor" y="9" dy="0.71em">2,017</text></g><g class="tick" opacity="1" transform="translate(383,0)"><line stroke="currentColor" y2="6"/><text fill="currentColor" y="9" dy="0.71em">2,018</text></g><g class="tick" opacity="1" transform="translate(425.5,0)"><line stroke="currentColor" y2="6"/><text fill="currentColor" y="9" dy="0.71em">2,019</text></g><g class="tick" opacity="1" transform="translate(468,0)"><line stroke="currentColor" y2="6"/><text fill="currentColor" y="9" dy="0.71em">2,020</text></g><g class="tick" opacity="1" transform="translate(510.5,0)"><line stroke="currentColor" y2="6"/><text fill="currentColor" y="9" dy="0.71em">2,021</text></g></g><g id="yAxis" fill="none" font-size="10" font-family="sans-serif" text-anchor="end"><path class="domain" stroke="currentColor" d="M0.5,225.5V0.5"/><g class="tick" opacity="1" transform="translate(0,225.5)"><line stroke="currentColor" x2="-6"/><text fill="currentColor" x="-9" dy="0.32em">0</text></g><g class="tick" opacity="1" transform="translate(0,208.1923076923077)"><line stroke="currentColor" x2="-6"/><text fill="currentColor" x="-9" dy="0.32em">10,000</text></g><g class="tick" opacity="1" transform="translate(0,190.8846153846154)"><line stroke="currentColor" x2="-6"/><text fill="currentColor" x="-9" dy="0.32em">20,000</text></g><g class="tick" opacity="1" transform="translate(0,173.57692307692307)"><line stroke="currentColor" x2="-6"/><text fill="currentColor" x="-9" dy="0.32em">30,000</text></g><g class="tick" opacity="1" transform="translate(0,156.26923076923077)"><line stroke="currentColor" x2="-6"/><text fill="currentColor" x="-9" dy="0.32em">40,000</text></g><g class="tick" opacity="1" transform="translate(0,138.96153846153848)"><line stroke="currentColor" x2="-6"/><text fill="currentColor" x="-9" dy="0.32em">50,000</text></g><g class="tick" opacity="1" transform="translate(0,121.65384615384615)"><line stroke="currentColor" x2="-6"/><text fill="currentColor" x="-9" dy="0.32em">60,000</text></g><g class="tick" opacity="1" transform="translate(0,104.34615384615385)"><line stroke="currentColor" x2="-6"/><text fill="currentColor" x="-9" dy="0.32em">70,000</text></g><g class="tick" opacity="1" transform="translate(0,87.03846153846153)"><line stroke="currentColor" x2="-6"/><text fill="currentColor" x="-9" dy="0.32em">80,000</text></g><g class="tick" opacity="1" transform="translate(0,69.73076923076924)"><line stroke="currentColor" x2="-6"/><text fill="currentColor" x="-9" dy="0.32em">90,000</text></g><g class="tick" opacity="1" transform="translate(0,52.42307692307691)"><line stroke="currentColor" x2="-6"/><text fill="currentColor" x="-9" dy="0.32em">100,000</text></g><g class="tick" opacity="1" transform="translate(0,35.11538461538462)"><line stroke="currentColor" x2="-6"/><text fill="currentColor" x="-9" dy="0.32em">110,000</text></g><g class="tick" opacity="1" transform="translate(0,17.807692307692296)"><line stroke="currentColor" x2="-6"/><text fill="currentColor" x="-9" dy="0.32em">120,000</text></g><g class="tick" opacity="1" transform="translate(0,0.5)"><line stroke="currentColor" x2="-6"/><text fill="currentColor" x="-9" dy="0.32em">130,000</text></g></g><text y="221" x="510" text-anchor="end" style="font-family: Arial, sans-serif; font-size: 12px; fill: rgb(123, 123, 123); font-weight: bold;">Year</text><text x="4" text-anchor="start" dominant-baseline="hanging" style="font-family: Arial, sans-serif; font-size: 12px; fill: rgb(123, 123, 123); font-weight: bold;">Grades</text><g id="labels"><text x="297.5" y="20.37201923076922" text-anchor="middle" alignment-baseline="middle" style="font-family: Arial, sans-serif; font-size: 10px; fill: black; font-weight: bold;">GR1</text><text x="340" y="12.048749999999997" text-anchor="middle" alignment-baseline="middle" style="font-family: Arial, sans-serif; font-size: 10px; fill: black; font-weight: bold;">GR2</text><text x="340" y="57.65278846153845" text-anchor="middle" alignment-baseline="middle" style="font-family: Arial, sans-serif; font-size: 10px; fill: black; font-weight: bold;">GR3</text><text x="340" y="79.65173076923078" text-anchor="middle" alignment-baseline="middle" style="font-family: Arial, sans-serif; font-size: 10px; fill: black; font-weight: bold;">GR4</text><text x="382.5" y="100.50923076923078" text-anchor="middle" alignment-baseline="middle" style="font-family: Arial, sans-serif; font-size: 10px; fill: black; font-weight: bold;">GR5</text><text x="425" y="120.19932692307694" text-anchor="middle" alignment-baseline="middle" style="font-family: Arial, sans-serif; font-size: 10px; fill: black; font-weight: bold;">GR6</text><text x="425" y="157.83490384615385" text-anchor="middle" alignment-baseline="middle" style="font-family: Arial, sans-serif; font-size: 10px; fill: black; font-weight: bold;">GR7</text><text x="510" y="141.17798076923077" text-anchor="end" alignment-baseline="middle" style="font-family: Arial, sans-serif; font-size: 10px; fill: black; font-weight: bold;">GR8</text><text x="340" y="100.51875" text-anchor="middle" alignment-baseline="middle" style="font-family: Arial, sans-serif; font-size: 10px; fill: black; font-weight: bold;">GR9</text><text x="340" y="157.5346153846154" text-anchor="middle" alignment-baseline="middle" style="font-family: Arial, sans-serif; font-size: 10px; fill: black; font-weight: bold;">GR10</text><text x="510" y="218.23788461538462" text-anchor="end" alignment-baseline="middle" style="font-family: Arial, sans-serif; font-size: 10px; fill: black; font-weight: bold;">GR11</text><text x="382.5" y="205.06240384615384" text-anchor="middle" alignment-baseline="middle" style="font-family: Arial, sans-serif; font-size: 10px; fill: black; font-weight: bold;">GR12</text></g></g><text x="4" y="4" style="font-family: Arial, sans-serif; font-size: 12px; fill: black; font-weight: bold; dominant-baseline: hanging;"/></g></g><g id="legend" transform="translate(650,50)"><g transform="translate(5,0)"><g class="legendColor" transform="translate(0,0)"><g class="legendCells" transform="translate(0,16)"><g class="cell" transform="translate(0, 0)"><rect class="swatch" height="15" width="15" style="fill: rgb(31, 119, 180);"/><text class="label" transform="translate( 20, 12.5)" font-family="&quot;Arial&quot;, sans-serif" font-size="10px"><tspan x="0" dy="0em">GR1</tspan></text></g><g class="cell" transform="translate(0, 21)"><rect class="swatch" height="15" width="15" style="fill: rgb(255, 127, 14);"/><text class="label" transform="translate( 20, 12.5)" font-family="&quot;Arial&quot;, sans-serif" font-size="10px"><tspan x="0" dy="0em">GR10</tspan></text></g><g class="cell" transform="translate(0, 42)"><rect class="swatch" height="15" width="15" style="fill: rgb(44, 160, 44);"/><text class="label" transform="translate( 20, 12.5)" font-family="&quot;Arial&quot;, sans-serif" font-size="10px"><tspan x="0" dy="0em">GR11</tspan></text></g><g class="cell" transform="translate(0, 63)"><rect class="swatch" height="15" width="15" style="fill: rgb(214, 39, 40);"/><text class="label" transform="translate( 20, 12.5)" font-family="&quot;Arial&quot;, sans-serif" font-size="10px"><tspan x="0" dy="0em">GR12</tspan></text></g><g class="cell" transform="translate(0, 84)"><rect class="swatch" height="15" width="15" style="fill: rgb(148, 103, 189);"/><text class="label" transform="translate( 20, 12.5)" font-family="&quot;Arial&quot;, sans-serif" font-size="10px"><tspan x="0" dy="0em">GR2</tspan></text></g><g class="cell" transform="translate(0, 105)"><rect class="swatch" height="15" width="15" style="fill: rgb(140, 86, 75);"/><text class="label" transform="translate( 20, 12.5)" font-family="&quot;Arial&quot;, sans-serif" font-size="10px"><tspan x="0" dy="0em">GR3</tspan></text></g><g class="cell" transform="translate(0, 126)"><rect class="swatch" height="15" width="15" style="fill: rgb(227, 119, 194);"/><text class="label" transform="translate( 20, 12.5)" font-family="&quot;Arial&quot;, sans-serif" font-size="10px"><tspan x="0" dy="0em">GR4</tspan></text></g><g class="cell" transform="translate(0, 147)"><rect class="swatch" height="15" width="15" style="fill: rgb(127, 127, 127);"/><text class="label" transform="translate( 20, 12.5)" font-family="&quot;Arial&quot;, sans-serif" font-size="10px"><tspan x="0" dy="0em">GR5</tspan></text></g><g class="cell" transform="translate(0, 168)"><rect class="swatch" height="15" width="15" style="fill: rgb(188, 189, 34);"/><text class="label" transform="translate( 20, 12.5)" font-family="&quot;Arial&quot;, sans-serif" font-size="10px"><tspan x="0" dy="0em">GR6</tspan></text></g><g class="cell" transform="translate(0, 189)"><rect class="swatch" height="15" width="15" style="fill: rgb(23, 190, 207);"/><text class="label" transform="translate( 20, 12.5)" font-family="&quot;Arial&quot;, sans-serif" font-size="10px"><tspan x="0" dy="0em">GR7</tspan></text></g><g class="cell" transform="translate(0, 210)"><rect class="swatch" height="15" width="15" style="fill: rgb(204, 204, 204);"/><text class="label" transform="translate( 20, 12.5)" font-family="&quot;Arial&quot;, sans-serif" font-size="10px"><tspan x="0" dy="0em">GR8</tspan></text></g><g class="cell" transform="translate(0, 231)"><rect class="swatch" height="15" width="15" style="fill: rgb(204, 204, 204);"/><text class="label" transform="translate( 20, 12.5)" font-family="&quot;Arial&quot;, sans-serif" font-size="10px"><tspan x="0" dy="0em">GR9</tspan></text></g></g><text class="legendTitle" font-family="&quot;Arial&quot;, sans-serif" font-size="12px" font-weight="bold"><tspan x="0" dy="0em">Colors</tspan></text></g></g></g></svg>