<svg xmlns="http://www.w3.org/2000/svg" width="1000" height="800"><rect width="1000" height="800" x="0" y="0" fill="#FFFFFF" id="backgorund"/><g id="viz"><g transform="translate(0,0)"><g transform="translate(72,50)"><g><path fill="rgb(158, 1, 66)" d="M0,302.6853846153846C41.45307135053008,291.0321654500189,82.90614270106016,279.37894628465324,109.66666666666666,264.4438461538462C136.42719063227315,249.50874602303915,148.4951672129561,231.2917649267907,164.5,214.02769230769232C180.5048327870439,196.76361968859393,200.44652178044893,180.45245554664558,219.33333333333331,178.02615384615382C238.2201448862177,175.59985214566206,256.05207899858164,187.05841288662694,274.1666666666667,169.34615384615384C292.28125433475174,151.63389480568074,310.6784955585579,104.75081598376971,329,72.36384615384613C347.3215044414421,39.97687632392253,365.5672721005196,22.08601548598637,383.83333333333337,26.966153846153816C402.09939456614717,31.846292206321262,420.38574937269686,59.49742976459231,438.66666666666663,73.27384615384618C456.9475839606364,87.05026254310005,475.22306374202606,86.95195776333688,493.5,150.58615384615388C511.77693625797394,214.22034992897088,530.0553289925316,341.58704687436796,548.3333333333334,403.94307692307694C566.6113376741351,466.29910697178593,584.8889536211814,463.64447012380697,603.1666666666666,471.9076923076923C621.4443797121519,480.1709144915776,639.7221898560759,499.35199570732726,658,518.5330769230769L658,567.1776923076924C639.7221898560758,547.7472897521395,621.4443797121518,528.3168871965867,603.1666666666666,522.0761538461538C584.8889536211815,515.835420495721,566.6113376741354,522.7843563504082,548.3333333333334,463.47C530.0553289925314,404.1556436495919,511.77693625797383,278.5779950940883,493.5,216.84384615384613C475.22306374202617,155.10969721360397,456.94758396063645,157.21904788862318,438.66666666666663,144.5069230769231C420.3857493726968,131.79479826522302,402.09939456614705,104.26119796680362,383.83333333333337,99.79307692307688C365.5672721005197,95.32495587935014,347.32150444144196,113.92231409031609,329,144.33461538461538C310.67849555855804,174.74691667891466,292.28125433475174,216.97416105654727,274.1666666666667,233.71923076923073C256.05207899858164,250.4643004819142,238.22014488621775,241.7271955296487,219.33333333333331,243.69153846153847C200.44652178044888,245.65588139342825,180.50483278704397,258.3216722094732,164.5,271.9176923076923C148.49516721295603,285.51371240591135,136.42719063227315,300.03996178630433,109.66666666666666,313.39538461538467C82.90614270106018,326.750807444465,41.45307135053009,338.93540372223254,0,351.12Z"><title>GR1</title></path><path fill="rgb(254, 205, 124)" d="M0,351.12C41.45307135053008,338.91385142217996,82.90614270106016,326.70770284435997,109.66666666666666,313.39538461538467C136.42719063227315,300.08306638640937,148.4951672129561,285.66457850627864,164.5,271.9176923076923C180.5048327870439,258.1708061091059,200.44652178044893,245.09552159206388,219.33333333333331,243.69153846153847C238.2201448862177,242.28755533101307,256.05207899858164,252.5548735870043,274.1666666666667,233.71923076923073C292.28125433475174,214.88358795145717,310.6784955585579,166.9449840599189,329,144.33461538461538C347.3215044414421,121.72424670931184,365.5672721005196,124.44211325024315,383.83333333333337,99.79307692307688C402.09939456614717,75.14404059591061,420.38574937269686,23.128101400646713,438.66666666666663,1.6961538461538805C456.9475839606364,-19.735793708338953,475.22306374202606,-10.58374962206073,493.5,17.61307692307692C511.77693625797394,45.80990346821457,530.0553289925316,93.05151247221167,548.3333333333334,160.02C566.6113376741351,226.98848752778835,584.8889536211814,313.683853579368,603.1666666666666,367.96307692307687C621.4443797121519,422.2423002667857,639.7221898560759,444.10538090262366,658,465.96846153846155L658,518.5330769230769C639.7221898560758,495.62168708730604,621.4443797121518,472.7102972515353,603.1666666666666,420.3823076923077C584.8889536211815,368.0543181330801,566.6113376741354,286.3097288503958,548.3333333333334,222.04000000000002C530.0553289925314,157.7702711496042,511.77693625797383,110.9754027314969,493.5,84.3176923076923C475.22306374202617,57.65998188388769,456.94758396063645,51.13942945438582,438.66666666666663,73.27384615384618C420.3857493726968,95.40826285330654,402.09939456614705,146.19764868172916,383.83333333333337,170.92923076923074C365.5672721005197,195.66081285673232,347.32150444144196,194.33459120331278,329,214.6846153846154C310.67849555855804,235.034639565918,292.28125433475174,277.0609095819428,274.1666666666667,293.0092307692307C256.05207899858164,308.95755195651867,238.22014488621775,298.82792431506994,219.33333333333331,299.81C200.44652178044888,300.79207568493007,180.50483278704397,312.8858546962386,164.5,324.0246153846154C148.49516721295603,335.1633760729922,136.42719063227315,345.34711843843735,109.66666666666666,357.50076923076927C82.90614270106018,369.6544200231012,41.45307135053009,383.7779792423198,0,397.9015384615385Z"><title>GR2</title></path><path fill="rgb(254, 240, 165)" d="M0,397.9015384615385C41.45307135053008,383.79029759842905,82.90614270106016,369.6790567353195,109.66666666666666,357.50076923076927C136.42719063227315,345.32248172621905,148.4951672129561,335.0771475802283,164.5,324.0246153846154C180.5048327870439,312.9720831890025,200.44652178044893,301.11235294376723,219.33333333333331,299.81C238.2201448862177,298.50764705623277,256.05207899858164,307.7626714139335,274.1666666666667,293.0092307692307C292.28125433475174,278.25579012452795,310.6784955585579,239.49388447742174,329,214.6846153846154C347.3215044414421,189.87534629180905,365.5672721005196,179.01871375330256,383.83333333333337,170.92923076923074C402.09939456614717,162.83974778515892,420.38574937269686,157.5174143555218,438.66666666666663,144.5069230769231C456.9475839606364,131.4964317983244,475.22306374202606,110.7977826707642,493.5,84.3176923076923C511.77693625797394,57.837601944620395,530.0553289925316,25.57607034603683,548.3333333333334,35.88846153846151C566.6113376741351,46.2008527308862,584.8889536211814,99.08716671431915,603.1666666666666,151.00076923076924C621.4443797121519,202.91437174721932,639.7221898560759,253.8552627966866,658,304.79615384615386L658,358.6907692307692C639.7221898560758,307.1893964077709,621.4443797121518,255.68802358477268,603.1666666666666,205.40153846153848C584.8889536211815,155.11505333830428,566.6113376741354,106.04345591483413,548.3333333333334,97.98923076923076C530.0553289925314,89.93500562362739,511.77693625797383,122.89815275589075,493.5,150.58615384615388C475.22306374202617,178.274154936417,456.94758396063645,200.6870099846799,438.66666666666663,214.22153846153844C420.3857493726968,227.756066938397,402.09939456614705,232.41226884385117,383.83333333333337,239.72307692307695C365.5672721005197,247.03388500230272,347.32150444144196,256.9992992553002,329,278.40615384615387C310.67849555855804,299.81300843700757,292.28125433475174,332.66130336571746,274.1666666666667,345.33692307692303C256.05207899858164,358.0125427881286,238.22014488621775,350.5154872818298,219.33333333333331,351.3030769230769C200.44652178044888,352.090666564324,180.50483278704397,361.16290135311675,164.5,370.24615384615385C148.49516721295603,379.32940633919094,136.42719063227315,388.42367653647216,109.66666666666666,399.77C82.90614270106018,411.1163234635278,41.45307135053009,424.71470019330235,0,438.3130769230769Z"><title>GR3</title></path><path fill="rgb(242, 249, 172)" d="M0,475.39153846153846C41.45307135053008,463.16015009961154,82.90614270106016,450.9287617376846,109.66666666666666,440.7415384615384C136.42719063227315,430.5543151853922,148.4951672129561,422.4112569950265,164.5,415.2776923076923C180.5048327870439,408.14412762035806,200.44652178044893,402.02005643605537,219.33333333333331,400.99230769230763C238.2201448862177,399.9645589485599,256.05207899858164,404.033132645367,274.1666666666667,396.17846153846153C292.28125433475174,388.32379043155606,310.6784955585579,368.54587452093824,329,336.9207692307692C347.3215044414421,305.2956639406002,365.5672721005196,261.82336927088,383.83333333333337,239.72307692307695C402.09939456614717,217.62278457527387,420.38574937269686,216.89449454938807,438.66666666666663,214.22153846153844C456.9475839606364,211.54858237368882,475.22306374202606,206.93096022387536,493.5,216.84384615384613C511.77693625797394,226.7567320838169,530.0553289925316,251.200126093572,548.3333333333334,222.04000000000002C566.6113376741351,192.87987390642803,584.8889536211814,110.1162277095289,603.1666666666666,96.41692307692311C621.4443797121519,82.71761844431732,639.7221898560759,138.08265537600482,658,193.4476923076923L658,249.86230769230767C639.7221898560758,193.01306106676788,621.4443797121518,136.1638144412281,603.1666666666666,151.00076923076924C584.8889536211815,165.83772402031036,566.6113376741354,252.36088022493232,548.3333333333334,283.59153846153845C530.0553289925314,314.8221966981446,511.77693625797383,290.7603569667347,493.5,281.77153846153846C475.22306374202617,272.7827199563422,456.94758396063645,278.8669226773597,438.66666666666663,281.3892307692308C420.3857493726968,283.91153886110186,402.09939456614705,282.87195232382646,383.83333333333337,303.32076923076926C365.5672721005197,323.76958613771205,347.32150444144196,365.7068064888728,329,394.4661538461538C310.67849555855804,423.2255012034348,292.28125433475174,438.8069755668362,274.1666666666667,444.5161538461538C256.05207899858164,450.2253321254715,238.22014488621775,446.06221432070527,219.33333333333331,446.6269230769231C200.44652178044888,447.19163183314095,180.50483278704397,452.4841671503428,164.5,458.46769230769235C148.49516721295603,464.4512174650419,136.42719063227315,471.12573246253936,109.66666666666666,480.15153846153845C82.90614270106018,489.17734446053754,41.45307135053009,500.554441461038,0,511.9315384615385Z"><title>GR4</title></path><path fill="rgb(207, 236, 158)" d="M0,511.9315384615385C41.45307135053008,502.18418845796737,82.90614270106016,492.4368384543963,109.66666666666666,480.15153846153845C136.42719063227315,467.8662384686806,148.4951672129561,453.04298848653616,164.5,458.46769230769235C180.5048327870439,463.89239612884853,200.44652178044893,489.5650537533054,219.33333333333331,489.8707692307692C238.2201448862177,490.17648470823303,256.05207899858164,465.11525803870416,274.1666666666667,444.5161538461538C292.28125433475174,423.9170496536035,310.6784955585579,407.7800679380318,329,394.4661538461538C347.3215044414421,381.15223975427585,365.5672721005196,370.6613932860915,383.83333333333337,365.30307692307696C402.09939456614717,359.94476056006243,420.38574937269686,359.7189743022181,438.66666666666663,344.0607692307692C456.9475839606364,328.4025641593203,475.22306374202606,297.31194027426665,493.5,281.77153846153846C511.77693625797394,266.23113664881026,530.0553289925316,266.2409569084075,548.3333333333334,283.59153846153845C566.6113376741351,300.9421200146694,584.8889536211814,335.63346286133407,603.1666666666666,314.02C621.4443797121519,292.4065371386659,639.7221898560759,214.48826856933297,658,136.57000000000005L658,193.4476923076923C639.7221898560758,269.4359526078797,621.4443797121518,345.4242129080671,603.1666666666666,367.96307692307687C584.8889536211815,390.50194093808665,566.6113376741354,359.59140866791876,548.3333333333334,343.96384615384613C530.0553289925314,328.3362836397735,511.77693625797383,327.9916908817959,493.5,343.61923076923074C475.22306374202617,359.2467706566656,456.94758396063645,390.84644318951285,438.66666666666663,405.52076923076925C420.3857493726968,420.19509527202564,402.09939456614705,417.9440748216914,383.83333333333337,422.08384615384614C365.5672721005197,426.2236174860009,347.32150444144196,436.7541806006446,329,447.3053846153847C310.67849555855804,457.8565886301248,292.28125433475174,468.42843354496125,274.1666666666667,487.02230769230766C256.05207899858164,505.6161818396541,238.22014488621775,532.2320852195107,219.33333333333331,532.5007692307693C200.44652178044888,532.7694532420278,180.50483278704397,506.690917884688,164.5,500.09615384615387C148.49516721295603,493.5013898076197,136.42719063227315,506.3903970878913,109.66666666666666,517.3753846153845C82.90614270106018,528.3603721428777,41.45307135053009,537.4413399175927,0,546.5223076923077Z"><title>GR5</title></path><path fill="rgb(152, 213, 164)" d="M0,546.5223076923077C41.45307135053008,534.1345010967786,82.90614270106016,521.7466945012496,109.66666666666666,517.3753846153845C136.42719063227315,513.0040747295194,148.4951672129561,516.649261553318,164.5,500.09615384615387C180.5048327870439,483.5430461389897,200.44652178044893,446.79164390086277,219.33333333333331,446.6269230769231C238.2201448862177,446.46220225298345,256.05207899858164,482.88416284323125,274.1666666666667,487.02230769230766C292.28125433475174,491.1604525413841,310.6784955585579,463.0147816492895,329,447.3053846153847C347.3215044414421,431.5959875814799,365.5672721005196,428.3228644057646,383.83333333333337,422.08384615384614C402.09939456614717,415.84482790192766,420.38574937269686,406.6399145738059,438.66666666666663,405.52076923076925C456.9475839606364,404.40162388773257,475.22306374202606,411.36824652978083,493.5,403.7169230769231C511.77693625797394,396.0655996240653,530.0553289925316,373.79633007630156,548.3333333333334,343.96384615384613C566.6113376741351,314.1313622313907,584.8889536211814,276.7356639342436,603.1666666666666,259.7915384615385C621.4443797121519,242.84741298883344,639.7221898560759,246.35486034057055,658,249.86230769230767L658,304.79615384615386C639.7221898560758,300.3267245225343,621.4443797121518,295.85729519891476,603.1666666666666,314.02C584.8889536211815,332.1827048010852,566.6113376741354,372.9775437268755,548.3333333333334,403.94307692307694C530.0553289925314,434.90861011927836,511.77693625797383,456.0448375858908,493.5,463.13615384615383C475.22306374202617,470.2274701064169,456.94758396063645,463.2738751603305,438.66666666666663,463.79846153846154C420.3857493726968,464.3230479165926,402.09939456614705,472.32581561894114,383.83333333333337,477.15230769230766C365.5672721005197,481.9787997656742,347.32150444144196,483.62901621005886,329,496.4023076923077C310.67849555855804,509.17559917455657,292.28125433475174,533.0719656946698,274.1666666666667,528.0907692307692C256.05207899858164,523.1095727668686,238.22014488621775,489.2508133189545,219.33333333333331,489.8707692307692C200.44652178044888,490.4907251425839,180.50483278704397,525.5893964141276,164.5,540.54C148.49516721295603,555.4906035858723,136.42719063227315,550.2931394860735,109.66666666666666,553.2315384615385C82.90614270106018,556.1699374370036,41.45307135053009,567.2441994877325,0,578.3184615384615Z"><title>GR6</title></path><path fill="rgb(94, 181, 171)" d="M0,578.3184615384615C41.45307135053008,568.9896585735562,82.90614270106016,559.6608556086506,109.66666666666666,553.2315384615385C136.42719063227315,546.8022213144264,148.4951672129561,543.2723899851076,164.5,540.54C180.5048327870439,537.8076100148924,200.44652178044893,535.8726613739958,219.33333333333331,532.5007692307693C238.2201448862177,529.1288770875427,256.05207899858164,524.3200414419861,274.1666666666667,528.0907692307692C292.28125433475174,531.8614970195523,310.6784955585579,544.2117882426753,329,544.2392307692307C347.3215044414421,544.2666732957862,365.5672721005196,531.971267125774,383.83333333333337,528.2792307692308C402.09939456614717,524.5871944126876,420.38574937269686,529.4985278696131,438.66666666666663,516.4169230769231C456.9475839606364,503.3353182842331,475.22306374202606,472.26077524192755,493.5,463.13615384615383C511.77693625797394,454.0115324503801,530.0553289925316,466.8368327011379,548.3333333333334,463.47C566.6113376741351,460.10316729886216,584.8889536211814,440.54420164582876,603.1666666666666,420.3823076923077C621.4443797121519,400.2204137387866,639.7221898560759,379.45559148477787,658,358.6907692307692L658,412.4723076923077C639.7221898560758,431.80760398602604,621.4443797121518,451.1429002797443,603.1666666666666,471.9076923076923C584.8889536211815,492.67248433564026,566.6113376741354,514.8667720978182,548.3333333333334,518.6138461538462C530.0553289925314,522.3609202098743,511.77693625797383,507.6607805597529,493.5,516.1584615384616C475.22306374202617,524.6561425171702,456.94758396063645,556.3516441247091,438.66666666666663,568.5776923076924C420.3857493726968,580.8037404906756,402.09939456614705,573.5603352491036,383.83333333333337,576.2507692307693C365.5672721005197,578.941203212435,347.32150444144196,591.5654764173386,329,589.8038461538462C310.67849555855804,588.0422158903538,292.28125433475174,571.894682158465,274.1666666666667,566.9623076923077C256.05207899858164,562.0299332261504,238.22014488621775,568.3127180257247,219.33333333333331,571.803076923077C200.44652178044888,575.2934358204293,180.50483278704397,575.9913688155593,164.5,577.5484615384615C148.49516721295603,579.1055542613637,136.42719063227315,581.521806712038,109.66666666666666,586.8369230769231C82.90614270106018,592.1520394418081,41.45307135053009,600.366019720904,0,608.5799999999999Z"><title>GR7</title></path><path fill="rgb(66, 131, 180)" d="M0,608.5799999999999C41.45307135053008,619.1286799956465,82.90614270106016,629.6773599912931,109.66666666666666,619.9038461538461C136.42719063227315,610.1303323163991,148.4951672129561,580.0346246458585,164.5,577.5484615384615C180.5048327870439,575.0622984310646,200.44652178044893,600.185679886811,219.33333333333331,609.3661538461539C238.2201448862177,618.5466278054968,256.05207899858164,611.784194268436,274.1666666666667,605.7853846153846C292.28125433475174,599.7865749623332,310.6784955585579,594.5513891932911,329,589.8038461538462C347.3215044414421,585.0563031144012,365.5672721005196,580.7964028045535,383.83333333333337,576.2507692307693C402.09939456614717,571.705135656985,420.38574937269686,566.8737688192643,438.66666666666663,568.5776923076924C456.9475839606364,570.2816157961204,475.22306374202606,578.5208296106968,493.5,566.8438461538461C511.77693625797394,555.1668626969955,530.0553289925316,523.5736819687179,548.3333333333334,518.6138461538462C566.6113376741351,513.6540103389746,584.8889536211814,535.3275194375093,603.1666666666666,522.0761538461538C621.4443797121519,508.82478825479836,639.7221898560759,460.64854797355304,658,412.4723076923077L658,465.96846153846155C639.7221898560758,512.2518745737896,621.4443797121518,558.5352876091177,603.1666666666666,571.5284615384616C584.8889536211815,584.5216354678054,566.6113376741354,564.2245702911648,548.3333333333334,569.52C530.0553289925314,574.8154297088352,511.77693625797383,605.7033543031455,493.5,616.5815384615385C475.22306374202617,627.4597226199314,456.94758396063645,618.3281663424074,438.66666666666663,616.3823076923077C420.3857493726968,614.436449042208,402.09939456614705,619.676288019533,383.83333333333337,623.7646153846155C365.5672721005197,627.852942749698,347.32150444144196,630.7897585025381,329,633.3384615384615C310.67849555855804,635.8871645743849,292.28125433475174,638.0477548933915,274.1666666666667,642.8584615384616C256.05207899858164,647.6691681835317,238.22014488621775,655.129991154666,219.33333333333331,646.1269230769232C200.44652178044888,637.1238549991804,180.50483278704397,611.6568958725604,164.5,613.2915384615385C148.49516721295603,614.9261810505166,136.42719063227315,643.6624253550926,109.66666666666666,652.2276923076923C82.90614270106018,660.792959260292,41.45307135053009,649.1872488609152,0,637.5815384615385Z"><title>GR8</title></path><path fill="rgb(94, 79, 162)" d="M0,438.3130769230769C41.45307135053008,424.6705247197824,82.90614270106016,411.02797251648775,109.66666666666666,399.77C136.42719063227315,388.5120274835122,148.4951672129561,379.6386346538313,164.5,370.24615384615385C180.5048327870439,360.8536730384764,200.44652178044893,350.9421042528026,219.33333333333331,351.3030769230769C238.2201448862177,351.6640495933512,256.05207899858164,362.29756371957353,274.1666666666667,345.33692307692303C292.28125433475174,328.3762824342725,310.6784955585579,283.8214870227494,329,278.40615384615387C347.3215044414421,272.99082066955833,365.5672721005196,306.71494972789054,383.83333333333337,303.32076923076926C402.09939456614717,299.926588733648,420.38574937269686,259.41409868107314,438.66666666666663,281.3892307692308C456.9475839606364,303.3643628573884,475.22306374202606,387.8271170862786,493.5,343.61923076923074C511.77693625797394,299.4113444521829,530.0553289925316,126.53281758919715,548.3333333333334,97.98923076923076C566.6113376741351,69.44564394926437,584.8889536211814,185.2369971723173,603.1666666666666,205.40153846153848C621.4443797121519,225.56607975075966,639.7221898560759,150.10380910614904,658,74.64153846153843L658,136.57000000000005C639.7221898560758,207.90057667573365,621.4443797121518,279.23115335146724,603.1666666666666,259.7915384615385C584.8889536211815,240.35192357160977,566.6113376741354,130.14211711601882,548.3333333333334,160.02C530.0553289925314,189.8978828839812,511.77693625797383,359.8634551075345,493.5,403.7169230769231C475.22306374202617,447.57039104631167,456.94758396063645,365.3117547615353,438.66666666666663,344.0607692307692C420.3857493726968,322.8097837000031,402.09939456614705,362.56644892324715,383.83333333333337,365.30307692307696C365.5672721005197,368.03970492290676,347.32150444144196,333.7562956993224,329,336.9207692307692C310.67849555855804,340.08524276221607,292.28125433475174,380.69759904869414,274.1666666666667,396.17846153846153C256.05207899858164,411.6593240282289,238.22014488621775,402.00869272128574,219.33333333333331,400.99230769230763C200.44652178044888,399.9759226633295,180.50483278704397,407.5937839123165,164.5,415.2776923076923C148.49516721295603,422.9616007030681,136.42719063227315,430.71155624483265,109.66666666666666,440.7415384615384C82.90614270106018,450.7715206782442,41.45307135053009,463.08152956989136,0,475.39153846153846Z"><title>GR9</title></path><path fill="rgb(205, 55, 75)" d="M0,637.5815384615385C41.45307135053008,611.7726058033583,82.90614270106016,585.9636731451781,109.66666666666666,586.8369230769231C136.42719063227315,587.7101730086681,148.4951672129561,615.2656055303383,164.5,613.2915384615385C180.5048327870439,611.3174713927386,200.44652178044893,579.8139047334686,219.33333333333331,571.803076923077C238.2201448862177,563.7922491126855,256.05207899858164,579.2741601511729,274.1666666666667,566.9623076923077C292.28125433475174,554.6504552334426,310.6784955585579,514.5448392772246,329,496.4023076923077C347.3215044414421,478.2597761073909,365.5672721005196,482.0803288937756,383.83333333333337,477.15230769230766C402.09939456614717,472.22428649083975,420.38574937269686,458.54769130151914,438.66666666666663,463.79846153846154C456.9475839606364,469.04923177540394,475.22306374202606,493.22736743860946,493.5,516.1584615384616C511.77693625797394,539.0895556383136,530.0553289925316,560.7736081748122,548.3333333333334,569.52C566.6113376741351,578.2663918251877,584.8889536211814,574.0751229390646,603.1666666666666,571.5284615384616C621.4443797121519,568.9818001378585,639.7221898560759,568.0797462227754,658,567.1776923076924L658,615.7738461538461C639.7221898560758,617.0741376071721,621.4443797121518,618.3744290604981,603.1666666666666,620.83C584.8889536211815,623.285570939502,566.6113376741354,626.8964213651801,548.3333333333334,618.2884615384615C530.0553289925314,609.680501711743,511.77693625797383,588.8537316326281,493.5,566.8438461538461C475.22306374202617,544.8339606750642,456.94758396063645,521.640959796615,438.66666666666663,516.4169230769231C420.3857493726968,511.19288635723126,402.09939456614705,523.9378137962966,383.83333333333337,528.2792307692308C365.5672721005197,532.620647742165,347.32150444144196,528.5585542489682,329,544.2392307692307C310.67849555855804,559.9199072894933,292.28125433475174,595.3433538232152,274.1666666666667,605.7853846153846C256.05207899858164,616.227415407554,238.22014488621775,601.6880304581706,219.33333333333331,609.3661538461539C200.44652178044888,617.0442772341372,180.50483278704397,646.9399089594867,164.5,648.1407692307693C148.49516721295603,649.3416295020518,136.42719063227315,621.8477183192675,109.66666666666666,619.9038461538461C82.90614270106018,617.9599739884246,41.45307135053009,641.5661408403662,0,665.1723076923076Z"><title>GR10</title></path><path fill="rgb(236, 102, 73)" d="M0,665.1723076923076C41.45307135053008,657.1538001613782,82.90614270106016,649.1352926304487,109.66666666666666,652.2276923076923C136.42719063227315,655.320091984936,148.4951672129561,669.5233988703527,164.5,674.7515384615385C180.5048327870439,679.9796780527244,200.44652178044893,676.2326503496793,219.33333333333331,673.8253846153846C238.2201448862177,671.4181188810899,256.05207899858164,670.3506151155458,274.1666666666667,672.2746153846153C292.28125433475174,674.1986156536849,310.6784955585579,679.1141199573685,329,666.863076923077C347.3215044414421,654.6120338887854,365.5672721005196,625.1944435165191,383.83333333333337,623.7646153846155C402.09939456614717,622.3347872527119,420.38574937269686,648.8927213611709,438.66666666666663,658.7323076923077C456.9475839606364,668.5718940234445,475.22306374202606,661.6931325772596,493.5,659.3623076923077C511.77693625797394,657.0314828073558,530.0553289925316,659.2485944836371,548.3333333333334,660.5092307692307C566.6113376741351,661.7698670548243,584.8889536211814,662.0740279497301,603.1666666666666,661.4838461538461C621.4443797121519,660.8936643579622,639.7221898560759,659.4091398712887,658,657.9246153846154L658,700C639.7221898560758,699.8978403105043,621.4443797121518,699.7956806210086,603.1666666666666,700C584.8889536211815,700.2043193789914,566.6113376741354,700.7151178264697,548.3333333333334,700C530.0553289925314,699.2848821735303,511.77693625797383,697.3438480731126,493.5,700C475.22306374202617,702.6561519268874,456.94758396063645,709.9094898810805,438.66666666666663,700C420.3857493726968,690.0905101189195,402.09939456614705,663.0181924025659,383.83333333333337,662.9915384615384C365.5672721005197,662.964884520511,347.32150444144196,689.9838943548099,329,700C310.67849555855804,710.0161056451901,292.28125433475174,703.0293071012718,274.1666666666667,700C256.05207899858164,696.9706928987282,238.22014488621775,697.8988772401032,219.33333333333331,700C200.44652178044888,702.1011227598968,180.50483278704397,705.3751839383156,164.5,700C148.49516721295603,694.6248160616844,136.42719063227315,680.6003870066352,109.66666666666666,676.3992307692308C82.90614270106018,672.1980745318265,41.45307135053009,677.820191112067,0,683.4423076923077Z"><title>GR11</title></path><path fill="rgb(250, 155, 90)" d="M0,683.4423076923077C41.45307135053008,683.5859096184938,82.90614270106016,683.7295115446799,109.66666666666666,676.3992307692308C136.42719063227315,669.0689499937818,148.4951672129561,654.2647865166977,164.5,648.1407692307693C180.5048327870439,642.0167519448408,200.44652178044893,644.5728808500676,219.33333333333331,646.1269230769232C238.2201448862177,647.6809653037787,256.05207899858164,648.2329208522633,274.1666666666667,642.8584615384616C292.28125433475174,637.4840022246599,310.6784955585579,626.183128048572,329,633.3384615384615C347.3215044414421,640.493795028351,365.5672721005196,666.1053361842179,383.83333333333337,662.9915384615384C402.09939456614717,659.877740738859,420.38574937269686,628.0386041376331,438.66666666666663,616.3823076923077C456.9475839606364,604.7260112469822,475.22306374202606,613.2525549575575,493.5,616.5815384615385C511.77693625797394,619.9105219655194,530.0553289925316,618.041945262906,548.3333333333334,618.2884615384615C566.6113376741351,618.5349778140171,584.8889536211814,620.8965870677413,603.1666666666666,620.83C621.4443797121519,620.7634129322588,639.7221898560759,618.2686295430524,658,615.7738461538461L658,657.9246153846154C639.7221898560758,659.6195865972097,621.4443797121518,661.3145578098041,603.1666666666666,661.4838461538461C584.8889536211815,661.6531344978881,566.6113376741354,660.2967399733774,548.3333333333334,660.5092307692307C530.0553289925314,660.7217215650841,511.77693625797383,662.5030976813019,493.5,659.3623076923077C475.22306374202617,656.2215177033135,456.94758396063645,648.1585616091071,438.66666666666663,658.7323076923077C420.3857493726968,669.3060537755083,402.09939456614705,698.516502036116,383.83333333333337,700C365.5672721005197,701.483497963884,347.32150444144196,675.2400456310447,329,666.863076923077C310.67849555855804,658.4861082151092,292.28125433475174,667.9756231320129,274.1666666666667,672.2746153846153C256.05207899858164,676.5736076372178,238.22014488621775,675.682077225519,219.33333333333331,673.8253846153846C200.44652178044888,671.9686920052501,180.50483278704397,669.1468371966798,164.5,674.7515384615385C148.49516721295603,680.3562397263972,136.42719063227315,694.3874970646849,109.66666666666666,700C82.90614270106018,705.6125029353151,41.45307135053009,702.8062514676576,0,700Z"><title>GR12</title></path></g><g id="xAxis" transform="translate(0,700)" fill="none" font-size="10" font-family="sans-serif" text-anchor="middle"><path class="domain" stroke="currentColor" d="M0.5,0.5H658.5"/><g class="tick" opacity="1" transform="translate(0.5,0)"><line stroke="currentColor" y2="6"/><text fill="currentColor" y="9" dy="0.71em">2,009</text></g><g class="tick" opacity="1" transform="translate(55.33333333333333,0)"><line stroke="currentColor" y2="6"/><text fill="currentColor" y="9" dy="0.71em">2,010</text></g><g class="tick" opacity="1" transform="translate(110.16666666666666,0)"><line stroke="currentColor" y2="6"/><text fill="currentColor" y="9" dy="0.71em">2,011</text></g><g class="tick" opacity="1" transform="translate(165,0)"><line stroke="currentColor" y2="6"/><text fill="currentColor" y="9" dy="0.71em">2,012</text></g><g class="tick" opacity="1" transform="translate(219.83333333333331,0)"><line stroke="currentColor" y2="6"/><text fill="currentColor" y="9" dy="0.71em">2,013</text></g><g class="tick" opacity="1" transform="translate(274.6666666666667,0)"><line stroke="currentColor" y2="6"/><text fill="currentColor" y="9" dy="0.71em">2,014</text></g><g class="tick" opacity="1" transform="translate(329.5,0)"><line stroke="currentColor" y2="6"/><text fill="currentColor" y="9" dy="0.71em">2,015</text></g><g class="tick" opacity="1" transform="translate(384.33333333333337,0)"><line stroke="currentColor" y2="6"/><text fill="currentColor" y="9" dy="0.71em">2,016</text></g><g class="tick" opacity="1" transform="translate(439.16666666666663,0)"><line stroke="currentColor" y2="6"/><text fill="currentColor" y="9" dy="0.71em">2,017</text></g><g class="tick" opacity="1" transform="translate(494,0)"><line stroke="currentColor" y2="6"/><text fill="currentColor" y="9" dy="0.71em">2,018</text></g><g class="tick" opacity="1" transform="translate(548.8333333333334,0)"><line stroke="currentColor" y2="6"/><text fill="currentColor" y="9" dy="0.71em">2,019</text></g><g class="tick" opacity="1" transform="translate(603.6666666666666,0)"><line stroke="currentColor" y2="6"/><text fill="currentColor" y="9" dy="0.71em">2,020</text></g><g class="tick" opacity="1" transform="translate(658.5,0)"><line stroke="currentColor" y2="6"/><text fill="currentColor" y="9" dy="0.71em">2,021</text></g></g><g id="yAxis" fill="none" font-size="10" font-family="sans-serif" text-anchor="end"><path class="domain" stroke="currentColor" d="M0.5,700.5V0.5"/><g class="tick" opacity="1" transform="translate(0,700.5)"><line stroke="currentColor" x2="-6"/><text fill="currentColor" x="-9" dy="0.32em">0</text></g><g class="tick" opacity="1" transform="translate(0,646.6538461538462)"><line stroke="currentColor" x2="-6"/><text fill="currentColor" x="-9" dy="0.32em">10,000</text></g><g class="tick" opacity="1" transform="translate(0,592.8076923076923)"><line stroke="currentColor" x2="-6"/><text fill="currentColor" x="-9" dy="0.32em">20,000</text></g><g class="tick" opacity="1" transform="translate(0,538.9615384615385)"><line stroke="currentColor" x2="-6"/><text fill="currentColor" x="-9" dy="0.32em">30,000</text></g><g class="tick" opacity="1" transform="translate(0,485.1153846153846)"><line stroke="currentColor" x2="-6"/><text fill="currentColor" x="-9" dy="0.32em">40,000</text></g><g class="tick" opacity="1" transform="translate(0,431.2692307692308)"><line stroke="currentColor" x2="-6"/><text fill="currentColor" x="-9" dy="0.32em">50,000</text></g><g class="tick" opacity="1" transform="translate(0,377.4230769230769)"><line stroke="currentColor" x2="-6"/><text fill="currentColor" x="-9" dy="0.32em">60,000</text></g><g class="tick" opacity="1" transform="translate(0,323.5769230769231)"><line stroke="currentColor" x2="-6"/><text fill="currentColor" x="-9" dy="0.32em">70,000</text></g><g class="tick" opacity="1" transform="translate(0,269.7307692307692)"><line stroke="currentColor" x2="-6"/><text fill="currentColor" x="-9" dy="0.32em">80,000</text></g><g class="tick" opacity="1" transform="translate(0,215.8846153846154)"><line stroke="currentColor" x2="-6"/><text fill="currentColor" x="-9" dy="0.32em">90,000</text></g><g class="tick" opacity="1" transform="translate(0,162.03846153846152)"><line stroke="currentColor" x2="-6"/><text fill="currentColor" x="-9" dy="0.32em">100,000</text></g><g class="tick" opacity="1" transform="translate(0,108.1923076923077)"><line stroke="currentColor" x2="-6"/><text fill="currentColor" x="-9" dy="0.32em">110,000</text></g><g class="tick" opacity="1" transform="translate(0,54.34615384615381)"><line stroke="currentColor" x2="-6"/><text fill="currentColor" x="-9" dy="0.32em">120,000</text></g><g class="tick" opacity="1" transform="translate(0,0.5)"><line stroke="currentColor" x2="-6"/><text fill="currentColor" x="-9" dy="0.32em">130,000</text></g></g><text y="696" x="658" text-anchor="end" style="font-family: Arial, sans-serif; font-size: 12px; fill: rgb(123, 123, 123); font-weight: bold;">Year</text><text x="4" text-anchor="start" dominant-baseline="hanging" style="font-family: Arial, sans-serif; font-size: 12px; fill: rgb(123, 123, 123); font-weight: bold;">Grades</text><g id="labels"><text x="383.83333333333337" y="63.37961538461535" text-anchor="middle" alignment-baseline="middle" style="font-family: Arial, sans-serif; font-size: 10px; fill: black; font-weight: bold;">GR1</text><text x="438.66666666666663" y="37.48499999999999" text-anchor="middle" alignment-baseline="middle" style="font-family: Arial, sans-serif; font-size: 10px; fill: black; font-weight: bold;">GR2</text><text x="438.66666666666663" y="179.36423076923074" text-anchor="middle" alignment-baseline="middle" style="font-family: Arial, sans-serif; font-size: 10px; fill: black; font-weight: bold;">GR3</text><text x="438.66666666666663" y="247.80538461538464" text-anchor="middle" alignment-baseline="middle" style="font-family: Arial, sans-serif; font-size: 10px; fill: black; font-weight: bold;">GR4</text><text x="493.5" y="312.6953846153846" text-anchor="middle" alignment-baseline="middle" style="font-family: Arial, sans-serif; font-size: 10px; fill: black; font-weight: bold;">GR5</text><text x="548.3333333333334" y="373.95346153846157" text-anchor="middle" alignment-baseline="middle" style="font-family: Arial, sans-serif; font-size: 10px; fill: black; font-weight: bold;">GR6</text><text x="548.3333333333334" y="491.04192307692307" text-anchor="middle" alignment-baseline="middle" style="font-family: Arial, sans-serif; font-size: 10px; fill: black; font-weight: bold;">GR7</text><text x="658" y="439.2203846153846" text-anchor="end" alignment-baseline="middle" style="font-family: Arial, sans-serif; font-size: 10px; fill: black; font-weight: bold;">GR8</text><text x="438.66666666666663" y="312.72499999999997" text-anchor="middle" alignment-baseline="middle" style="font-family: Arial, sans-serif; font-size: 10px; fill: black; font-weight: bold;">GR9</text><text x="438.66666666666663" y="490.1076923076923" text-anchor="middle" alignment-baseline="middle" style="font-family: Arial, sans-serif; font-size: 10px; fill: black; font-weight: bold;">GR10</text><text x="658" y="678.9623076923076" text-anchor="end" alignment-baseline="middle" style="font-family: Arial, sans-serif; font-size: 10px; fill: black; font-weight: bold;">GR11</text><text x="493.5" y="637.9719230769231" text-anchor="middle" alignment-baseline="middle" style="font-family: Arial, sans-serif; font-size: 10px; fill: black; font-weight: bold;">GR12</text></g></g><text x="4" y="4" style="font-family: Arial, sans-serif; font-size: 12px; fill: black; font-weight: bold; dominant-baseline: hanging;"/></g></g><g id="legend" transform="translate(800,50)"><g transform="translate(5,0)"><g class="legendColor" transform="translate(0,0)"><g class="legendCells" transform="translate(0,16)"><g class="cell" transform="translate(0, 0)"><rect class="swatch" height="15" width="15" style="fill: rgb(158, 1, 66);"/><text class="label" transform="translate( 20, 12.5)" font-family="&quot;Arial&quot;, sans-serif" font-size="10px"><tspan x="0" dy="0em">GR1</tspan></text></g><g class="cell" transform="translate(0, 21)"><rect class="swatch" height="15" width="15" style="fill: rgb(205, 55, 75);"/><text class="label" transform="translate( 20, 12.5)" font-family="&quot;Arial&quot;, sans-serif" font-size="10px"><tspan x="0" dy="0em">GR10</tspan></text></g><g class="cell" transform="translate(0, 42)"><rect class="swatch" height="15" width="15" style="fill: rgb(236, 102, 73);"/><text class="label" transform="translate( 20, 12.5)" font-family="&quot;Arial&quot;, sans-serif" font-size="10px"><tspan x="0" dy="0em">GR11</tspan></text></g><g class="cell" transform="translate(0, 63)"><rect class="swatch" height="15" width="15" style="fill: rgb(250, 155, 90);"/><text class="label" transform="translate( 20, 12.5)" font-family="&quot;Arial&quot;, sans-serif" font-size="10px"><tspan x="0" dy="0em">GR12</tspan></text></g><g class="cell" transform="translate(0, 84)"><rect class="swatch" height="15" width="15" style="fill: rgb(254, 205, 124);"/><text class="label" transform="translate( 20, 12.5)" font-family="&quot;Arial&quot;, sans-serif" font-size="10px"><tspan x="0" dy="0em">GR2</tspan></text></g><g class="cell" transform="translate(0, 105)"><rect class="swatch" height="15" width="15" style="fill: rgb(254, 240, 165);"/><text class="label" transform="translate( 20, 12.5)" font-family="&quot;Arial&quot;, sans-serif" font-size="10px"><tspan x="0" dy="0em">GR3</tspan></text></g><g class="cell" transform="translate(0, 126)"><rect class="swatch" height="15" width="15" style="fill: rgb(242, 249, 172);"/><text class="label" transform="translate( 20, 12.5)" font-family="&quot;Arial&quot;, sans-serif" font-size="10px"><tspan x="0" dy="0em">GR4</tspan></text></g><g class="cell" transform="translate(0, 147)"><rect class="swatch" height="15" width="15" style="fill: rgb(207, 236, 158);"/><text class="label" transform="translate( 20, 12.5)" font-family="&quot;Arial&quot;, sans-serif" font-size="10px"><tspan x="0" dy="0em">GR5</tspan></text></g><g class="cell" transform="translate(0, 168)"><rect class="swatch" height="15" width="15" style="fill: rgb(152, 213, 164);"/><text class="label" transform="translate( 20, 12.5)" font-family="&quot;Arial&quot;, sans-serif" font-size="10px"><tspan x="0" dy="0em">GR6</tspan></text></g><g class="cell" transform="translate(0, 189)"><rect class="swatch" height="15" width="15" style="fill: rgb(94, 181, 171);"/><text class="label" transform="translate( 20, 12.5)" font-family="&quot;Arial&quot;, sans-serif" font-size="10px"><tspan x="0" dy="0em">GR7</tspan></text></g><g class="cell" transform="translate(0, 210)"><rect class="swatch" height="15" width="15" style="fill: rgb(66, 131, 180);"/><text class="label" transform="translate( 20, 12.5)" font-family="&quot;Arial&quot;, sans-serif" font-size="10px"><tspan x="0" dy="0em">GR8</tspan></text></g><g class="cell" transform="translate(0, 231)"><rect class="swatch" height="15" width="15" style="fill: rgb(94, 79, 162);"/><text class="label" transform="translate( 20, 12.5)" font-family="&quot;Arial&quot;, sans-serif" font-size="10px"><tspan x="0" dy="0em">GR9</tspan></text></g></g><text class="legendTitle" font-family="&quot;Arial&quot;, sans-serif" font-size="12px" font-weight="bold"><tspan x="0" dy="0em">Colors</tspan></text></g></g></g></svg>