<svg xmlns="http://www.w3.org/2000/svg" width="1005" height="600"><rect width="1005" height="600" x="0" y="0" fill="#FFFFFF" id="backgorund"/><g id="viz"><g transform="translate(0,0)"><g transform="translate(80,80)"><g><path fill="#1f77b4" d="M0,307.681L17.916666666666668,309.4907619047619C35.833333333333336,311.3005238095238,71.66666666666667,314.92004761904764,98.54166666666667,318.3125C125.41666666666667,321.70495238095236,143.33333333333334,324.87033333333335,161.25,327.4477380952381C179.16666666666666,330.02514285714284,197.08333333333334,332.0145714285714,215,333.5571904761905C232.91666666666666,335.09980952380954,250.83333333333334,336.19561904761906,268.75,340.72159523809523C286.6666666666667,345.24757142857146,304.5833333333333,353.20371428571434,322.5,359.30661904761905C340.4166666666667,365.4095238095238,358.3333333333333,369.65919047619053,376.25,373.16819047619043C394.1666666666667,376.67719047619045,412.0833333333333,379.4455238095238,430,380.53950000000003C447.9166666666667,381.6334761904762,465.8333333333333,381.0530952380952,483.75,380.5287619047619C501.6666666666667,380.0044285714285,519.5833333333334,379.5361428571428,537.5,377.2683095238095C555.4166666666666,375.00047619047615,573.3333333333334,370.9330952380953,591.25,370.1067857142857C609.1666666666666,369.28047619047624,627.0833333333334,371.69523809523804,636.0416666666666,372.90261904761905L645,374.10999999999996L645,402.50257142857146L636.0416666666666,401.44342857142857C627.0833333333334,400.3842857142857,609.1666666666666,398.266,591.25,400.15092857142855C573.3333333333334,402.0358571428571,555.4166666666666,407.924,537.5,411.7569761904762C519.5833333333334,415.58995238095235,501.6666666666667,417.3677619047619,483.75,419.0308571428572C465.8333333333333,420.6939523809524,447.9166666666667,422.2423333333333,430,421.7874047619048C412.0833333333333,421.3324761904762,394.1666666666667,418.87423809523807,376.25,415.43699999999995C358.3333333333333,411.9997619047619,340.4166666666667,407.5835238095238,322.5,400.6582380952381C304.5833333333333,393.7329523809524,286.6666666666667,384.298619047619,268.75,379.15926190476193C250.83333333333334,374.0199047619047,232.91666666666666,373.1755238095238,215,371.00223809523806C197.08333333333334,368.82895238095233,179.16666666666666,365.3267619047619,161.25,361.12345238095236C143.33333333333334,356.9201428571428,125.41666666666667,352.01571428571424,98.54166666666667,347.70345238095234C71.66666666666667,343.3911904761905,35.833333333333336,339.67109523809523,17.916666666666668,337.81104761904766L0,335.951Z"><title>GR1</title></path><path fill="#9467bd" d="M0,280.37585714285717L17.916666666666668,282.4459523809524C35.833333333333336,284.51604761904764,71.66666666666667,288.6562380952381,98.54166666666667,291.5306428571428C125.41666666666667,294.4050476190476,143.33333333333334,296.01366666666667,161.25,297.42245238095234C179.16666666666666,298.83123809523806,197.08333333333334,300.04019047619045,215,300.8840476190476C232.91666666666666,301.72790476190477,250.83333333333334,302.20666666666665,268.75,305.3482142857143C286.6666666666667,308.4897619047619,304.5833333333333,314.2940952380952,322.5,319.24461904761904C340.4166666666667,324.19514285714286,358.3333333333333,328.29185714285717,376.25,331.68142857142857C394.1666666666667,335.07099999999997,412.0833333333333,337.7534285714285,430,339.27849999999995C447.9166666666667,340.8035714285714,465.8333333333333,341.1712857142857,483.75,341.5767142857142C501.6666666666667,341.98214285714283,519.5833333333334,342.42528571428574,537.5,341.547119047619C555.4166666666666,340.66895238095236,573.3333333333334,338.4694761904762,591.25,338.56297619047615C609.1666666666666,338.6564761904762,627.0833333333334,341.0429523809524,636.0416666666666,342.2361904761904L645,343.42942857142856L645,374.10999999999996L636.0416666666666,372.902619047619C627.0833333333334,371.69523809523804,609.1666666666666,369.28047619047624,591.25,370.1067857142857C573.3333333333334,370.9330952380953,555.4166666666666,375.00047619047615,537.5,377.2683095238095C519.5833333333334,379.5361428571428,501.6666666666667,380.0044285714285,483.75,380.5287619047619C465.8333333333333,381.0530952380952,447.9166666666667,381.6334761904762,430,380.5394999999999C412.0833333333333,379.4455238095238,394.1666666666667,376.67719047619045,376.25,373.16819047619043C358.3333333333333,369.65919047619053,340.4166666666667,365.4095238095238,322.5,359.30661904761905C304.5833333333333,353.20371428571434,286.6666666666667,345.24757142857146,268.75,340.72159523809523C250.83333333333334,336.19561904761906,232.91666666666666,335.09980952380954,215,333.5571904761905C197.08333333333334,332.0145714285714,179.16666666666666,330.02514285714284,161.25,327.4477380952381C143.33333333333334,324.87033333333335,125.41666666666667,321.70495238095236,98.54166666666667,318.3125C71.66666666666667,314.92004761904764,35.833333333333336,311.3005238095238,17.916666666666668,309.4907619047619L0,307.681Z"><title>GR2</title></path><path fill="#8c564b" d="M0,256.7887142857143L17.916666666666668,258.6780952380953C35.833333333333336,260.5674761904762,71.66666666666667,264.3462380952381,98.54166666666667,266.6554523809524C125.41666666666667,268.9646666666667,143.33333333333334,269.8043333333333,161.25,270.31583333333333C179.16666666666666,270.82733333333334,197.08333333333334,271.0106666666666,215,271.2605238095238C232.91666666666666,271.51038095238096,250.83333333333334,271.8267619047619,268.75,273.7787380952381C286.6666666666667,275.7307142857143,304.5833333333333,279.31828571428576,322.5,282.66700000000003C340.4166666666667,286.0157142857143,358.3333333333333,289.12557142857145,376.25,291.9321428571429C394.1666666666667,294.7387142857143,412.0833333333333,297.242,430,299.01273809523815C447.9166666666667,300.7834761904762,465.8333333333333,301.82166666666666,483.75,302.9677619047619C501.6666666666667,304.11385714285717,519.5833333333334,305.3678571428572,537.5,305.6441666666667C555.4166666666666,305.9204761904762,573.3333333333334,305.21909523809524,591.25,306.11088095238097C609.1666666666666,307.0026666666667,627.0833333333334,309.48761904761903,636.0416666666666,310.7300952380952L645,311.9725714285714L645,343.42942857142856L636.0416666666666,342.2361904761904C627.0833333333334,341.0429523809524,609.1666666666666,338.6564761904762,591.25,338.56297619047615C573.3333333333334,338.4694761904762,555.4166666666666,340.66895238095236,537.5,341.547119047619C519.5833333333334,342.42528571428574,501.6666666666667,341.98214285714283,483.75,341.5767142857142C465.8333333333333,341.1712857142857,447.9166666666667,340.8035714285714,430,339.27849999999995C412.0833333333333,337.7534285714285,394.1666666666667,335.07099999999997,376.25,331.68142857142857C358.3333333333333,328.29185714285717,340.4166666666667,324.19514285714286,322.5,319.244619047619C304.5833333333333,314.2940952380952,286.6666666666667,308.4897619047619,268.75,305.3482142857143C250.83333333333334,302.20666666666665,232.91666666666666,301.72790476190477,215,300.8840476190476C197.08333333333334,300.04019047619045,179.16666666666666,298.83123809523806,161.25,297.4224523809524C143.33333333333334,296.01366666666667,125.41666666666667,294.4050476190476,98.54166666666667,291.5306428571428C71.66666666666667,288.6562380952381,35.833333333333336,284.51604761904764,17.916666666666668,282.4459523809524L0,280.37585714285717Z"><title>GR3</title></path><path fill="#e377c2" d="M0,235.4612857142857L17.916666666666668,237.0714761904762C35.833333333333336,238.6816666666667,71.66666666666667,241.90204761904764,98.54166666666667,243.56435714285715C125.41666666666667,245.2266666666667,143.33333333333334,245.33090476190478,161.25,245.23688095238094C179.16666666666666,245.1428571428571,197.08333333333334,244.85057142857144,215,244.59966666666665C232.91666666666666,244.3487619047619,250.83333333333334,244.13923809523808,268.75,244.9325476190476C286.6666666666667,245.7258571428571,304.5833333333333,247.52200000000002,322.5,249.3862380952381C340.4166666666667,251.25047619047618,358.3333333333333,253.1828095238095,376.25,255.0533333333333C394.1666666666667,256.9238571428571,412.0833333333333,258.7325714285714,430,260.3739285714286C447.9166666666667,262.0152857142857,465.8333333333333,263.4892857142857,483.75,265.1817142857143C501.6666666666667,266.8741428571429,519.5833333333334,268.785,537.5,270.0675476190476C555.4166666666666,271.35009523809526,573.3333333333334,272.0043333333333,591.25,273.3958333333333C609.1666666666666,274.7873333333333,627.0833333333334,276.91609523809524,636.0416666666666,277.98047619047617L645,279.04485714285715L645,311.9725714285714L636.0416666666666,310.7300952380952C627.0833333333334,309.48761904761903,609.1666666666666,307.0026666666667,591.25,306.11088095238097C573.3333333333334,305.21909523809524,555.4166666666666,305.9204761904762,537.5,305.64416666666665C519.5833333333334,305.3678571428572,501.6666666666667,304.11385714285717,483.75,302.9677619047619C465.8333333333333,301.82166666666666,447.9166666666667,300.7834761904762,430,299.01273809523815C412.0833333333333,297.242,394.1666666666667,294.7387142857143,376.25,291.9321428571429C358.3333333333333,289.12557142857145,340.4166666666667,286.0157142857143,322.5,282.66700000000003C304.5833333333333,279.31828571428576,286.6666666666667,275.7307142857143,268.75,273.7787380952381C250.83333333333334,271.8267619047619,232.91666666666666,271.51038095238096,215,271.2605238095238C197.08333333333334,271.0106666666666,179.16666666666666,270.82733333333334,161.25,270.31583333333333C143.33333333333334,269.8043333333333,125.41666666666667,268.9646666666667,98.54166666666667,266.6554523809524C71.66666666666667,264.3462380952381,35.833333333333336,260.5674761904762,17.916666666666668,258.6780952380953L0,256.7887142857143Z"><title>GR4</title></path><path fill="#7f7f7f" d="M0,215.2715714285714L17.916666666666668,216.625619047619C35.833333333333336,217.97966666666665,71.66666666666667,220.6877619047619,98.54166666666667,221.6654523809524C125.41666666666667,222.64314285714283,143.33333333333334,221.89042857142854,161.25,221.2705C179.16666666666666,220.65057142857142,197.08333333333334,220.16342857142857,215,219.82714285714283C232.91666666666666,219.49085714285715,250.83333333333334,219.3054285714286,268.75,219.10559523809525C286.6666666666667,218.9057619047619,304.5833333333333,218.69152380952383,322.5,219.16714285714286C340.4166666666667,219.6427619047619,358.3333333333333,220.80823809523807,376.25,221.84014285714284C394.1666666666667,222.8720476190476,412.0833333333333,223.77038095238095,430,224.91883333333337C447.9166666666667,226.06728571428573,465.8333333333333,227.46585714285712,483.75,229.26409523809522C501.6666666666667,231.06233333333333,519.5833333333334,233.26023809523812,537.5,235.3117380952381C555.4166666666666,237.3632380952381,573.3333333333334,239.26833333333335,591.25,240.99978571428574C609.1666666666666,242.73123809523813,627.0833333333334,244.28904761904766,636.0416666666666,245.06795238095242L645,245.84685714285717L645,279.04485714285715L636.0416666666666,277.98047619047617C627.0833333333334,276.91609523809524,609.1666666666666,274.7873333333333,591.25,273.3958333333333C573.3333333333334,272.0043333333333,555.4166666666666,271.35009523809526,537.5,270.0675476190476C519.5833333333334,268.785,501.6666666666667,266.8741428571429,483.75,265.1817142857143C465.8333333333333,263.4892857142857,447.9166666666667,262.0152857142857,430,260.3739285714286C412.0833333333333,258.7325714285714,394.1666666666667,256.9238571428571,376.25,255.0533333333333C358.3333333333333,253.1828095238095,340.4166666666667,251.25047619047618,322.5,249.3862380952381C304.5833333333333,247.52200000000002,286.6666666666667,245.7258571428571,268.75,244.9325476190476C250.83333333333334,244.13923809523808,232.91666666666666,244.3487619047619,215,244.59966666666665C197.08333333333334,244.85057142857144,179.16666666666666,245.1428571428571,161.25,245.23688095238094C143.33333333333334,245.33090476190478,125.41666666666667,245.2266666666667,98.54166666666667,243.56435714285715C71.66666666666667,241.90204761904764,35.833333333333336,238.6816666666667,17.916666666666668,237.07147619047615L0,235.4612857142857Z"><title>GR5</title></path><path fill="#bcbd22" d="M0,196.713L17.916666666666668,197.67209523809524C35.833333333333336,198.63119047619045,71.66666666666667,200.54938095238094,98.54166666666667,200.6858333333333C125.41666666666667,200.82228571428573,143.33333333333334,199.17700000000002,161.25,197.8384047619048C179.16666666666666,196.49980952380952,197.08333333333334,195.46790476190475,215,195.07085714285714C232.91666666666666,194.6738095238095,250.83333333333334,194.91161904761907,268.75,194.14240476190477C286.6666666666667,193.3731904761905,304.5833333333333,191.59695238095242,322.5,190.7106666666667C340.4166666666667,189.82438095238095,358.3333333333333,189.82804761904762,376.25,189.96685714285715C394.1666666666667,190.10566666666668,412.0833333333333,190.37961904761906,430,191.10483333333332C447.9166666666667,191.83004761904763,465.8333333333333,193.00652380952383,483.75,194.63923809523808C501.6666666666667,196.27195238095237,519.5833333333334,198.36090476190475,537.5,200.91735714285713C555.4166666666666,203.47380952380954,573.3333333333334,206.49776190476192,591.25,208.72002380952384C609.1666666666666,210.94228571428573,627.0833333333334,212.36285714285717,636.0416666666666,213.0731428571429L645,213.7834285714286L645,245.84685714285717L636.0416666666666,245.0679523809524C627.0833333333334,244.28904761904766,609.1666666666666,242.73123809523813,591.25,240.99978571428574C573.3333333333334,239.26833333333335,555.4166666666666,237.3632380952381,537.5,235.3117380952381C519.5833333333334,233.26023809523812,501.6666666666667,231.06233333333333,483.75,229.26409523809522C465.8333333333333,227.46585714285712,447.9166666666667,226.06728571428573,430,224.91883333333337C412.0833333333333,223.77038095238095,394.1666666666667,222.8720476190476,376.25,221.84014285714284C358.3333333333333,220.80823809523807,340.4166666666667,219.6427619047619,322.5,219.16714285714284C304.5833333333333,218.69152380952383,286.6666666666667,218.9057619047619,268.75,219.10559523809525C250.83333333333334,219.3054285714286,232.91666666666666,219.49085714285715,215,219.8271428571429C197.08333333333334,220.16342857142857,179.16666666666666,220.65057142857142,161.25,221.27049999999997C143.33333333333334,221.89042857142854,125.41666666666667,222.64314285714283,98.54166666666667,221.66545238095236C71.66666666666667,220.6877619047619,35.833333333333336,217.97966666666665,17.916666666666668,216.625619047619L0,215.2715714285714Z"><title>GR6</title></path><path fill="#17becf" d="M0,179.05014285714284L17.916666666666668,179.68395238095238C35.833333333333336,180.3177619047619,71.66666666666667,181.58538095238097,98.54166666666667,181.06550000000001C125.41666666666667,180.54561904761906,143.33333333333334,178.2382380952381,161.25,176.34545238095237C179.16666666666666,174.45266666666666,197.08333333333334,172.97447619047617,215,172.39619047619047C232.91666666666666,171.81790476190477,250.83333333333334,172.1395238095238,268.75,170.76111904761908C286.6666666666667,169.38271428571431,304.5833333333333,166.30428571428573,322.5,164.5327619047619C340.4166666666667,162.7612380952381,358.3333333333333,162.29661904761906,376.25,161.7937619047619C394.1666666666667,161.29090476190476,412.0833333333333,160.74980952380952,430,160.98369047619047C447.9166666666667,161.21757142857143,465.8333333333333,162.22642857142856,483.75,163.5689523809524C501.6666666666667,164.91147619047618,519.5833333333334,166.58766666666668,537.5,169.2897380952381C555.4166666666666,171.9918095238095,573.3333333333334,175.7197619047619,591.25,178.07454761904762C609.1666666666666,180.42933333333335,627.0833333333334,181.41095238095238,636.0416666666666,181.9017619047619L645,182.39257142857144L645,213.7834285714286L636.0416666666666,213.0731428571429C627.0833333333334,212.36285714285717,609.1666666666666,210.94228571428573,591.25,208.7200238095238C573.3333333333334,206.49776190476192,555.4166666666666,203.47380952380954,537.5,200.91735714285718C519.5833333333334,198.36090476190475,501.6666666666667,196.27195238095237,483.75,194.63923809523808C465.8333333333333,193.00652380952383,447.9166666666667,191.83004761904763,430,191.10483333333332C412.0833333333333,190.37961904761906,394.1666666666667,190.10566666666668,376.25,189.96685714285715C358.3333333333333,189.82804761904762,340.4166666666667,189.82438095238095,322.5,190.7106666666667C304.5833333333333,191.59695238095242,286.6666666666667,193.3731904761905,268.75,194.14240476190477C250.83333333333334,194.91161904761907,232.91666666666666,194.6738095238095,215,195.07085714285714C197.08333333333334,195.46790476190475,179.16666666666666,196.49980952380952,161.25,197.83840476190474C143.33333333333334,199.17700000000002,125.41666666666667,200.82228571428573,98.54166666666667,200.68583333333333C71.66666666666667,200.54938095238094,35.833333333333336,198.63119047619045,17.916666666666668,197.67209523809524L0,196.713Z"><title>GR7</title></path><path fill="#cccccc" d="M0,162.12271428571427L17.916666666666668,162.4333333333333C35.833333333333336,162.74395238095238,71.66666666666667,163.36519047619046,98.54166666666667,162.18949999999998C125.41666666666667,161.01380952380953,143.33333333333334,158.04119047619048,161.25,155.71678571428572C179.16666666666666,153.39238095238093,197.08333333333334,151.71619047619046,215,151.0085238095238C232.91666666666666,150.30085714285713,250.83333333333334,150.56171428571426,268.75,148.5243571428571C286.6666666666667,146.48699999999997,304.5833333333333,142.15142857142854,322.5,139.36423809523805C340.4166666666667,136.5770476190476,358.3333333333333,135.3382380952381,376.25,134.42C394.1666666666667,133.5017619047619,412.0833333333333,132.9040952380952,430,132.92164285714284C447.9166666666667,132.93919047619045,465.8333333333333,133.57195238095235,483.75,134.6127619047619C501.6666666666667,135.65357142857144,519.5833333333334,137.1024285714286,537.5,139.8322619047619C555.4166666666666,142.56209523809525,573.3333333333334,146.57290476190477,591.25,148.67573809523813C609.1666666666666,150.77857142857144,627.0833333333334,150.9734285714286,636.0416666666666,151.07085714285716L645,151.16828571428573L645,182.39257142857144L636.0416666666666,181.9017619047619C627.0833333333334,181.41095238095238,609.1666666666666,180.42933333333335,591.25,178.07454761904762C573.3333333333334,175.7197619047619,555.4166666666666,171.9918095238095,537.5,169.2897380952381C519.5833333333334,166.58766666666668,501.6666666666667,164.91147619047618,483.75,163.56895238095237C465.8333333333333,162.22642857142856,447.9166666666667,161.21757142857143,430,160.98369047619047C412.0833333333333,160.74980952380952,394.1666666666667,161.29090476190476,376.25,161.7937619047619C358.3333333333333,162.29661904761906,340.4166666666667,162.7612380952381,322.5,164.53276190476194C304.5833333333333,166.30428571428573,286.6666666666667,169.38271428571431,268.75,170.76111904761908C250.83333333333334,172.1395238095238,232.91666666666666,171.81790476190477,215,172.39619047619047C197.08333333333334,172.97447619047617,179.16666666666666,174.45266666666666,161.25,176.34545238095237C143.33333333333334,178.2382380952381,125.41666666666667,180.54561904761906,98.54166666666667,181.06550000000001C71.66666666666667,181.58538095238097,35.833333333333336,180.3177619047619,17.916666666666668,179.68395238095238L0,179.05014285714284Z"><title>GR8</title></path><path fill="#cccccc" d="M0,140.481L17.916666666666668,140.41290476190477C35.833333333333336,140.34480952380952,71.66666666666667,140.20861904761907,98.54166666666667,138.25926190476193C125.41666666666667,136.30990476190476,143.33333333333334,132.54738095238093,161.25,129.37492857142857C179.16666666666666,126.20247619047616,197.08333333333334,123.6200952380952,215,122.34723809523808C232.91666666666666,121.07438095238093,250.83333333333334,121.11104761904761,268.75,118.21516666666666C286.6666666666667,115.3192857142857,304.5833333333333,109.49085714285714,322.5,105.61990476190476C340.4166666666667,101.74895238095239,358.3333333333333,99.8354761904762,376.25,98.51285714285716C394.1666666666667,97.1902380952381,412.0833333333333,96.45847619047622,430,96.65935714285717C447.9166666666667,96.86023809523812,465.8333333333333,97.99376190476193,483.75,99.09690476190478C501.6666666666667,100.20004761904765,519.5833333333334,101.27280952380954,537.5,104.55788095238097C555.4166666666666,107.8429523809524,573.3333333333334,113.34033333333332,591.25,115.45311904761904C609.1666666666666,117.56590476190475,627.0833333333334,116.29409523809522,636.0416666666666,115.65819047619046L645,115.02228571428572L645,151.16828571428573L636.0416666666666,151.07085714285716C627.0833333333334,150.9734285714286,609.1666666666666,150.77857142857144,591.25,148.67573809523813C573.3333333333334,146.57290476190477,555.4166666666666,142.56209523809525,537.5,139.83226190476194C519.5833333333334,137.1024285714286,501.6666666666667,135.65357142857144,483.75,134.6127619047619C465.8333333333333,133.57195238095235,447.9166666666667,132.93919047619045,430,132.9216428571428C412.0833333333333,132.9040952380952,394.1666666666667,133.5017619047619,376.25,134.42C358.3333333333333,135.3382380952381,340.4166666666667,136.5770476190476,322.5,139.36423809523808C304.5833333333333,142.15142857142854,286.6666666666667,146.48699999999997,268.75,148.5243571428571C250.83333333333334,150.56171428571426,232.91666666666666,150.30085714285713,215,151.0085238095238C197.08333333333334,151.71619047619046,179.16666666666666,153.39238095238093,161.25,155.71678571428572C143.33333333333334,158.04119047619048,125.41666666666667,161.01380952380953,98.54166666666667,162.18949999999998C71.66666666666667,163.36519047619046,35.833333333333336,162.74395238095238,17.916666666666668,162.4333333333333L0,162.12271428571427Z"><title>GR9</title></path><path fill="#ff7f0e" d="M0,124.37700000000001L17.916666666666668,123.77619047619048C35.833333333333336,123.17538095238096,71.66666666666667,121.97376190476193,98.54166666666667,119.31830952380955C125.41666666666667,116.66285714285715,143.33333333333334,112.55357142857143,161.25,108.94373809523809C179.16666666666666,105.33390476190475,197.08333333333334,102.2235238095238,215,100.56409523809522C232.91666666666666,98.90466666666664,250.83333333333334,98.69619047619047,268.75,94.80088095238095C286.6666666666667,90.90557142857142,304.5833333333333,83.32342857142856,322.5,78.25557142857143C340.4166666666667,73.18771428571428,358.3333333333333,70.63414285714286,376.25,68.84638095238095C394.1666666666667,67.05861904761905,412.0833333333333,66.03666666666665,430,66.28049999999999C447.9166666666667,66.52433333333333,465.8333333333333,68.03395238095239,483.75,69.51161904761905C501.6666666666667,70.98928571428571,519.5833333333334,72.43499999999999,537.5,75.85469047619047C555.4166666666666,79.27438095238092,573.3333333333334,84.66804761904761,591.25,86.79759523809521C609.1666666666666,88.92714285714284,627.0833333333334,87.79257142857142,636.0416666666666,87.2252857142857L645,86.65799999999999L645,115.02228571428572L636.0416666666666,115.65819047619048C627.0833333333334,116.29409523809522,609.1666666666666,117.56590476190475,591.25,115.45311904761904C573.3333333333334,113.34033333333332,555.4166666666666,107.8429523809524,537.5,104.55788095238097C519.5833333333334,101.27280952380954,501.6666666666667,100.20004761904765,483.75,99.09690476190478C465.8333333333333,97.99376190476193,447.9166666666667,96.86023809523812,430,96.65935714285716C412.0833333333333,96.45847619047622,394.1666666666667,97.1902380952381,376.25,98.51285714285716C358.3333333333333,99.8354761904762,340.4166666666667,101.74895238095239,322.5,105.61990476190476C304.5833333333333,109.49085714285714,286.6666666666667,115.3192857142857,268.75,118.21516666666666C250.83333333333334,121.11104761904761,232.91666666666666,121.07438095238093,215,122.34723809523807C197.08333333333334,123.6200952380952,179.16666666666666,126.20247619047616,161.25,129.37492857142854C143.33333333333334,132.54738095238093,125.41666666666667,136.30990476190476,98.54166666666667,138.25926190476193C71.66666666666667,140.20861904761907,35.833333333333336,140.34480952380952,17.916666666666668,140.41290476190477L0,140.481Z"><title>GR10</title></path><path fill="#2ca02c" d="M0,113.71328571428573L17.916666666666668,112.53838095238098C35.833333333333336,111.3634761904762,71.66666666666667,109.01366666666667,98.54166666666667,105.67935714285716C125.41666666666667,102.34504761904763,143.33333333333334,98.0262380952381,161.25,94.22154761904761C179.16666666666666,90.41685714285715,197.08333333333334,87.1262857142857,215,85.22590476190476C232.91666666666666,83.3255238095238,250.83333333333334,82.81533333333333,268.75,78.2427380952381C286.6666666666667,73.67014285714286,304.5833333333333,65.03514285714287,322.5,58.84842857142858C340.4166666666667,52.661714285714304,358.3333333333333,48.923285714285726,376.25,46.344571428571435C394.1666666666667,43.765857142857136,412.0833333333333,42.34685714285715,430,42.45345238095238C447.9166666666667,42.560047619047616,465.8333333333333,44.19223809523809,483.75,45.84276190476189C501.6666666666667,47.4932857142857,519.5833333333334,49.16214285714285,537.5,52.78821428571428C555.4166666666666,56.41428571428572,573.3333333333334,61.99757142857144,591.25,63.87569047619049C609.1666666666666,65.75380952380954,627.0833333333334,63.9267619047619,636.0416666666666,63.01323809523808L645,62.09971428571427L645,86.65799999999999L636.0416666666666,87.2252857142857C627.0833333333334,87.79257142857142,609.1666666666666,88.92714285714284,591.25,86.79759523809521C573.3333333333334,84.66804761904761,555.4166666666666,79.27438095238092,537.5,75.85469047619047C519.5833333333334,72.43499999999999,501.6666666666667,70.98928571428571,483.75,69.51161904761905C465.8333333333333,68.03395238095239,447.9166666666667,66.52433333333333,430,66.28049999999999C412.0833333333333,66.03666666666665,394.1666666666667,67.05861904761905,376.25,68.84638095238095C358.3333333333333,70.63414285714286,340.4166666666667,73.18771428571428,322.5,78.25557142857143C304.5833333333333,83.32342857142856,286.6666666666667,90.90557142857142,268.75,94.80088095238095C250.83333333333334,98.69619047619047,232.91666666666666,98.90466666666664,215,100.56409523809522C197.08333333333334,102.2235238095238,179.16666666666666,105.33390476190475,161.25,108.94373809523807C143.33333333333334,112.55357142857143,125.41666666666667,116.66285714285715,98.54166666666667,119.31830952380953C71.66666666666667,121.97376190476193,35.833333333333336,123.17538095238096,17.916666666666668,123.77619047619048L0,124.37700000000001Z"><title>GR11</title></path><path fill="#d62728" d="M0,104.04899999999999L17.916666666666668,102.18895238095239C35.833333333333336,100.32890476190475,71.66666666666667,96.60880952380951,98.54166666666667,92.2965476190476C125.41666666666667,87.9842857142857,143.33333333333334,83.07985714285714,161.25,78.87654761904763C179.16666666666666,74.6732380952381,197.08333333333334,71.17104761904763,215,68.99776190476193C232.91666666666666,66.8244761904762,250.83333333333334,65.98009523809525,268.75,60.840738095238095C286.6666666666667,55.70138095238095,304.5833333333333,46.26704761904762,322.5,39.34176190476191C340.4166666666667,32.416476190476196,358.3333333333333,28.000238095238092,376.25,24.563C394.1666666666667,21.125761904761905,412.0833333333333,18.667523809523814,430,18.212595238095243C447.9166666666667,17.757666666666676,465.8333333333333,19.30604761904762,483.75,20.96914285714286C501.6666666666667,22.632238095238097,519.5833333333334,24.410047619047628,537.5,28.243023809523823C555.4166666666666,32.076000000000015,573.3333333333334,37.964142857142875,591.25,39.84907142857144C609.1666666666666,41.73400000000001,627.0833333333334,39.61571428571429,636.0416666666666,38.556571428571424L645,37.497428571428564L645,62.09971428571427L636.0416666666666,63.01323809523809C627.0833333333334,63.9267619047619,609.1666666666666,65.75380952380954,591.25,63.87569047619049C573.3333333333334,61.99757142857144,555.4166666666666,56.41428571428572,537.5,52.78821428571428C519.5833333333334,49.16214285714285,501.6666666666667,47.4932857142857,483.75,45.84276190476189C465.8333333333333,44.19223809523809,447.9166666666667,42.560047619047616,430,42.45345238095238C412.0833333333333,42.34685714285715,394.1666666666667,43.765857142857136,376.25,46.344571428571435C358.3333333333333,48.923285714285726,340.4166666666667,52.661714285714304,322.5,58.84842857142858C304.5833333333333,65.03514285714287,286.6666666666667,73.67014285714286,268.75,78.2427380952381C250.83333333333334,82.81533333333333,232.91666666666666,83.3255238095238,215,85.22590476190474C197.08333333333334,87.1262857142857,179.16666666666666,90.41685714285715,161.25,94.22154761904763C143.33333333333334,98.0262380952381,125.41666666666667,102.34504761904763,98.54166666666667,105.67935714285714C71.66666666666667,109.01366666666667,35.833333333333336,111.3634761904762,17.916666666666668,112.53838095238096L0,113.71328571428573Z"><title>GR12</title></path></g><g id="xAxis" transform="translate(0,440)" fill="none" font-size="10" font-family="sans-serif" text-anchor="middle"><path class="domain" stroke="currentColor" d="M0.5,0.5H645.5"/><g class="tick" opacity="1" transform="translate(0.5,0)"><line stroke="currentColor" y2="6"/><text fill="currentColor" y="9" dy="0.71em">2,009</text></g><g class="tick" opacity="1" transform="translate(54.25,0)"><line stroke="currentColor" y2="6"/><text fill="currentColor" y="9" dy="0.71em">2,010</text></g><g class="tick" opacity="1" transform="translate(108,0)"><line stroke="currentColor" y2="6"/><text fill="currentColor" y="9" dy="0.71em">2,011</text></g><g class="tick" opacity="1" transform="translate(161.75,0)"><line stroke="currentColor" y2="6"/><text fill="currentColor" y="9" dy="0.71em">2,012</text></g><g class="tick" opacity="1" transform="translate(215.5,0)"><line stroke="currentColor" y2="6"/><text fill="currentColor" y="9" dy="0.71em">2,013</text></g><g class="tick" opacity="1" transform="translate(269.25,0)"><line stroke="currentColor" y2="6"/><text fill="currentColor" y="9" dy="0.71em">2,014</text></g><g class="tick" opacity="1" transform="translate(323,0)"><line stroke="currentColor" y2="6"/><text fill="currentColor" y="9" dy="0.71em">2,015</text></g><g class="tick" opacity="1" transform="translate(376.75,0)"><line stroke="currentColor" y2="6"/><text fill="currentColor" y="9" dy="0.71em">2,016</text></g><g class="tick" opacity="1" transform="translate(430.5,0)"><line stroke="currentColor" y2="6"/><text fill="currentColor" y="9" dy="0.71em">2,017</text></g><g class="tick" opacity="1" transform="translate(484.25,0)"><line stroke="currentColor" y2="6"/><text fill="currentColor" y="9" dy="0.71em">2,018</text></g><g class="tick" opacity="1" transform="translate(538,0)"><line stroke="currentColor" y2="6"/><text fill="currentColor" y="9" dy="0.71em">2,019</text></g><g class="tick" opacity="1" transform="translate(591.75,0)"><line stroke="currentColor" y2="6"/><text fill="currentColor" y="9" dy="0.71em">2,020</text></g><g class="tick" opacity="1" transform="translate(645.5,0)"><line stroke="currentColor" y2="6"/><text fill="currentColor" y="9" dy="0.71em">2,021</text></g></g><g id="yAxis" fill="none" font-size="10" font-family="sans-serif" text-anchor="end"><path class="domain" stroke="currentColor" d="M0.5,440.5V0.5"/><g class="tick" opacity="1" transform="translate(0,440.5)"><line stroke="currentColor" x2="-6"/><text fill="currentColor" x="-9" dy="0.32em">−70,000</text></g><g class="tick" opacity="1" transform="translate(0,409.0714285714286)"><line stroke="currentColor" x2="-6"/><text fill="currentColor" x="-9" dy="0.32em">−60,000</text></g><g class="tick" opacity="1" transform="translate(0,377.64285714285717)"><line stroke="currentColor" x2="-6"/><text fill="currentColor" x="-9" dy="0.32em">−50,000</text></g><g class="tick" opacity="1" transform="translate(0,346.2142857142857)"><line stroke="currentColor" x2="-6"/><text fill="currentColor" x="-9" dy="0.32em">−40,000</text></g><g class="tick" opacity="1" transform="translate(0,314.7857142857143)"><line stroke="currentColor" x2="-6"/><text fill="currentColor" x="-9" dy="0.32em">−30,000</text></g><g class="tick" opacity="1" transform="translate(0,283.35714285714283)"><line stroke="currentColor" x2="-6"/><text fill="currentColor" x="-9" dy="0.32em">−20,000</text></g><g class="tick" opacity="1" transform="translate(0,251.92857142857142)"><line stroke="currentColor" x2="-6"/><text fill="currentColor" x="-9" dy="0.32em">−10,000</text></g><g class="tick" opacity="1" transform="translate(0,220.5)"><line stroke="currentColor" x2="-6"/><text fill="currentColor" x="-9" dy="0.32em">0</text></g><g class="tick" opacity="1" transform="translate(0,189.07142857142858)"><line stroke="currentColor" x2="-6"/><text fill="currentColor" x="-9" dy="0.32em">10,000</text></g><g class="tick" opacity="1" transform="translate(0,157.6428571428571)"><line stroke="currentColor" x2="-6"/><text fill="currentColor" x="-9" dy="0.32em">20,000</text></g><g class="tick" opacity="1" transform="translate(0,126.21428571428571)"><line stroke="currentColor" x2="-6"/><text fill="currentColor" x="-9" dy="0.32em">30,000</text></g><g class="tick" opacity="1" transform="translate(0,94.78571428571429)"><line stroke="currentColor" x2="-6"/><text fill="currentColor" x="-9" dy="0.32em">40,000</text></g><g class="tick" opacity="1" transform="translate(0,63.357142857142875)"><line stroke="currentColor" x2="-6"/><text fill="currentColor" x="-9" dy="0.32em">50,000</text></g><g class="tick" opacity="1" transform="translate(0,31.928571428571416)"><line stroke="currentColor" x2="-6"/><text fill="currentColor" x="-9" dy="0.32em">60,000</text></g><g class="tick" opacity="1" transform="translate(0,0.5)"><line stroke="currentColor" x2="-6"/><text fill="currentColor" x="-9" dy="0.32em">70,000</text></g></g><text y="436" x="645" text-anchor="end" style="font-family: Arial, sans-serif; font-size: 12px; fill: rgb(123, 123, 123); font-weight: bold;">Year</text><text x="4" text-anchor="start" dominant-baseline="hanging" style="font-family: Arial, sans-serif; font-size: 12px; fill: rgb(123, 123, 123); font-weight: bold;">Grades</text><g id="labels"><text x="376.25" y="395.16242857142856" text-anchor="middle" alignment-baseline="middle" style="font-family: Arial, sans-serif; font-size: 10px; fill: black; font-weight: bold;">GR1</text><text x="430" y="361.3248571428571" text-anchor="middle" alignment-baseline="middle" style="font-family: Arial, sans-serif; font-size: 10px; fill: black; font-weight: bold;">GR2</text><text x="430" y="320.0905714285714" text-anchor="middle" alignment-baseline="middle" style="font-family: Arial, sans-serif; font-size: 10px; fill: black; font-weight: bold;">GR3</text><text x="430" y="280.1432857142857" text-anchor="middle" alignment-baseline="middle" style="font-family: Arial, sans-serif; font-size: 10px; fill: black; font-weight: bold;">GR4</text><text x="483.75" y="246.91385714285713" text-anchor="middle" alignment-baseline="middle" style="font-family: Arial, sans-serif; font-size: 10px; fill: black; font-weight: bold;">GR5</text><text x="537.5" y="217.95399999999998" text-anchor="middle" alignment-baseline="middle" style="font-family: Arial, sans-serif; font-size: 10px; fill: black; font-weight: bold;">GR6</text><text x="537.5" y="184.35685714285717" text-anchor="middle" alignment-baseline="middle" style="font-family: Arial, sans-serif; font-size: 10px; fill: black; font-weight: bold;">GR7</text><text x="645" y="166.78042857142856" text-anchor="end" alignment-baseline="middle" style="font-family: Arial, sans-serif; font-size: 10px; fill: black; font-weight: bold;">GR8</text><text x="430" y="114.01657142857141" text-anchor="middle" alignment-baseline="middle" style="font-family: Arial, sans-serif; font-size: 10px; fill: black; font-weight: bold;">GR9</text><text x="430" y="80.37071428571429" text-anchor="middle" alignment-baseline="middle" style="font-family: Arial, sans-serif; font-size: 10px; fill: black; font-weight: bold;">GR10</text><text x="645" y="74.37885714285716" text-anchor="end" alignment-baseline="middle" style="font-family: Arial, sans-serif; font-size: 10px; fill: black; font-weight: bold;">GR11</text><text x="483.75" y="33.339428571428584" text-anchor="middle" alignment-baseline="middle" style="font-family: Arial, sans-serif; font-size: 10px; fill: black; font-weight: bold;">GR12</text></g></g><text x="4" y="4" style="font-family: Arial, sans-serif; font-size: 12px; fill: black; font-weight: bold; dominant-baseline: hanging;"/></g></g><g id="legend" transform="translate(805,80)"><g transform="translate(5,0)"><g class="legendColor" transform="translate(0,0)"><g class="legendCells" transform="translate(0,16)"><g class="cell" transform="translate(0, 0)"><rect class="swatch" height="15" width="15" style="fill: rgb(31, 119, 180);"/><text class="label" transform="translate( 20, 12.5)" font-family="&quot;Arial&quot;, sans-serif" font-size="10px"><tspan x="0" dy="0em">GR1</tspan></text></g><g class="cell" transform="translate(0, 21)"><rect class="swatch" height="15" width="15" style="fill: rgb(255, 127, 14);"/><text class="label" transform="translate( 20, 12.5)" font-family="&quot;Arial&quot;, sans-serif" font-size="10px"><tspan x="0" dy="0em">GR10</tspan></text></g><g class="cell" transform="translate(0, 42)"><rect class="swatch" height="15" width="15" style="fill: rgb(44, 160, 44);"/><text class="label" transform="translate( 20, 12.5)" font-family="&quot;Arial&quot;, sans-serif" font-size="10px"><tspan x="0" dy="0em">GR11</tspan></text></g><g class="cell" transform="translate(0, 63)"><rect class="swatch" height="15" width="15" style="fill: rgb(214, 39, 40);"/><text class="label" transform="translate( 20, 12.5)" font-family="&quot;Arial&quot;, sans-serif" font-size="10px"><tspan x="0" dy="0em">GR12</tspan></text></g><g class="cell" transform="translate(0, 84)"><rect class="swatch" height="15" width="15" style="fill: rgb(148, 103, 189);"/><text class="label" transform="translate( 20, 12.5)" font-family="&quot;Arial&quot;, sans-serif" font-size="10px"><tspan x="0" dy="0em">GR2</tspan></text></g><g class="cell" transform="translate(0, 105)"><rect class="swatch" height="15" width="15" style="fill: rgb(140, 86, 75);"/><text class="label" transform="translate( 20, 12.5)" font-family="&quot;Arial&quot;, sans-serif" font-size="10px"><tspan x="0" dy="0em">GR3</tspan></text></g><g class="cell" transform="translate(0, 126)"><rect class="swatch" height="15" width="15" style="fill: rgb(227, 119, 194);"/><text class="label" transform="translate( 20, 12.5)" font-family="&quot;Arial&quot;, sans-serif" font-size="10px"><tspan x="0" dy="0em">GR4</tspan></text></g><g class="cell" transform="translate(0, 147)"><rect class="swatch" height="15" width="15" style="fill: rgb(127, 127, 127);"/><text class="label" transform="translate( 20, 12.5)" font-family="&quot;Arial&quot;, sans-serif" font-size="10px"><tspan x="0" dy="0em">GR5</tspan></text></g><g class="cell" transform="translate(0, 168)"><rect class="swatch" height="15" width="15" style="fill: rgb(188, 189, 34);"/><text class="label" transform="translate( 20, 12.5)" font-family="&quot;Arial&quot;, sans-serif" font-size="10px"><tspan x="0" dy="0em">GR6</tspan></text></g><g class="cell" transform="translate(0, 189)"><rect class="swatch" height="15" width="15" style="fill: rgb(23, 190, 207);"/><text class="label" transform="translate( 20, 12.5)" font-family="&quot;Arial&quot;, sans-serif" font-size="10px"><tspan x="0" dy="0em">GR7</tspan></text></g><g class="cell" transform="translate(0, 210)"><rect class="swatch" height="15" width="15" style="fill: rgb(204, 204, 204);"/><text class="label" transform="translate( 20, 12.5)" font-family="&quot;Arial&quot;, sans-serif" font-size="10px"><tspan x="0" dy="0em">GR8</tspan></text></g><g class="cell" transform="translate(0, 231)"><rect class="swatch" height="15" width="15" style="fill: rgb(204, 204, 204);"/><text class="label" transform="translate( 20, 12.5)" font-family="&quot;Arial&quot;, sans-serif" font-size="10px"><tspan x="0" dy="0em">GR9</tspan></text></g></g><text class="legendTitle" font-family="&quot;Arial&quot;, sans-serif" font-size="12px" font-weight="bold"><tspan x="0" dy="0em">Colors</tspan></text></g></g></g></svg>