<svg xmlns="http://www.w3.org/2000/svg" width="805" height="600"><rect width="805" height="600" x="0" y="0" fill="#FFFFFF" id="backgorund"/><g id="viz"><clipPath id="serieClipPath"><rect x="-50" y="-10" width="805" height="600"/></clipPath><g transform="translate(0,0)"><g transform="translate(50,10)" clip-path="url(#serieClipPath)"><g id="axis"><g transform="translate(0,570)" fill="none" font-size="10" font-family="sans-serif" text-anchor="middle"><path class="domain" stroke="currentColor" d="M0.5,6V0.5H740.5V6"/><g class="tick" opacity="1" transform="translate(0.5,0)"><line stroke="currentColor" y2="6"/><text fill="currentColor" y="9" dy="0.71em">2,009</text></g><g class="tick" opacity="1" transform="translate(62.166666666666664,0)"><line stroke="currentColor" y2="6"/><text fill="currentColor" y="9" dy="0.71em">2,010</text></g><g class="tick" opacity="1" transform="translate(123.83333333333333,0)"><line stroke="currentColor" y2="6"/><text fill="currentColor" y="9" dy="0.71em">2,011</text></g><g class="tick" opacity="1" transform="translate(185.5,0)"><line stroke="currentColor" y2="6"/><text fill="currentColor" y="9" dy="0.71em">2,012</text></g><g class="tick" opacity="1" transform="translate(247.16666666666666,0)"><line stroke="currentColor" y2="6"/><text fill="currentColor" y="9" dy="0.71em">2,013</text></g><g class="tick" opacity="1" transform="translate(308.83333333333337,0)"><line stroke="currentColor" y2="6"/><text fill="currentColor" y="9" dy="0.71em">2,014</text></g><g class="tick" opacity="1" transform="translate(370.5,0)"><line stroke="currentColor" y2="6"/><text fill="currentColor" y="9" dy="0.71em">2,015</text></g><g class="tick" opacity="1" transform="translate(432.1666666666667,0)"><line stroke="currentColor" y2="6"/><text fill="currentColor" y="9" dy="0.71em">2,016</text></g><g class="tick" opacity="1" transform="translate(493.8333333333333,0)"><line stroke="currentColor" y2="6"/><text fill="currentColor" y="9" dy="0.71em">2,017</text></g><g class="tick" opacity="1" transform="translate(555.5,0)"><line stroke="currentColor" y2="6"/><text fill="currentColor" y="9" dy="0.71em">2,018</text></g><g class="tick" opacity="1" transform="translate(617.1666666666667,0)"><line stroke="currentColor" y2="6"/><text fill="currentColor" y="9" dy="0.71em">2,019</text></g><g class="tick" opacity="1" transform="translate(678.8333333333333,0)"><line stroke="currentColor" y2="6"/><text fill="currentColor" y="9" dy="0.71em">2,020</text></g><g class="tick" opacity="1" transform="translate(740.5,0)"><line stroke="currentColor" y2="6"/><text fill="currentColor" y="9" dy="0.71em">2,021</text></g><text x="740" dy="-5" text-anchor="end" style="font-family: Arial, sans-serif; font-size: 12px; fill: rgb(123, 123, 123); font-weight: bold;">YEAR</text></g><g transform="translate(0,0)" fill="none" font-size="10" font-family="sans-serif" text-anchor="end"><path class="domain" stroke="currentColor" d="M0.5,570.5V0.5"/><g class="tick" opacity="1" transform="translate(0,570.5)"><line stroke="currentColor" x2="-6"/><text fill="currentColor" x="-9" dy="0.32em">0</text></g><g class="tick" opacity="1" transform="translate(0,499.25)"><line stroke="currentColor" x2="-6"/><text fill="currentColor" x="-9" dy="0.32em">20,000</text></g><g class="tick" opacity="1" transform="translate(0,428)"><line stroke="currentColor" x2="-6"/><text fill="currentColor" x="-9" dy="0.32em">40,000</text></g><g class="tick" opacity="1" transform="translate(0,356.75)"><line stroke="currentColor" x2="-6"/><text fill="currentColor" x="-9" dy="0.32em">60,000</text></g><g class="tick" opacity="1" transform="translate(0,285.5)"><line stroke="currentColor" x2="-6"/><text fill="currentColor" x="-9" dy="0.32em">80,000</text></g><g class="tick" opacity="1" transform="translate(0,214.25)"><line stroke="currentColor" x2="-6"/><text fill="currentColor" x="-9" dy="0.32em">100,000</text></g><g class="tick" opacity="1" transform="translate(0,143)"><line stroke="currentColor" x2="-6"/><text fill="currentColor" x="-9" dy="0.32em">120,000</text></g><g class="tick" opacity="1" transform="translate(0,71.75)"><line stroke="currentColor" x2="-6"/><text fill="currentColor" x="-9" dy="0.32em">140,000</text></g><g class="tick" opacity="1" transform="translate(0,0.5)"><line stroke="currentColor" x2="-6"/><text fill="currentColor" x="-9" dy="0.32em">160,000</text></g><text x="4" text-anchor="start" dominant-baseline="hanging" style="font-family: Arial, sans-serif; font-size: 12px; fill: rgb(123, 123, 123); font-weight: bold;">TOTAL.HOMELESS</text></g></g><g id="viz"><g id="CHARTER SCHOOL"><path d="M0,566.2201875000001L123.33333333333333,563.6053125L185,560.0071875L246.66666666666666,555.9174375L308.33333333333337,551.7849375L370,546.8295L431.6666666666667,541.9132500000001L493.3333333333333,534.1149375L555,529.009875L616.6666666666667,523.602L678.3333333333333,520.6985625L740,519.8221875" stroke="#1f77b4" fill="none"/><text font-family="sans-serif" font-size="10" class="labels" x="740" y="519.8221875" dx="0" dy="-4" text-anchor="middle">CHARTER SCHOOL</text></g><g id="SCHOOL DISTRICT"><path d="M0,501.635625L123.33333333333333,477.69562499999995L185,469.99706249999997L246.66666666666666,468.65756250000004L308.33333333333337,460.1503125L370,450.8806875L431.6666666666667,71.45662500000003L493.3333333333333,64.816125L555,85.06181250000002L616.6666666666667,116.95687499999998L678.3333333333333,170.26256249999997L740,145.13625" stroke="#1f77b4" fill="none"/><text font-family="sans-serif" font-size="10" class="labels" x="493.3333333333333" y="64.816125" dx="0" dy="-4" text-anchor="middle">SCHOOL DISTRICT</text></g></g></g><text y="4" x="4" style="font-family: Arial, sans-serif; font-size: 12px; fill: black; font-weight: bold; dominant-baseline: hanging;"/></g><g id="grid"><rect x="0" y="0" width="805" height="600" fill="none" stroke="#ccc"/></g></g></svg>