<svg xmlns="http://www.w3.org/2000/svg" width="300" height="300"><rect width="300" height="300" x="0" y="0" fill="#FFFFFF" id="backgorund"/><g transform="translate(50,50)" id="viz"><g><rect x="0" y="138.38270409659415" height="61.61729590340585" width="0" fill="black"><title>2009: 85866</title></rect><rect x="200" y="0" height="88.85804509155003" width="0" fill="black"><title>DOUBLED UP: 123827</title></rect><rect x="200" y="103.04244225467059" height="57.784603365962795" width="0" fill="black"><title>0HELTERED: 80525</title></rect><rect x="200" y="196.97675834857748" height="3.0232416514225235" width="0" fill="black"><title>HOTEL_MOTEL: 4213</title></rect><rect x="200" y="175.01144278375395" height="7.780918401702962" width="0" fill="black"><title>UN0HELTERED: 10843</title></rect><rect x="0" y="28.368794326241137" height="95.82951260723246" width="0" fill="black"><title>2021: 133542</title></rect></g><g class="links" fill="none" stroke-opacity="1"><path d="M0,150.30380590866562C100,150.30380590866562,100,76.93694327947857,200,76.93694327947857" stroke="rgb(158, 1, 66)" style="stroke-width: 23.8422; mix-blend-mode: multiply;"><title>2009 → DOUBLED UP: 33225</title></path><path d="M0,178.83587324343569C100,178.83587324343569,100,144.2160800979347,200,144.2160800979347" stroke="rgb(158, 1, 66)" style="stroke-width: 33.2219; mix-blend-mode: multiply;"><title>2009 → 0HELTERED: 46296</title></path><path d="M0,199.6020917408702C100,199.6020917408702,100,199.6020917408703,200,199.6020917408703" stroke="rgb(158, 1, 66)" style="stroke-width: 1; mix-blend-mode: multiply;"><title>2009 → HOTEL_MOTEL: 1109</title></path><path d="M0,197.32551112393733C100,197.32551112393733,100,180.91368882765394,200,180.91368882765394" stroke="rgb(158, 1, 66)" style="stroke-width: 3.75734; mix-blend-mode: multiply;"><title>2009 → UN0HELTERED: 5236</title></path><path d="M0,60.87671505994469C100,60.87671505994469,100,32.50792073370355,200,32.50792073370355" stroke="rgb(94, 79, 162)" style="stroke-width: 65.0158; mix-blend-mode: multiply;"><title>2021 → DOUBLED UP: 90602</title></path><path d="M0,123.08459436689213C100,123.08459436689213,100,198.09047091515893,200,198.09047091515893" stroke="rgb(94, 79, 162)" style="stroke-width: 2.22743; mix-blend-mode: multiply;"><title>2021 → HOTEL_MOTEL: 3104</title></path><path d="M0,105.66597195393099C100,105.66597195393099,100,115.32377841495334,200,115.32377841495334" stroke="rgb(94, 79, 162)" style="stroke-width: 24.5627; mix-blend-mode: multiply;"><title>2021 → 0HELTERED: 34229</title></path><path d="M0,119.95909495726221C100,119.95909495726221,100,177.02322962680242,200,177.02322962680242" stroke="rgb(94, 79, 162)" style="stroke-width: 4.02357; mix-blend-mode: multiply;"><title>2021 → UN0HELTERED: 5607</title></path></g><g><text x="4" y="169.19135204829706" text-anchor="start"><tspan alignment-baseline="middle" style="font-family: Arial, sans-serif; font-size: 10px; fill: black; font-weight: bold;">2009</tspan></text><text x="196" y="44.42902254577501" text-anchor="end"><tspan alignment-baseline="middle" style="font-family: Arial, sans-serif; font-size: 10px; fill: black; font-weight: bold;">DOUBLED UP</tspan></text><text x="196" y="131.934743937652" text-anchor="end"><tspan alignment-baseline="middle" style="font-family: Arial, sans-serif; font-size: 10px; fill: black; font-weight: bold;">0HELTERED</tspan></text><text x="196" y="198.48837917428875" text-anchor="end"><tspan alignment-baseline="middle" style="font-family: Arial, sans-serif; font-size: 10px; fill: black; font-weight: bold;">HOTEL_MOTEL</tspan></text><text x="196" y="178.90190198460544" text-anchor="end"><tspan alignment-baseline="middle" style="font-family: Arial, sans-serif; font-size: 10px; fill: black; font-weight: bold;">UN0HELTERED</tspan></text><text x="4" y="76.28355062985736" text-anchor="start"><tspan alignment-baseline="middle" style="font-family: Arial, sans-serif; font-size: 10px; fill: black; font-weight: bold;">2021</tspan></text></g></g></svg>