<svg xmlns="http://www.w3.org/2000/svg" width="1100" height="1200"><rect width="1100" height="1200" x="0" y="0" fill="#FFFFFF" id="backgorund"/><g id="viz"><g transform="translate(0,0)"><g transform="translate(100,50)"><g><path fill="#1f77b4" d="M0,785.1043749999999C62.5,785.1043749999999,62.5,816.3135640777634,125,816.3135640777634C156.25,816.3135640777634,156.25,859.7429988598227,187.5,859.7429988598227C218.75,859.7429988598227,218.75,878.0844135865805,250,878.0844135865805C281.25,878.0844135865805,281.25,885.2466669597362,312.5,885.2466669597362C343.75,885.2466669597362,343.75,946.0604455578984,375,946.0604455578984C406.25,946.0604455578984,406.25,971.3517714198916,437.5,971.3517714198916C468.75,971.3517714198916,468.75,979.0970333265739,500,979.0970333265739C531.25,979.0970333265739,531.25,965.1101548380994,562.5,965.1101548380994C593.75,965.1101548380994,593.75,941.1697940723926,625,941.1697940723926C656.25,941.1697940723926,656.25,892.0119903167201,687.5,892.0119903167201C718.75,892.0119903167201,718.75,913.009028586809,750,913.009028586809L750,933.7921535868089C718.75,933.7921535868089,718.75,909.1926153167201,687.5,909.1926153167201C656.25,909.1926153167201,656.25,962.7847940723926,625,962.7847940723926C593.75,962.7847940723926,593.75,989.3376548380994,562.5,989.3376548380994C531.25,989.3376548380994,531.25,1004.108283326574,500,1004.108283326574C468.75,1004.108283326574,468.75,994.1698964198915,437.5,994.1698964198915C406.25,994.1698964198915,406.25,966.6648205578985,375,966.6648205578985C343.75,966.6648205578985,343.75,903.9810419597362,312.5,903.9810419597362C281.25,903.9810419597362,281.25,895.4025385865805,250,895.4025385865805C218.75,895.4025385865805,218.75,878.2711238598226,187.5,878.2711238598226C156.25,878.2711238598226,156.25,836.5123140777634,125,836.5123140777634C62.5,836.5123140777634,62.5,802.030625,0,802.030625Z"><title>Capital</title></path><path fill="#ff7f0e" d="M0,771.959375C62.5,771.959375,62.5,800.2810640777634,125,800.2810640777634C156.25,800.2810640777634,156.25,843.6829988598226,187.5,843.6829988598226C218.75,843.6829988598226,218.75,857.4594135865804,250,857.4594135865804C281.25,857.4594135865804,281.25,860.3316669597363,312.5,860.3316669597363C343.75,860.3316669597363,343.75,917.6323205578985,375,917.6323205578985C406.25,917.6323205578985,406.25,941.5348964198917,437.5,941.5348964198917C468.75,941.5348964198917,468.75,954.1064083265738,500,954.1064083265738C531.25,954.1064083265738,531.25,941.5357798380994,562.5,941.5357798380994C593.75,941.5357798380994,593.75,918.6129190723926,625,918.6129190723926C656.25,918.6129190723926,656.25,876.2751153167201,687.5,876.2751153167201C718.75,876.2751153167201,718.75,891.057153586809,750,891.057153586809L750,913.009028586809C718.75,913.009028586809,718.75,892.0119903167201,687.5,892.0119903167201C656.25,892.0119903167201,656.25,941.1697940723926,625,941.1697940723926C593.75,941.1697940723926,593.75,965.1101548380994,562.5,965.1101548380994C531.25,965.1101548380994,531.25,979.0970333265739,500,979.0970333265739C468.75,979.0970333265739,468.75,971.3517714198916,437.5,971.3517714198916C406.25,971.3517714198916,406.25,946.0604455578984,375,946.0604455578984C343.75,946.0604455578984,343.75,885.2466669597362,312.5,885.2466669597362C281.25,885.2466669597362,281.25,878.0844135865805,250,878.0844135865805C218.75,878.0844135865805,218.75,859.7429988598227,187.5,859.7429988598227C156.25,859.7429988598227,156.25,816.3135640777634,125,816.3135640777634C62.5,816.3135640777634,62.5,785.1043749999999,0,785.1043749999999Z"><title>Central</title></path><path fill="#2ca02c" d="M0,757.494375C62.5,757.494375,62.5,776.0123140777634,125,776.0123140777634C156.25,776.0123140777634,156.25,817.8673738598227,187.5,817.8673738598227C218.75,817.8673738598227,218.75,830.7844135865805,250,830.7844135865805C281.25,830.7844135865805,281.25,832.0135419597361,312.5,832.0135419597361C343.75,832.0135419597361,343.75,887.2860705578984,375,887.2860705578984C406.25,887.2860705578984,406.25,910.0198964198916,437.5,910.0198964198916C468.75,910.0198964198916,468.75,921.3126583265738,500,921.3126583265738C531.25,921.3126583265738,531.25,910.1514048380994,562.5,910.1514048380994C593.75,910.1514048380994,593.75,890.3154190723926,625,890.3154190723926C656.25,890.3154190723926,656.25,857.2932403167201,687.5,857.2932403167201C718.75,857.2932403167201,718.75,867.070278586809,750,867.070278586809L750,891.057153586809C718.75,891.057153586809,718.75,876.2751153167201,687.5,876.2751153167201C656.25,876.2751153167201,656.25,918.6129190723926,625,918.6129190723926C593.75,918.6129190723926,593.75,941.5357798380994,562.5,941.5357798380994C531.25,941.5357798380994,531.25,954.1064083265738,500,954.1064083265738C468.75,954.1064083265738,468.75,941.5348964198917,437.5,941.5348964198917C406.25,941.5348964198917,406.25,917.6323205578985,375,917.6323205578985C343.75,917.6323205578985,343.75,860.3316669597363,312.5,860.3316669597363C281.25,860.3316669597363,281.25,857.4594135865804,250,857.4594135865804C218.75,857.4594135865804,218.75,843.6829988598226,187.5,843.6829988598226C156.25,843.6829988598226,156.25,800.2810640777634,125,800.2810640777634C62.5,800.2810640777634,62.5,771.959375,0,771.959375Z"><title>Finger Lakes</title></path><path fill="#d62728" d="M0,723.0093750000001C62.5,723.0093750000001,62.5,735.4635640777634,125,735.4635640777634C156.25,735.4635640777634,156.25,772.9873738598227,187.5,772.9873738598227C218.75,772.9873738598227,218.75,785.7462885865805,250,785.7462885865805C281.25,785.7462885865805,281.25,786.9891669597362,312.5,786.9891669597362C343.75,786.9891669597362,343.75,840.3779455578984,375,840.3779455578984C406.25,840.3779455578984,406.25,861.9361464198917,437.5,861.9361464198917C468.75,861.9361464198917,468.75,869.4064083265739,500,869.4064083265739C531.25,869.4064083265739,531.25,858.5476548380994,562.5,858.5476548380994C593.75,858.5476548380994,593.75,842.4035440723926,625,842.4035440723926C656.25,842.4035440723926,656.25,815.08074031672,687.5,815.08074031672C718.75,815.08074031672,718.75,819.6259035868089,750,819.6259035868089L750,867.070278586809C718.75,867.070278586809,718.75,857.2932403167201,687.5,857.2932403167201C656.25,857.2932403167201,656.25,890.3154190723926,625,890.3154190723926C593.75,890.3154190723926,593.75,910.1514048380994,562.5,910.1514048380994C531.25,910.1514048380994,531.25,921.3126583265738,500,921.3126583265738C468.75,921.3126583265738,468.75,910.0198964198916,437.5,910.0198964198916C406.25,910.0198964198916,406.25,887.2860705578984,375,887.2860705578984C343.75,887.2860705578984,343.75,832.0135419597361,312.5,832.0135419597361C281.25,832.0135419597361,281.25,830.7844135865805,250,830.7844135865805C218.75,830.7844135865805,218.75,817.8673738598227,187.5,817.8673738598227C156.25,817.8673738598227,156.25,776.0123140777634,125,776.0123140777634C62.5,776.0123140777634,62.5,757.494375,0,757.494375Z"><title>Hudson Valley</title></path><path fill="#9467bd" d="M0,692.3950000000001C62.5,692.3950000000001,62.5,698.3591890777635,125,698.3591890777635C156.25,698.3591890777635,156.25,717.2723738598227,187.5,717.2723738598227C218.75,717.2723738598227,218.75,734.9950385865806,250,734.9950385865806C281.25,734.9950385865806,281.25,731.8516669597362,312.5,731.8516669597362C343.75,731.8516669597362,343.75,778.2210705578984,375,778.2210705578984C406.25,778.2210705578984,406.25,791.9761464198915,437.5,791.9761464198915C468.75,791.9761464198915,468.75,799.3914083265739,500,799.3914083265739C531.25,799.3914083265739,531.25,800.7839048380995,562.5,800.7839048380995C593.75,800.7839048380995,593.75,789.5897940723926,625,789.5897940723926C656.25,789.5897940723926,656.25,771.2319903167202,687.5,771.2319903167202C718.75,771.2319903167202,718.75,778.293403586809,750,778.293403586809L750,819.6259035868089C718.75,819.6259035868089,718.75,815.08074031672,687.5,815.08074031672C656.25,815.08074031672,656.25,842.4035440723926,625,842.4035440723926C593.75,842.4035440723926,593.75,858.5476548380994,562.5,858.5476548380994C531.25,858.5476548380994,531.25,869.4064083265739,500,869.4064083265739C468.75,869.4064083265739,468.75,861.9361464198917,437.5,861.9361464198917C406.25,861.9361464198917,406.25,840.3779455578984,375,840.3779455578984C343.75,840.3779455578984,343.75,786.9891669597362,312.5,786.9891669597362C281.25,786.9891669597362,281.25,785.7462885865805,250,785.7462885865805C218.75,785.7462885865805,218.75,772.9873738598227,187.5,772.9873738598227C156.25,772.9873738598227,156.25,735.4635640777634,125,735.4635640777634C62.5,735.4635640777634,62.5,723.0093750000001,0,723.0093750000001Z"><title>Long Island</title></path><path fill="#8c564b" d="M0,819.885C62.5,819.885,62.5,867.6285640777635,125,867.6285640777635C156.25,867.6285640777635,156.25,903.1311238598227,187.5,903.1311238598227C218.75,903.1311238598227,218.75,923.5625385865804,250,923.5625385865804C281.25,923.5625385865804,281.25,937.0360419597363,312.5,937.0360419597363C343.75,937.0360419597363,343.75,1001.6516955578984,375,1001.6516955578984C406.25,1001.6516955578984,406.25,1027.0942714198916,437.5,1027.0942714198916C468.75,1027.0942714198916,468.75,1042.539533326574,500,1042.539533326574C531.25,1042.539533326574,531.25,1019.3882798380995,562.5,1019.3882798380995C593.75,1019.3882798380995,593.75,991.6185440723926,625,991.6185440723926C656.25,991.6185440723926,656.25,930.8488653167201,687.5,930.8488653167201C718.75,930.8488653167201,718.75,964.269028586809,750,964.269028586809L750,970.649028586809C718.75,970.649028586809,718.75,936.7201153167201,687.5,936.7201153167201C656.25,936.7201153167201,656.25,999.2016690723926,625,999.2016690723926C593.75,999.2016690723926,593.75,1026.9851548380996,562.5,1026.9851548380996C531.25,1026.9851548380996,531.25,1049.9439083265738,500,1049.9439083265738C468.75,1049.9439083265738,468.75,1032.4911464198915,437.5,1032.4911464198915C406.25,1032.4911464198915,406.25,1006.1616955578984,375,1006.1616955578984C343.75,1006.1616955578984,343.75,941.9104169597363,312.5,941.9104169597363C281.25,941.9104169597363,281.25,928.2169135865805,250,928.2169135865805C218.75,928.2169135865805,218.75,907.8748738598227,187.5,907.8748738598227C156.25,907.8748738598227,156.25,873.8023140777634,125,873.8023140777634C62.5,873.8023140777634,62.5,823.3912500000001,0,823.3912500000001Z"><title>Mohawk</title></path><path fill="#e377c2" d="M0,232.56749999999997C62.5,232.56749999999997,62.5,208.68731407776355,125,208.68731407776355C156.25,208.68731407776355,156.25,163.59424885982267,187.5,163.59424885982267C218.75,163.59424885982267,218.75,135.66003858658033,250,135.66003858658033C281.25,135.66003858658033,281.25,135.98854195973624,312.5,135.98854195973624C343.75,135.98854195973624,343.75,53.54107055789837,375,53.54107055789837C406.25,53.54107055789837,406.25,25.15239641989151,437.5,25.15239641989151C468.75,25.15239641989151,468.75,11.213908326573973,500,11.213908326573973C531.25,11.213908326573973,531.25,16.779529838099293,562.5,16.779529838099293C593.75,16.779529838099293,593.75,39.671669072392625,625,39.671669072392625C656.25,39.671669072392625,656.25,77.17324031672014,687.5,77.17324031672014C718.75,77.17324031672014,718.75,61.41652858680894,750,61.41652858680894L750,778.293403586809C718.75,778.293403586809,718.75,771.2319903167202,687.5,771.2319903167202C656.25,771.2319903167202,656.25,789.5897940723926,625,789.5897940723926C593.75,789.5897940723926,593.75,800.7839048380995,562.5,800.7839048380995C531.25,800.7839048380995,531.25,799.3914083265739,500,799.3914083265739C468.75,799.3914083265739,468.75,791.9761464198915,437.5,791.9761464198915C406.25,791.9761464198915,406.25,778.2210705578984,375,778.2210705578984C343.75,778.2210705578984,343.75,731.8516669597362,312.5,731.8516669597362C281.25,731.8516669597362,281.25,734.9950385865806,250,734.9950385865806C218.75,734.9950385865806,218.75,717.2723738598227,187.5,717.2723738598227C156.25,717.2723738598227,156.25,698.3591890777635,125,698.3591890777635C62.5,698.3591890777635,62.5,692.3950000000001,0,692.3950000000001Z"><title>New York City</title></path><path fill="#7f7f7f" d="M0,823.3912500000001C62.5,823.3912500000001,62.5,873.8023140777634,125,873.8023140777634C156.25,873.8023140777634,156.25,907.8748738598227,187.5,907.8748738598227C218.75,907.8748738598227,218.75,928.2169135865805,250,928.2169135865805C281.25,928.2169135865805,281.25,941.9104169597363,312.5,941.9104169597363C343.75,941.9104169597363,343.75,1006.1616955578984,375,1006.1616955578984C406.25,1006.1616955578984,406.25,1032.4911464198915,437.5,1032.4911464198915C468.75,1032.4911464198915,468.75,1049.9439083265738,500,1049.9439083265738C531.25,1049.9439083265738,531.25,1026.9851548380996,562.5,1026.9851548380996C593.75,1026.9851548380996,593.75,999.2016690723926,625,999.2016690723926C656.25,999.2016690723926,656.25,936.7201153167201,687.5,936.7201153167201C718.75,936.7201153167201,718.75,970.649028586809,750,970.649028586809L750,978.163403586809C718.75,978.163403586809,718.75,943.7394903167201,687.5,943.7394903167201C656.25,943.7394903167201,656.25,1003.5054190723926,625,1003.5054190723926C593.75,1003.5054190723926,593.75,1031.7289048380994,562.5,1031.7289048380994C531.25,1031.7289048380994,531.25,1055.382033326574,500,1055.382033326574C468.75,1055.382033326574,468.75,1041.4561464198916,437.5,1041.4561464198916C406.25,1041.4561464198916,406.25,1010.1079455578983,375,1010.1079455578983C343.75,1010.1079455578983,343.75,945.3891669597363,312.5,945.3891669597363C281.25,945.3891669597363,281.25,931.8744135865804,250,931.8744135865804C218.75,931.8744135865804,218.75,911.5323738598227,187.5,911.5323738598227C156.25,911.5323738598227,156.25,877.2810640777634,125,877.2810640777634C62.5,877.2810640777634,62.5,825,0,825Z"><title>North Country</title></path><path fill="#bcbd22" d="M0,814.309375C62.5,814.309375,62.5,851.9673140777635,125,851.9673140777635C156.25,851.9673140777635,156.25,894.2761238598226,187.5,894.2761238598226C218.75,894.2761238598226,218.75,914.8037885865805,250,914.8037885865805C281.25,914.8037885865805,281.25,928.6622919597362,312.5,928.6622919597362C343.75,928.6622919597362,343.75,992.3291955578984,375,992.3291955578984C406.25,992.3291955578984,406.25,1016.6098964198916,437.5,1016.6098964198916C468.75,1016.6098964198916,468.75,1030.3914083265738,500,1030.3914083265738C531.25,1030.3914083265738,531.25,1010.0589048380994,562.5,1010.0589048380994C593.75,1010.0589048380994,593.75,982.0760440723927,625,982.0760440723927C656.25,982.0760440723927,656.25,922.2069903167201,687.5,922.2069903167201C718.75,922.2069903167201,718.75,953.9771535868089,750,953.9771535868089L750,964.269028586809C718.75,964.269028586809,718.75,930.8488653167201,687.5,930.8488653167201C656.25,930.8488653167201,656.25,991.6185440723926,625,991.6185440723926C593.75,991.6185440723926,593.75,1019.3882798380995,562.5,1019.3882798380995C531.25,1019.3882798380995,531.25,1042.539533326574,500,1042.539533326574C468.75,1042.539533326574,468.75,1027.0942714198916,437.5,1027.0942714198916C406.25,1027.0942714198916,406.25,1001.6516955578984,375,1001.6516955578984C343.75,1001.6516955578984,343.75,937.0360419597363,312.5,937.0360419597363C281.25,937.0360419597363,281.25,923.5625385865804,250,923.5625385865804C218.75,923.5625385865804,218.75,903.1311238598227,187.5,903.1311238598227C156.25,903.1311238598227,156.25,867.6285640777635,125,867.6285640777635C62.5,867.6285640777635,62.5,819.885,0,819.885Z"><title>Southern Tier</title></path><path fill="#17becf" d="M0,802.030625C62.5,802.030625,62.5,836.5123140777634,125,836.5123140777634C156.25,836.5123140777634,156.25,878.2711238598226,187.5,878.2711238598226C218.75,878.2711238598226,218.75,895.4025385865805,250,895.4025385865805C281.25,895.4025385865805,281.25,903.9810419597362,312.5,903.9810419597362C343.75,903.9810419597362,343.75,966.6648205578985,375,966.6648205578985C406.25,966.6648205578985,406.25,994.1698964198915,437.5,994.1698964198915C468.75,994.1698964198915,468.75,1004.108283326574,500,1004.108283326574C531.25,1004.108283326574,531.25,989.3376548380994,562.5,989.3376548380994C593.75,989.3376548380994,593.75,962.7847940723926,625,962.7847940723926C656.25,962.7847940723926,656.25,909.1926153167201,687.5,909.1926153167201C718.75,909.1926153167201,718.75,933.7921535868089,750,933.7921535868089L750,953.9771535868089C718.75,953.9771535868089,718.75,922.2069903167201,687.5,922.2069903167201C656.25,922.2069903167201,656.25,982.0760440723927,625,982.0760440723927C593.75,982.0760440723927,593.75,1010.0589048380994,562.5,1010.0589048380994C531.25,1010.0589048380994,531.25,1030.3914083265738,500,1030.3914083265738C468.75,1030.3914083265738,468.75,1016.6098964198916,437.5,1016.6098964198916C406.25,1016.6098964198916,406.25,992.3291955578984,375,992.3291955578984C343.75,992.3291955578984,343.75,928.6622919597362,312.5,928.6622919597362C281.25,928.6622919597362,281.25,914.8037885865805,250,914.8037885865805C218.75,914.8037885865805,218.75,894.2761238598226,187.5,894.2761238598226C156.25,894.2761238598226,156.25,851.9673140777635,125,851.9673140777635C62.5,851.9673140777635,62.5,814.309375,0,814.309375Z"><title>Western</title></path></g><g id="xAxis" transform="translate(0,1100)" fill="none" font-size="10" font-family="sans-serif" text-anchor="middle"><path class="domain" stroke="currentColor" d="M0.5,0.5H750.5"/><g class="tick" opacity="1" transform="translate(0.5,0)"><line stroke="currentColor" y2="6"/><text fill="currentColor" y="9" dy="0.71em">2,009</text></g><g class="tick" opacity="1" transform="translate(63,0)"><line stroke="currentColor" y2="6"/><text fill="currentColor" y="9" dy="0.71em">2,010</text></g><g class="tick" opacity="1" transform="translate(125.5,0)"><line stroke="currentColor" y2="6"/><text fill="currentColor" y="9" dy="0.71em">2,011</text></g><g class="tick" opacity="1" transform="translate(188,0)"><line stroke="currentColor" y2="6"/><text fill="currentColor" y="9" dy="0.71em">2,012</text></g><g class="tick" opacity="1" transform="translate(250.5,0)"><line stroke="currentColor" y2="6"/><text fill="currentColor" y="9" dy="0.71em">2,013</text></g><g class="tick" opacity="1" transform="translate(313,0)"><line stroke="currentColor" y2="6"/><text fill="currentColor" y="9" dy="0.71em">2,014</text></g><g class="tick" opacity="1" transform="translate(375.5,0)"><line stroke="currentColor" y2="6"/><text fill="currentColor" y="9" dy="0.71em">2,015</text></g><g class="tick" opacity="1" transform="translate(438,0)"><line stroke="currentColor" y2="6"/><text fill="currentColor" y="9" dy="0.71em">2,016</text></g><g class="tick" opacity="1" transform="translate(500.5,0)"><line stroke="currentColor" y2="6"/><text fill="currentColor" y="9" dy="0.71em">2,017</text></g><g class="tick" opacity="1" transform="translate(563,0)"><line stroke="currentColor" y2="6"/><text fill="currentColor" y="9" dy="0.71em">2,018</text></g><g class="tick" opacity="1" transform="translate(625.5,0)"><line stroke="currentColor" y2="6"/><text fill="currentColor" y="9" dy="0.71em">2,019</text></g><g class="tick" opacity="1" transform="translate(688,0)"><line stroke="currentColor" y2="6"/><text fill="currentColor" y="9" dy="0.71em">2,020</text></g><g class="tick" opacity="1" transform="translate(750.5,0)"><line stroke="currentColor" y2="6"/><text fill="currentColor" y="9" dy="0.71em">2,021</text></g></g><g id="yAxis" fill="none" font-size="10" font-family="sans-serif" text-anchor="end"><path class="domain" stroke="currentColor" d="M0.5,1100.5V0.5"/><g class="tick" opacity="1" transform="translate(0,1100.5)"><line stroke="currentColor" x2="-6"/><text fill="currentColor" x="-9" dy="0.32em">−40,000</text></g><g class="tick" opacity="1" transform="translate(0,963)"><line stroke="currentColor" x2="-6"/><text fill="currentColor" x="-9" dy="0.32em">−20,000</text></g><g class="tick" opacity="1" transform="translate(0,825.5)"><line stroke="currentColor" x2="-6"/><text fill="currentColor" x="-9" dy="0.32em">0</text></g><g class="tick" opacity="1" transform="translate(0,688)"><line stroke="currentColor" x2="-6"/><text fill="currentColor" x="-9" dy="0.32em">20,000</text></g><g class="tick" opacity="1" transform="translate(0,550.5)"><line stroke="currentColor" x2="-6"/><text fill="currentColor" x="-9" dy="0.32em">40,000</text></g><g class="tick" opacity="1" transform="translate(0,413)"><line stroke="currentColor" x2="-6"/><text fill="currentColor" x="-9" dy="0.32em">60,000</text></g><g class="tick" opacity="1" transform="translate(0,275.5)"><line stroke="currentColor" x2="-6"/><text fill="currentColor" x="-9" dy="0.32em">80,000</text></g><g class="tick" opacity="1" transform="translate(0,138)"><line stroke="currentColor" x2="-6"/><text fill="currentColor" x="-9" dy="0.32em">100,000</text></g><g class="tick" opacity="1" transform="translate(0,0.5)"><line stroke="currentColor" x2="-6"/><text fill="currentColor" x="-9" dy="0.32em">120,000</text></g></g><text y="1096" x="750" text-anchor="end" style="font-family: Arial, sans-serif; font-size: 12px; fill: rgb(123, 123, 123); font-weight: bold;">YEAR</text><text x="4" text-anchor="start" dominant-baseline="hanging" style="font-family: Arial, sans-serif; font-size: 12px; fill: rgb(123, 123, 123); font-weight: bold;">TOTAL.HOMELESS</text><g id="labels"><text x="500" y="991.6026583265739" text-anchor="middle" alignment-baseline="middle" style="font-family: Arial, sans-serif; font-size: 10px; fill: black; font-weight: bold;">Capital</text><text x="437.5" y="956.4433339198915" text-anchor="middle" alignment-baseline="middle" style="font-family: Arial, sans-serif; font-size: 10px; fill: black; font-weight: bold;">Central</text><text x="500" y="937.7095333265739" text-anchor="middle" alignment-baseline="middle" style="font-family: Arial, sans-serif; font-size: 10px; fill: black; font-weight: bold;">Finger Lakes</text><text x="500" y="895.3595333265739" text-anchor="middle" alignment-baseline="middle" style="font-family: Arial, sans-serif; font-size: 10px; fill: black; font-weight: bold;">Hudson Valley</text><text x="500" y="834.398908326574" text-anchor="middle" alignment-baseline="middle" style="font-family: Arial, sans-serif; font-size: 10px; fill: black; font-weight: bold;">Long Island</text><text x="562.5" y="1023.1867173380995" text-anchor="middle" alignment-baseline="middle" style="font-family: Arial, sans-serif; font-size: 10px; fill: black; font-weight: bold;">Mohawk</text><text x="500" y="405.3026583265739" text-anchor="middle" alignment-baseline="middle" style="font-family: Arial, sans-serif; font-size: 10px; fill: black; font-weight: bold;">New York City</text><text x="437.5" y="1036.9736464198916" text-anchor="middle" alignment-baseline="middle" style="font-family: Arial, sans-serif; font-size: 10px; fill: black; font-weight: bold;">North Country</text><text x="125" y="859.7979390777634" text-anchor="middle" alignment-baseline="middle" style="font-family: Arial, sans-serif; font-size: 10px; fill: black; font-weight: bold;">Southern Tier</text><text x="500" y="1017.2498458265738" text-anchor="middle" alignment-baseline="middle" style="font-family: Arial, sans-serif; font-size: 10px; fill: black; font-weight: bold;">Western</text></g></g><text x="4" y="4" style="font-family: Arial, sans-serif; font-size: 12px; fill: black; font-weight: bold; dominant-baseline: hanging;"/></g></g><g id="legend" transform="translate(900,50)"><g transform="translate(5,0)"><g class="legendColor" transform="translate(0,0)"><g class="legendCells" transform="translate(0,16)"><g class="cell" transform="translate(0, 0)"><rect class="swatch" height="15" width="15" style="fill: rgb(31, 119, 180);"/><text class="label" transform="translate( 20, 12.5)" font-family="&quot;Arial&quot;, sans-serif" font-size="10px"><tspan x="0" dy="0em">Capital</tspan></text></g><g class="cell" transform="translate(0, 21)"><rect class="swatch" height="15" width="15" style="fill: rgb(255, 127, 14);"/><text class="label" transform="translate( 20, 12.5)" font-family="&quot;Arial&quot;, sans-serif" font-size="10px"><tspan x="0" dy="0em">Central</tspan></text></g><g class="cell" transform="translate(0, 42)"><rect class="swatch" height="15" width="15" style="fill: rgb(44, 160, 44);"/><text class="label" transform="translate( 20, 12.5)" font-family="&quot;Arial&quot;, sans-serif" font-size="10px"><tspan x="0" dy="0em">Finger Lakes</tspan></text></g><g class="cell" transform="translate(0, 63)"><rect class="swatch" height="15" width="15" style="fill: rgb(214, 39, 40);"/><text class="label" transform="translate( 20, 12.5)" font-family="&quot;Arial&quot;, sans-serif" font-size="10px"><tspan x="0" dy="0em">Hudson Valley</tspan></text></g><g class="cell" transform="translate(0, 84)"><rect class="swatch" height="15" width="15" style="fill: rgb(148, 103, 189);"/><text class="label" transform="translate( 20, 12.5)" font-family="&quot;Arial&quot;, sans-serif" font-size="10px"><tspan x="0" dy="0em">Long Island</tspan></text></g><g class="cell" transform="translate(0, 105)"><rect class="swatch" height="15" width="15" style="fill: rgb(140, 86, 75);"/><text class="label" transform="translate( 20, 12.5)" font-family="&quot;Arial&quot;, sans-serif" font-size="10px"><tspan x="0" dy="0em">Mohawk</tspan></text></g><g class="cell" transform="translate(0, 126)"><rect class="swatch" height="15" width="15" style="fill: rgb(227, 119, 194);"/><text class="label" transform="translate( 20, 12.5)" font-family="&quot;Arial&quot;, sans-serif" font-size="10px"><tspan x="0" dy="0em">New York City</tspan></text></g><g class="cell" transform="translate(0, 147)"><rect class="swatch" height="15" width="15" style="fill: rgb(127, 127, 127);"/><text class="label" transform="translate( 20, 12.5)" font-family="&quot;Arial&quot;, sans-serif" font-size="10px"><tspan x="0" dy="0em">North Country</tspan></text></g><g class="cell" transform="translate(0, 168)"><rect class="swatch" height="15" width="15" style="fill: rgb(188, 189, 34);"/><text class="label" transform="translate( 20, 12.5)" font-family="&quot;Arial&quot;, sans-serif" font-size="10px"><tspan x="0" dy="0em">Southern Tier</tspan></text></g><g class="cell" transform="translate(0, 189)"><rect class="swatch" height="15" width="15" style="fill: rgb(23, 190, 207);"/><text class="label" transform="translate( 20, 12.5)" font-family="&quot;Arial&quot;, sans-serif" font-size="10px"><tspan x="0" dy="0em">Western</tspan></text></g></g><text class="legendTitle" font-family="&quot;Arial&quot;, sans-serif" font-size="12px" font-weight="bold"><tspan x="0" dy="0em">Colors</tspan></text></g></g></g></svg>