<svg xmlns="http://www.w3.org/2000/svg" width="805" height="600"><rect width="805" height="600" x="0" y="0" fill="#FFFFFF" id="backgorund"/><g transform="translate(30,30)" id="viz"><g><rect x="0" y="313.76011955904784" height="22.3362608841569" width="5" fill="black"><title>2009: 86172</title></rect><rect x="740" y="461.47679108987984" height="23.754115257228534" width="5" fill="black"><title>CHARTER SCHOOL: 91642</title></rect><rect x="0" y="275.0860453978914" height="25.20773999656791" width="5" fill="black"><title>2011: 97250</title></rect><rect x="0" y="233.42047995344035" height="28.199231279862488" width="5" fill="black"><title>2012: 108791</title></rect><rect x="0" y="145.95191003291643" height="30.019372670668787" width="5" fill="black"><title>2013: 115813</title></rect><rect x="0" y="189.43761686817373" height="30.51652892067807" width="5" fill="black"><title>2014: 117731</title></rect><rect x="0" y="349.5627146077932" height="36.06508298100232" width="5" fill="black"><title>2015: 139137</title></rect><rect x="0" y="0" height="38.3173200280993" width="5" fill="black"><title>2016: 147826</title></rect><rect x="0" y="399.0941317533841" height="39.36788013304624" width="5" fill="black"><title>2017: 151879</title></rect><rect x="0" y="451.9283460510189" height="38.26625653422445" width="5" fill="black"><title>2018: 147629</title></rect><rect x="0" y="503.6609367498319" height="36.339063250168124" width="5" fill="black"><title>2019: 140194</title></rect><rect x="0" y="99.81375277724918" height="32.67182309107871" width="5" fill="black"><title>2020: 126046</title></rect><rect x="0" y="51.783654192687834" height="34.5637644199728" width="5" fill="black"><title>2021: 133345</title></rect><rect x="740" y="310.702708247795" height="68.53187447992394" width="5" fill="black"><title>NYC: 264392</title></rect><rect x="740" y="392.7009168923074" height="55.309540032983875" width="5" fill="black"><title>NYC DISTRICT: 213381</title></rect><rect x="740" y="52.96157966381666" height="244.2747944193898" width="5" fill="black"><title>SCHOOL DISTRICT: 942398</title></rect><rect x="740" y="498.6972405116969" height="0" width="5" fill="black"><title>SPECIAL ACT: 0</title></rect></g><g class="links" fill="none" stroke-opacity="0.8"><path d="M5,335.95887189751664C372.5,335.95887189751664,372.5,474.43823514806394,740,474.43823514806394" stroke="rgb(247, 251, 255)" style="stroke-width: 1; mix-blend-mode: multiply;"><title>2009 → CHARTER SCHOOL: 1061</title></path><path d="M5,300.0611484109435C372.5,300.0611484109435,372.5,474.06808961885974,740,474.06808961885974" stroke="rgb(214, 230, 244)" style="stroke-width: 1; mix-blend-mode: multiply;"><title>2011 → CHARTER SCHOOL: 1795</title></path><path d="M5,261.2561754456916C372.5,261.2561754456916,372.5,473.47191684773287,740,473.47191684773287" stroke="rgb(195, 219, 238)" style="stroke-width: 1; mix-blend-mode: multiply;"><title>2012 → CHARTER SCHOOL: 2805</title></path><path d="M5,175.4589629287448C372.5,175.4589629287448,372.5,471.27074329451074,740,471.27074329451074" stroke="rgb(171, 207, 230)" style="stroke-width: 1.02464; mix-blend-mode: multiply;"><title>2013 → CHARTER SCHOOL: 3953</title></path><path d="M5,219.29148679346656C372.5,219.29148679346656,372.5,472.44572206473623,740,472.44572206473623" stroke="rgb(141, 192, 221)" style="stroke-width: 1.32532; mix-blend-mode: multiply;"><title>2014 → CHARTER SCHOOL: 5113</title></path><path d="M5,384.7848611315325C372.5,384.7848611315325,372.5,475.4186801510154,740,475.4186801510154" stroke="rgb(109, 174, 213)" style="stroke-width: 1.68587; mix-blend-mode: multiply;"><title>2015 → CHARTER SCHOOL: 6504</title></path><path d="M5,37.29553173949817C372.5,37.29553173949817,372.5,462.4985793784811,740,462.4985793784811" stroke="rgb(80, 155, 203)" style="stroke-width: 2.04358; mix-blend-mode: multiply;"><title>2016 → CHARTER SCHOOL: 7884</title></path><path d="M5,437.15652312043846C372.5,437.15652312043846,372.5,477.56710537427034,740,477.56710537427034" stroke="rgb(55, 135, 192)" style="stroke-width: 2.61098; mix-blend-mode: multiply;"><title>2017 → CHARTER SCHOOL: 10073</title></path><path d="M5,488.7033930407677C372.5,488.7033930407677,372.5,480.3638036847377,740,480.3638036847377" stroke="rgb(34, 113, 180)" style="stroke-width: 2.98242; mix-blend-mode: multiply;"><title>2018 → CHARTER SCHOOL: 11506</title></path><path d="M5,538.3120534410525C372.5,538.3120534410525,372.5,483.54295978816083,740,483.54295978816083" stroke="rgb(18, 92, 163)" style="stroke-width: 3.37589; mix-blend-mode: multiply;"><title>2019 → CHARTER SCHOOL: 13024</title></path><path d="M5,130.69200304666987C372.5,130.69200304666987,372.5,468.964850698012,740,468.964850698012" stroke="rgb(9, 70, 138)" style="stroke-width: 3.58715; mix-blend-mode: multiply;"><title>2020 → CHARTER SCHOOL: 13839</title></path><path d="M5,84.5219635080249C372.5,84.5219635080249,372.5,465.3458227717183,740,465.3458227717183" stroke="rgb(8, 48, 107)" style="stroke-width: 3.65091; mix-blend-mode: multiply;"><title>2021 → CHARTER SCHOOL: 14085</title></path><path d="M5,164.13608677172604C372.5,164.13608677172604,372.5,321.5132646299735,740,321.5132646299735" stroke="rgb(171, 207, 230)" style="stroke-width: 21.6211; mix-blend-mode: multiply;"><title>2013 → NYC: 83413</title></path><path d="M5,208.02952394132362C372.5,208.02952394132362,372.5,342.92312486890944,740,342.92312486890944" stroke="rgb(141, 192, 221)" style="stroke-width: 21.1986; mix-blend-mode: multiply;"><title>2014 → NYC: 81783</title></path><path d="M5,371.08584767324345C372.5,371.08584767324345,372.5,366.378505726693,740,366.378505726693" stroke="rgb(109, 174, 213)" style="stroke-width: 25.7122; mix-blend-mode: multiply;"><title>2015 → NYC: 99196</title></path><path d="M5,327.2778187332486C372.5,327.2778187332486,372.5,439.46691230671144,740,439.46691230671144" stroke="rgb(247, 251, 255)" style="stroke-width: 17.0871; mix-blend-mode: multiply;"><title>2009 → NYC DISTRICT: 65921</title></path><path d="M5,290.81528634742074C372.5,290.81528634742074,372.5,421.91014260812494,740,421.91014260812494" stroke="rgb(214, 230, 244)" style="stroke-width: 18.0265; mix-blend-mode: multiply;"><title>2011 → NYC DISTRICT: 69545</title></path><path d="M5,250.79463934017505C372.5,250.79463934017505,372.5,402.7989172102127,740,402.7989172102127" stroke="rgb(195, 219, 238)" style="stroke-width: 20.196; mix-blend-mode: multiply;"><title>2012 → NYC DISTRICT: 77915</title></path><path d="M5,316.2471968368583C372.5,316.2471968368583,372.5,181.07833056236342,740,181.07833056236342" stroke="rgb(247, 251, 255)" style="stroke-width: 4.97415; mix-blend-mode: multiply;"><title>2009 → SCHOOL DISTRICT: 19190</title></path><path d="M5,278.44405333265274C372.5,278.44405333265274,372.5,175.2332453497918,740,175.2332453497918" stroke="rgb(214, 230, 244)" style="stroke-width: 6.71602; mix-blend-mode: multiply;"><title>2011 → SCHOOL DISTRICT: 25910</title></path><path d="M5,237.05855948785504C372.5,237.05855948785504,372.5,168.23715788061574,740,168.23715788061574" stroke="rgb(195, 219, 238)" style="stroke-width: 7.27616; mix-blend-mode: multiply;"><title>2012 → SCHOOL DISTRICT: 28071</title></path><path d="M5,149.63872021123197C372.5,149.63872021123197,372.5,152.91966495149296,740,152.91966495149296" stroke="rgb(171, 207, 230)" style="stroke-width: 7.37362; mix-blend-mode: multiply;"><title>2013 → SCHOOL DISTRICT: 28447</title></path><path d="M5,193.43391847637005C372.5,193.43391847637005,372.5,160.60277673800485,740,160.60277673800485" stroke="rgb(141, 192, 221)" style="stroke-width: 7.9926; mix-blend-mode: multiply;"><title>2014 → SCHOOL DISTRICT: 30835</title></path><path d="M5,353.8962426400053C372.5,353.8962426400053,372.5,187.89893587238612,740,187.89893587238612" stroke="rgb(109, 174, 213)" style="stroke-width: 8.66706; mix-blend-mode: multiply;"><title>2015 → SCHOOL DISTRICT: 33437</title></path><path d="M5,18.136871725448373C372.5,18.136871725448373,372.5,71.09845138926504,740,71.09845138926504" stroke="rgb(80, 155, 203)" style="stroke-width: 36.2737; mix-blend-mode: multiply;"><title>2016 → SCHOOL DISTRICT: 139942</title></path><path d="M5,417.47258305391534C372.5,417.47258305391534,372.5,210.6109152051294,740,210.6109152051294" stroke="rgb(55, 135, 192)" style="stroke-width: 36.7569; mix-blend-mode: multiply;"><title>2017 → SCHOOL DISTRICT: 141806</title></path><path d="M5,469.57026477365565C372.5,469.57026477365565,372.5,246.6312852282972,740,246.6312852282972" stroke="rgb(34, 113, 180)" style="stroke-width: 35.2838; mix-blend-mode: multiply;"><title>2018 → SCHOOL DISTRICT: 136123</title></path><path d="M5,520.1425218159684C372.5,520.1425218159684,372.5,280.7547890170704,740,280.7547890170704" stroke="rgb(18, 92, 163)" style="stroke-width: 32.9632; mix-blend-mode: multiply;"><title>2019 → SCHOOL DISTRICT: 127170</title></path><path d="M5,114.35609150113036C372.5,114.35609150113036,372.5,134.69051604929606,740,134.69051604929606" stroke="rgb(9, 70, 138)" style="stroke-width: 29.0847; mix-blend-mode: multiply;"><title>2020 → SCHOOL DISTRICT: 112207</title></path><path d="M5,67.24008129803842C372.5,67.24008129803842,372.5,104.69175022006414,740,104.69175022006414" stroke="rgb(8, 48, 107)" style="stroke-width: 30.9129; mix-blend-mode: multiply;"><title>2021 → SCHOOL DISTRICT: 119260</title></path><path d="M5,385.6277975887957C372.5,385.6277975887957,372.5,498.6972405116969,740,498.6972405116969" stroke="rgb(109, 174, 213)" style="stroke-width: 1; mix-blend-mode: multiply;"><title>2015 → SPECIAL ACT: 0</title></path><path d="M5,438.46201188643033C372.5,438.46201188643033,372.5,498.6972405116969,740,498.6972405116969" stroke="rgb(55, 135, 192)" style="stroke-width: 1; mix-blend-mode: multiply;"><title>2017 → SPECIAL ACT: 0</title></path><path d="M5,490.19460258524333C372.5,490.19460258524333,372.5,498.6972405116969,740,498.6972405116969" stroke="rgb(34, 113, 180)" style="stroke-width: 1; mix-blend-mode: multiply;"><title>2018 → SPECIAL ACT: 0</title></path><path d="M5,540C372.5,540,372.5,498.6972405116969,740,498.6972405116969" stroke="rgb(18, 92, 163)" style="stroke-width: 1; mix-blend-mode: multiply;"><title>2019 → SPECIAL ACT: 0</title></path></g><g><text x="9" y="324.9282500011263" text-anchor="start" transform="translate(0,-5)"><tspan alignment-baseline="middle" style="font-family: Arial, sans-serif; font-size: 10px; fill: black; font-weight: bold;">2009</tspan><tspan alignment-baseline="middle" x="9" dy="12" style="font-family: Arial, sans-serif; font-size: 10px; fill: black; font-weight: normal;">86172</tspan></text><text x="736" y="473.3538487184941" text-anchor="end" transform="translate(0,-5)"><tspan alignment-baseline="middle" style="font-family: Arial, sans-serif; font-size: 10px; fill: black; font-weight: bold;">CHARTER SCHOOL</tspan><tspan alignment-baseline="middle" x="736" dy="12" style="font-family: Arial, sans-serif; font-size: 10px; fill: black; font-weight: normal;">91642</tspan></text><text x="9" y="287.68991539617537" text-anchor="start" transform="translate(0,-5)"><tspan alignment-baseline="middle" style="font-family: Arial, sans-serif; font-size: 10px; fill: black; font-weight: bold;">2011</tspan><tspan alignment-baseline="middle" x="9" dy="12" style="font-family: Arial, sans-serif; font-size: 10px; fill: black; font-weight: normal;">97250</tspan></text><text x="9" y="247.5200955933716" text-anchor="start" transform="translate(0,-5)"><tspan alignment-baseline="middle" style="font-family: Arial, sans-serif; font-size: 10px; fill: black; font-weight: bold;">2012</tspan><tspan alignment-baseline="middle" x="9" dy="12" style="font-family: Arial, sans-serif; font-size: 10px; fill: black; font-weight: normal;">108791</tspan></text><text x="9" y="160.9615963682508" text-anchor="start" transform="translate(0,-5)"><tspan alignment-baseline="middle" style="font-family: Arial, sans-serif; font-size: 10px; fill: black; font-weight: bold;">2013</tspan><tspan alignment-baseline="middle" x="9" dy="12" style="font-family: Arial, sans-serif; font-size: 10px; fill: black; font-weight: normal;">115813</tspan></text><text x="9" y="204.69588132851277" text-anchor="start" transform="translate(0,-5)"><tspan alignment-baseline="middle" style="font-family: Arial, sans-serif; font-size: 10px; fill: black; font-weight: bold;">2014</tspan><tspan alignment-baseline="middle" x="9" dy="12" style="font-family: Arial, sans-serif; font-size: 10px; fill: black; font-weight: normal;">117731</tspan></text><text x="9" y="367.5952560982944" text-anchor="start" transform="translate(0,-5)"><tspan alignment-baseline="middle" style="font-family: Arial, sans-serif; font-size: 10px; fill: black; font-weight: bold;">2015</tspan><tspan alignment-baseline="middle" x="9" dy="12" style="font-family: Arial, sans-serif; font-size: 10px; fill: black; font-weight: normal;">139137</tspan></text><text x="9" y="19.15866001404965" text-anchor="start" transform="translate(0,-5)"><tspan alignment-baseline="middle" style="font-family: Arial, sans-serif; font-size: 10px; fill: black; font-weight: bold;">2016</tspan><tspan alignment-baseline="middle" x="9" dy="12" style="font-family: Arial, sans-serif; font-size: 10px; fill: black; font-weight: normal;">147826</tspan></text><text x="9" y="418.7780718199072" text-anchor="start" transform="translate(0,-5)"><tspan alignment-baseline="middle" style="font-family: Arial, sans-serif; font-size: 10px; fill: black; font-weight: bold;">2017</tspan><tspan alignment-baseline="middle" x="9" dy="12" style="font-family: Arial, sans-serif; font-size: 10px; fill: black; font-weight: normal;">151879</tspan></text><text x="9" y="471.0614743181311" text-anchor="start" transform="translate(0,-5)"><tspan alignment-baseline="middle" style="font-family: Arial, sans-serif; font-size: 10px; fill: black; font-weight: bold;">2018</tspan><tspan alignment-baseline="middle" x="9" dy="12" style="font-family: Arial, sans-serif; font-size: 10px; fill: black; font-weight: normal;">147629</tspan></text><text x="9" y="521.8304683749159" text-anchor="start" transform="translate(0,-5)"><tspan alignment-baseline="middle" style="font-family: Arial, sans-serif; font-size: 10px; fill: black; font-weight: bold;">2019</tspan><tspan alignment-baseline="middle" x="9" dy="12" style="font-family: Arial, sans-serif; font-size: 10px; fill: black; font-weight: normal;">140194</tspan></text><text x="9" y="116.14966432278854" text-anchor="start" transform="translate(0,-5)"><tspan alignment-baseline="middle" style="font-family: Arial, sans-serif; font-size: 10px; fill: black; font-weight: bold;">2020</tspan><tspan alignment-baseline="middle" x="9" dy="12" style="font-family: Arial, sans-serif; font-size: 10px; fill: black; font-weight: normal;">126046</tspan></text><text x="9" y="69.06553640267424" text-anchor="start" transform="translate(0,-5)"><tspan alignment-baseline="middle" style="font-family: Arial, sans-serif; font-size: 10px; fill: black; font-weight: bold;">2021</tspan><tspan alignment-baseline="middle" x="9" dy="12" style="font-family: Arial, sans-serif; font-size: 10px; fill: black; font-weight: normal;">133345</tspan></text><text x="736" y="344.96864548775693" text-anchor="end" transform="translate(0,-5)"><tspan alignment-baseline="middle" style="font-family: Arial, sans-serif; font-size: 10px; fill: black; font-weight: bold;">NYC</tspan><tspan alignment-baseline="middle" x="736" dy="12" style="font-family: Arial, sans-serif; font-size: 10px; fill: black; font-weight: normal;">264392</tspan></text><text x="736" y="420.3556869087994" text-anchor="end" transform="translate(0,-5)"><tspan alignment-baseline="middle" style="font-family: Arial, sans-serif; font-size: 10px; fill: black; font-weight: bold;">NYC DISTRICT</tspan><tspan alignment-baseline="middle" x="736" dy="12" style="font-family: Arial, sans-serif; font-size: 10px; fill: black; font-weight: normal;">213381</tspan></text><text x="736" y="175.09897687351156" text-anchor="end" transform="translate(0,-5)"><tspan alignment-baseline="middle" style="font-family: Arial, sans-serif; font-size: 10px; fill: black; font-weight: bold;">SCHOOL DISTRICT</tspan><tspan alignment-baseline="middle" x="736" dy="12" style="font-family: Arial, sans-serif; font-size: 10px; fill: black; font-weight: normal;">942398</tspan></text><text x="736" y="498.6972405116969" text-anchor="end" transform="translate(0,-5)"><tspan alignment-baseline="middle" style="font-family: Arial, sans-serif; font-size: 10px; fill: black; font-weight: bold;">SPECIAL ACT</tspan><tspan alignment-baseline="middle" x="736" dy="12" style="font-family: Arial, sans-serif; font-size: 10px; fill: black; font-weight: normal;">0</tspan></text></g></g></svg>