<svg xmlns="http://www.w3.org/2000/svg" width="1005" height="600"><rect width="1005" height="600" x="0" y="0" fill="#FFFFFF" id="backgorund"/><g id="viz"><g transform="translate(0,0)"><g transform="translate(70,50)"><g><path fill="#bd3f75" d="M0,496.684375L19.027777777777775,496.3020833333333C38.05555555555555,495.9197916666667,76.1111111111111,495.15520833333335,104.65277777777777,494.246875C133.19444444444443,493.3385416666667,152.2222222222222,492.2864583333333,171.25,491.16249999999997C190.27777777777774,490.0385416666666,209.30555555555554,488.8427083333333,228.33333333333334,487.64062499999994C247.3611111111111,486.43854166666665,266.3888888888889,485.23020833333334,285.4166666666667,483.9015625C304.44444444444446,482.5729166666667,323.47222222222223,481.12395833333335,342.5,479.6807291666667C361.5277777777778,478.2375,380.5555555555556,476.8,399.5833333333333,474.94114583333334C418.61111111111114,473.08229166666666,437.63888888888886,470.8020833333333,456.6666666666667,468.9156249999999C475.6944444444444,467.02916666666664,494.7222222222222,465.5364583333333,513.75,463.99947916666673C532.7777777777778,462.46250000000003,551.8055555555555,460.88124999999997,570.8333333333334,459.6661458333333C589.8611111111112,458.4510416666667,608.8888888888888,457.60208333333327,627.9166666666666,457.0494791666667C646.9444444444445,456.496875,665.9722222222222,456.24062499999997,675.4861111111111,456.1125L685,455.984375L685,500L675.4861111111111,500C665.9722222222222,500,646.9444444444445,500,627.9166666666666,500C608.8888888888888,500,589.8611111111112,500,570.8333333333334,500C551.8055555555555,500,532.7777777777778,500,513.75,500C494.7222222222222,500,475.6944444444444,500,456.6666666666667,500C437.63888888888886,500,418.61111111111114,500,399.5833333333333,500C380.5555555555556,500,361.5277777777778,500,342.5,500C323.47222222222223,500,304.44444444444446,500,285.4166666666667,500C266.3888888888889,500,247.3611111111111,500,228.33333333333334,500C209.30555555555554,500,190.27777777777774,500,171.25,500C152.2222222222222,500,133.19444444444443,500,104.65277777777777,500C76.1111111111111,500,38.05555555555555,500,19.027777777777775,500L0,500Z"><title>CHARTER SCHOOL</title></path><path fill="#594d8f" d="M0,432.715625L19.027777777777775,428.8333333333333C38.05555555555555,424.9510416666667,76.1111111111111,417.18645833333335,104.65277777777777,411.6526041666666C133.19444444444443,406.11875000000003,152.2222222222222,402.815625,171.25,400.3703125C190.27777777777774,397.925,209.30555555555554,396.33750000000003,228.33333333333334,393.6958333333334C247.3611111111111,391.0541666666666,266.3888888888889,387.35833333333335,285.4166666666667,383.43072916666665C304.44444444444446,379.503125,323.47222222222223,375.34375,342.5,317.07395833333334C361.5277777777778,258.8041666666666,380.5555555555556,146.42395833333333,399.5833333333333,88.12291666666665C418.61111111111114,29.82187499999998,437.63888888888886,25.599999999999977,456.6666666666667,25.702604166666646C475.6944444444444,25.805208333333315,494.7222222222222,30.232291666666654,513.75,36.31822916666667C532.7777777777778,42.404166666666676,551.8055555555555,50.14895833333335,570.8333333333334,61.390104166666696C589.8611111111112,72.63125000000002,608.8888888888888,87.36875000000002,627.9166666666666,90.93593750000001C646.9444444444445,94.50312500000001,665.9722222222222,86.89999999999999,675.4861111111111,83.09843749999999L685,79.29687499999999L685,451.984375L675.4861111111111,452.1125C665.9722222222222,452.24062499999997,646.9444444444445,452.496875,627.9166666666666,453.0494791666667C608.8888888888888,453.60208333333327,589.8611111111112,454.4510416666667,570.8333333333334,455.6661458333333C551.8055555555555,456.88124999999997,532.7777777777778,458.46250000000003,513.75,459.9994791666666C494.7222222222222,461.5364583333333,475.6944444444444,463.02916666666664,456.6666666666667,464.91562500000003C437.63888888888886,466.8020833333333,418.61111111111114,469.08229166666666,399.5833333333333,470.9411458333334C380.5555555555556,472.8,361.5277777777778,474.2375,342.5,475.68072916666665C323.47222222222223,477.12395833333335,304.44444444444446,478.5729166666667,285.4166666666667,479.90156249999995C266.3888888888889,481.23020833333334,247.3611111111111,482.43854166666665,228.33333333333334,483.640625C209.30555555555554,484.8427083333333,190.27777777777774,486.0385416666666,171.25,487.16249999999997C152.2222222222222,488.2864583333333,133.19444444444443,489.3385416666667,104.65277777777777,490.246875C76.1111111111111,491.15520833333335,38.05555555555555,491.9197916666667,19.027777777777775,492.3020833333333L0,492.684375Z"><title>SCHOOL DISTRICT</title></path></g><g id="xAxis" transform="translate(0,500)" fill="none" font-size="10" font-family="sans-serif" text-anchor="middle"><path class="domain" stroke="currentColor" d="M0.5,0.5H685.5"/><g class="tick" opacity="1" transform="translate(0.5,0)"><line stroke="currentColor" y2="6"/><text fill="currentColor" y="9" dy="0.71em">2,009</text></g><g class="tick" opacity="1" transform="translate(57.58333333333333,0)"><line stroke="currentColor" y2="6"/><text fill="currentColor" y="9" dy="0.71em">2,010</text></g><g class="tick" opacity="1" transform="translate(114.66666666666666,0)"><line stroke="currentColor" y2="6"/><text fill="currentColor" y="9" dy="0.71em">2,011</text></g><g class="tick" opacity="1" transform="translate(171.75,0)"><line stroke="currentColor" y2="6"/><text fill="currentColor" y="9" dy="0.71em">2,012</text></g><g class="tick" opacity="1" transform="translate(228.83333333333331,0)"><line stroke="currentColor" y2="6"/><text fill="currentColor" y="9" dy="0.71em">2,013</text></g><g class="tick" opacity="1" transform="translate(285.9166666666667,0)"><line stroke="currentColor" y2="6"/><text fill="currentColor" y="9" dy="0.71em">2,014</text></g><g class="tick" opacity="1" transform="translate(343,0)"><line stroke="currentColor" y2="6"/><text fill="currentColor" y="9" dy="0.71em">2,015</text></g><g class="tick" opacity="1" transform="translate(400.08333333333337,0)"><line stroke="currentColor" y2="6"/><text fill="currentColor" y="9" dy="0.71em">2,016</text></g><g class="tick" opacity="1" transform="translate(457.16666666666663,0)"><line stroke="currentColor" y2="6"/><text fill="currentColor" y="9" dy="0.71em">2,017</text></g><g class="tick" opacity="1" transform="translate(514.25,0)"><line stroke="currentColor" y2="6"/><text fill="currentColor" y="9" dy="0.71em">2,018</text></g><g class="tick" opacity="1" transform="translate(571.3333333333334,0)"><line stroke="currentColor" y2="6"/><text fill="currentColor" y="9" dy="0.71em">2,019</text></g><g class="tick" opacity="1" transform="translate(628.4166666666666,0)"><line stroke="currentColor" y2="6"/><text fill="currentColor" y="9" dy="0.71em">2,020</text></g><g class="tick" opacity="1" transform="translate(685.5,0)"><line stroke="currentColor" y2="6"/><text fill="currentColor" y="9" dy="0.71em">2,021</text></g></g><g id="yAxis" fill="none" font-size="10" font-family="sans-serif" text-anchor="end"><path class="domain" stroke="currentColor" d="M0.5,500.5V0.5"/><g class="tick" opacity="1" transform="translate(0,500.5)"><line stroke="currentColor" x2="-6"/><text fill="currentColor" x="-9" dy="0.32em">0</text></g><g class="tick" opacity="1" transform="translate(0,438)"><line stroke="currentColor" x2="-6"/><text fill="currentColor" x="-9" dy="0.32em">20,000</text></g><g class="tick" opacity="1" transform="translate(0,375.5)"><line stroke="currentColor" x2="-6"/><text fill="currentColor" x="-9" dy="0.32em">40,000</text></g><g class="tick" opacity="1" transform="translate(0,313)"><line stroke="currentColor" x2="-6"/><text fill="currentColor" x="-9" dy="0.32em">60,000</text></g><g class="tick" opacity="1" transform="translate(0,250.5)"><line stroke="currentColor" x2="-6"/><text fill="currentColor" x="-9" dy="0.32em">80,000</text></g><g class="tick" opacity="1" transform="translate(0,188)"><line stroke="currentColor" x2="-6"/><text fill="currentColor" x="-9" dy="0.32em">100,000</text></g><g class="tick" opacity="1" transform="translate(0,125.5)"><line stroke="currentColor" x2="-6"/><text fill="currentColor" x="-9" dy="0.32em">120,000</text></g><g class="tick" opacity="1" transform="translate(0,63)"><line stroke="currentColor" x2="-6"/><text fill="currentColor" x="-9" dy="0.32em">140,000</text></g><g class="tick" opacity="1" transform="translate(0,0.5)"><line stroke="currentColor" x2="-6"/><text fill="currentColor" x="-9" dy="0.32em">160,000</text></g></g><text y="496" x="685" text-anchor="end" style="font-family: Arial, sans-serif; font-size: 12px; fill: rgb(123, 123, 123); font-weight: bold;">YEAR</text><text x="4" text-anchor="start" dominant-baseline="hanging" style="font-family: Arial, sans-serif; font-size: 12px; fill: rgb(123, 123, 123); font-weight: bold;">TOTAL.HOMELESS</text><g id="labels"><text x="685" y="477.9921875" text-anchor="end" alignment-baseline="middle" style="font-family: Arial, sans-serif; font-size: 10px; fill: black; font-weight: bold;">CHARTER SCHOOL</text><text x="456.66666666666663" y="246.95" text-anchor="middle" alignment-baseline="middle" style="font-family: Arial, sans-serif; font-size: 10px; fill: black; font-weight: bold;">SCHOOL DISTRICT</text></g></g><text x="4" y="4" style="font-family: Arial, sans-serif; font-size: 12px; fill: black; font-weight: bold; dominant-baseline: hanging;"/></g></g><g id="legend" transform="translate(805,50)"><g transform="translate(5,0)"><g class="legendColor" transform="translate(0,0)"><g class="legendCells" transform="translate(0,16)"><g class="cell" transform="translate(0, 0)"><rect class="swatch" height="15" width="15" style="fill: rgb(189, 63, 117);"/><text class="label" transform="translate( 20, 12.5)" font-family="&quot;Arial&quot;, sans-serif" font-size="10px"><tspan x="0" dy="0em">CHARTER SCHOOL</tspan></text></g><g class="cell" transform="translate(0, 21)"><rect class="swatch" height="15" width="15" style="fill: rgb(89, 77, 143);"/><text class="label" transform="translate( 20, 12.5)" font-family="&quot;Arial&quot;, sans-serif" font-size="10px"><tspan x="0" dy="0em">SCHOOL DISTRICT</tspan></text></g></g><text class="legendTitle" font-family="&quot;Arial&quot;, sans-serif" font-size="12px" font-weight="bold"><tspan x="0" dy="0em">Colors</tspan></text></g></g></g></svg>