<svg xmlns="http://www.w3.org/2000/svg" width="1200" height="600"><rect width="1200" height="600" x="0" y="0" fill="#FFFFFF" id="backgorund"/><g id="viz"><g transform="translate(0,0)"><g transform="translate(100,50)"><g><path fill="#1f77b4" d="M0,451.315625C0,451.315625,106.25,449.52604166666663,141.66666666666666,449.99999999999994C177.08333333333331,450.47395833333326,188.88888888888889,449.93125,212.5,454.159375C236.11111111111111,458.38750000000005,259.7222222222222,471.9151041666667,283.3333333333333,475.36875000000003C306.94444444444446,478.82239583333336,330.55555555555554,475.1838541666666,354.1666666666667,474.88124999999997C377.7777777777778,474.5786458333333,401.3888888888889,476.6776041666667,425,473.553125C448.6111111111111,470.42864583333335,472.2222222222223,459.4078125,495.83333333333337,456.134375C519.4444444444445,452.8609375,543.0555555555555,455.93437500000005,566.6666666666666,453.9125C590.2777777777777,451.890625,613.8888888888889,443.04427083333337,637.5,444.003125C661.1111111111111,444.96197916666665,684.7222222222223,457.94374999999997,708.3333333333334,459.665625C731.9444444444445,461.3875,755.5555555555555,454.54791666666665,779.1666666666666,454.334375C802.7777777777777,454.1208333333334,850,458.38437500000003,850,458.38437500000003L850,467.83125C850,467.83125,802.7777777777777,461.86718749999994,779.1666666666666,462.14374999999995C755.5555555555555,462.42031249999997,731.9444444444445,470.67864583333335,708.3333333333334,469.490625C684.7222222222223,468.3026041666667,661.1111111111111,455.7171875,637.5,455.015625C613.8888888888889,454.3140625,590.2777777777777,463.36614583333335,566.6666666666666,465.28125C543.0555555555555,467.19635416666665,519.4444444444445,463.5666666666667,495.83333333333337,466.50625C472.2222222222223,469.4458333333333,448.6111111111111,480.1036458333333,425,482.91875C401.3888888888889,485.7338541666667,377.7777777777778,483.3432291666667,354.1666666666667,483.396875C330.55555555555554,483.45052083333337,306.94444444444446,486.7098958333333,283.3333333333333,483.24062499999997C259.7222222222222,479.77135416666664,236.11111111111111,466.59114583333337,212.5,462.58125C188.88888888888889,458.57135416666665,177.08333333333331,459.77656249999995,141.66666666666666,459.18125C106.25,458.5859375,0,459.00937500000003,0,459.00937500000003Z"><title>Capital</title></path><path fill="#ff7f0e" d="M0,471.584375C0,471.584375,106.25,463.1817708333333,141.66666666666666,462.18125C177.08333333333331,461.18072916666665,188.88888888888889,467.415625,212.5,465.58125C236.11111111111111,463.74687500000005,259.7222222222222,454.3822916666667,283.3333333333333,451.175C306.94444444444446,447.96770833333335,330.55555555555554,447.7057291666667,354.1666666666667,446.33750000000003C377.7777777777778,444.9692708333334,401.3888888888889,444.09166666666664,425,442.965625C448.6111111111111,441.83958333333334,472.2222222222223,435.3619791666667,495.83333333333337,439.58125C519.4444444444445,443.80052083333334,543.0555555555555,465.2088541666667,566.6666666666666,468.28125C590.2777777777777,471.3536458333333,613.8888888888889,461.66041666666666,637.5,458.015625C661.1111111111111,454.37083333333334,684.7222222222223,445.2244791666667,708.3333333333334,446.4125C731.9444444444445,447.60052083333335,755.5555555555555,465.3114583333333,779.1666666666666,465.14374999999995C802.7777777777777,464.9760416666666,850,445.40625,850,445.40625L850,455.38437500000003C850,455.38437500000003,802.7777777777777,472.08333333333337,779.1666666666666,472.296875C755.5555555555555,472.51041666666663,731.9444444444445,457.2598958333333,708.3333333333334,456.665625C684.7222222222223,456.07135416666665,661.1111111111111,464.90208333333334,637.5,468.73125C613.8888888888889,472.56041666666664,590.2777777777777,482.2401041666667,566.6666666666666,479.640625C543.0555555555555,477.0411458333333,519.4444444444445,457.0932291666667,495.83333333333337,453.134375C472.2222222222223,449.1755208333333,448.6111111111111,455.1328125,425,455.8875C401.3888888888889,456.6421875,377.7777777777778,456.88541666666663,354.1666666666667,457.66249999999997C330.55555555555554,458.4395833333333,306.94444444444446,458.0135416666667,283.3333333333333,460.55C259.7222222222222,463.0864583333333,236.11111111111111,471.3947916666666,212.5,472.88124999999997C188.88888888888889,474.3677083333333,177.08333333333331,468.6890625,141.66666666666666,469.46875C106.25,470.2484375,0,477.55937500000005,0,477.55937500000005Z"><title>Central</title></path><path fill="#2ca02c" d="M0,462.00937500000003C0,462.00937500000003,106.25,439.7328125,141.66666666666666,435.96875C177.08333333333331,432.2046875,188.88888888888889,439.41145833333326,212.5,439.42499999999995C236.11111111111111,439.43854166666665,259.7222222222222,437.54322916666666,283.3333333333333,436.05C306.94444444444446,434.55677083333336,330.55555555555554,432.11197916666663,354.1666666666667,430.465625C377.7777777777778,428.81927083333335,401.3888888888889,427.54010416666665,425,426.171875C448.6111111111111,424.80364583333335,472.2222222222223,423.10833333333335,495.83333333333337,422.25625C519.4444444444445,421.4041666666667,543.0555555555555,420.31250000000006,566.6666666666666,421.05937500000005C590.2777777777777,421.80625000000003,613.8888888888889,425.1557291666667,637.5,426.7375C661.1111111111111,428.31927083333335,684.7222222222223,427.8885416666667,708.3333333333334,430.55C731.9444444444445,433.2114583333333,755.5555555555555,442.5473958333333,779.1666666666666,442.70625C802.7777777777777,442.8651041666667,850,431.503125,850,431.503125L850,442.40625C850,442.40625,802.7777777777777,451.1666666666667,779.1666666666666,451.334375C755.5555555555555,451.50208333333336,731.9444444444445,445.13437500000003,708.3333333333334,443.4125C684.7222222222223,441.690625,661.1111111111111,442.24427083333336,637.5,441.003125C613.8888888888889,439.76197916666666,590.2777777777777,436.7026041666667,566.6666666666666,435.965625C543.0555555555555,435.2286458333333,519.4444444444445,435.9145833333333,495.83333333333337,436.58125C472.2222222222223,437.2479166666667,448.6111111111111,438.83958333333334,425,439.965625C401.3888888888889,441.09166666666664,377.7777777777778,441.9692708333334,354.1666666666667,443.33750000000003C330.55555555555554,444.7057291666667,306.94444444444446,446.87135416666666,283.3333333333333,448.175C259.7222222222222,449.47864583333336,236.11111111111111,451.35520833333334,212.5,451.159375C188.88888888888889,450.9635416666667,177.08333333333331,444.0958333333333,141.66666666666666,446.99999999999994C106.25,449.9041666666666,0,468.584375,0,468.584375Z"><title>Finger Lakes</title></path><path fill="#d62728" d="M0,415.72499999999997C0,415.72499999999997,106.25,394.621875,141.66666666666666,394.671875C177.08333333333331,394.721875,188.88888888888889,413.040625,212.5,416.025C236.11111111111111,419.009375,259.7222222222222,414.08229166666666,283.3333333333333,412.578125C306.94444444444446,411.07395833333334,330.55555555555554,408.78802083333335,354.1666666666667,407C377.7777777777778,405.21197916666665,401.3888888888889,403.45000000000005,425,401.85C448.6111111111111,400.25,472.2222222222223,398.63072916666664,495.83333333333337,397.4C519.4444444444445,396.1692708333333,543.0555555555555,393.98541666666665,566.6666666666666,394.465625C590.2777777777777,394.9458333333333,613.8888888888889,398.396875,637.5,400.28125C661.1111111111111,402.165625,684.7222222222223,402.3989583333333,708.3333333333334,405.771875C731.9444444444445,409.1447916666667,755.5555555555555,423.9557291666667,779.1666666666666,420.51875C802.7777777777777,417.08177083333334,850,385.15000000000003,850,385.15000000000003L850,406.715625C850,406.715625,802.7777777777777,436.2338541666667,779.1666666666666,439.70625C755.5555555555555,443.17864583333335,731.9444444444445,430.2114583333333,708.3333333333334,427.55C684.7222222222223,424.8885416666667,661.1111111111111,425.31927083333335,637.5,423.7375C613.8888888888889,422.1557291666667,590.2777777777777,418.80625000000003,566.6666666666666,418.05937500000005C543.0555555555555,417.31250000000006,519.4444444444445,418.4041666666667,495.83333333333337,419.25625C472.2222222222223,420.10833333333335,448.6111111111111,421.80364583333335,425,423.171875C401.3888888888889,424.54010416666665,377.7777777777778,425.81927083333335,354.1666666666667,427.465625C330.55555555555554,429.11197916666663,306.94444444444446,431.55677083333336,283.3333333333333,433.05C259.7222222222222,434.54322916666666,236.11111111111111,439.7494791666666,212.5,436.42499999999995C188.88888888888889,433.1005208333333,177.08333333333331,413.94062499999995,141.66666666666666,413.103125C106.25,412.265625,0,431.40000000000003,0,431.40000000000003Z"><title>Hudson Valley</title></path><path fill="#9467bd" d="M0,434.40000000000003C0,434.40000000000003,106.25,423.88645833333334,141.66666666666666,416.103125C177.08333333333331,408.3197916666666,188.88888888888889,392.6322916666667,212.5,387.7C236.11111111111111,382.7677083333333,259.7222222222222,387.9697916666667,283.3333333333333,386.50937500000003C306.94444444444446,385.04895833333336,330.55555555555554,381.58958333333334,354.1666666666667,378.9375C377.7777777777778,376.28541666666666,401.3888888888889,373.3197916666667,425,370.596875C448.6111111111111,367.87395833333335,472.2222222222223,364.4260416666667,495.83333333333337,362.6C519.4444444444445,360.7739583333333,543.0555555555555,358.2364583333333,566.6666666666666,359.640625C590.2777777777777,361.0447916666667,613.8888888888889,367.83750000000003,637.5,371.02500000000003C661.1111111111111,374.21250000000003,684.7222222222223,374.3385416666667,708.3333333333334,378.765625C731.9444444444445,383.1927083333333,755.5555555555555,392.4291666666667,779.1666666666666,397.5875C802.7777777777777,402.7458333333333,850,409.715625,850,409.715625L850,428.503125C850,428.503125,802.7777777777777,421.8072916666667,779.1666666666666,417.51875C755.5555555555555,413.23020833333334,731.9444444444445,406.1447916666667,708.3333333333334,402.771875C684.7222222222223,399.3989583333333,661.1111111111111,399.165625,637.5,397.28125C613.8888888888889,395.396875,590.2777777777777,391.9458333333333,566.6666666666666,391.465625C543.0555555555555,390.98541666666665,519.4444444444445,393.1692708333333,495.83333333333337,394.4C472.2222222222223,395.63072916666664,448.6111111111111,397.25,425,398.85C401.3888888888889,400.45000000000005,377.7777777777778,402.21197916666665,354.1666666666667,404C330.55555555555554,405.78802083333335,306.94444444444446,408.07395833333334,283.3333333333333,409.578125C259.7222222222222,411.08229166666666,236.11111111111111,409.1265625,212.5,413.025C188.88888888888889,416.9234375,177.08333333333331,427.08697916666665,141.66666666666666,432.96875C106.25,438.85052083333335,0,448.315625,0,448.315625Z"><title>Long Island</title></path><path fill="#8c564b" d="M0,494.67499999999995C0,494.67499999999995,106.25,492.8614583333333,141.66666666666666,492.6125C177.08333333333331,492.3635416666667,188.88888888888889,493.07968750000003,212.5,493.18125000000003C236.11111111111111,493.28281250000003,259.7222222222222,493.2182291666666,283.3333333333333,493.22187499999995C306.94444444444446,493.2255208333333,330.55555555555554,493.2140625,354.1666666666667,493.203125C377.7777777777778,493.1921875,401.3888888888889,492.4322916666667,425,493.15625C448.6111111111111,493.8802083333333,472.2222222222223,497.87916666666666,495.83333333333337,497.546875C519.4444444444445,497.21458333333334,543.0555555555555,492.1885416666667,566.6666666666666,491.1625C590.2777777777777,490.13645833333334,613.8888888888889,491.3182291666667,637.5,491.390625C661.1111111111111,491.4630208333333,684.7222222222223,490.60677083333337,708.3333333333334,491.596875C731.9444444444445,492.58697916666665,755.5555555555555,496.4140625,779.1666666666666,497.33125C802.7777777777777,498.2484375,850,497.09999999999997,850,497.09999999999997L850,500C850,500,802.7777777777777,500.8260416666667,779.1666666666666,500C755.5555555555555,499.1739583333333,731.9444444444445,495.903125,708.3333333333334,495.04375C684.7222222222223,494.184375,661.1111111111111,494.9296875,637.5,494.84375C613.8888888888889,494.7578125,590.2777777777777,493.66875,566.6666666666666,494.528125C543.0555555555555,495.3875,519.4444444444445,499.88697916666666,495.83333333333337,500C472.2222222222223,500.11302083333334,448.6111111111111,495.96979166666665,425,495.20625C401.3888888888889,494.44270833333337,377.7777777777778,495.396875,354.1666666666667,495.41875000000005C330.55555555555554,495.44062500000007,306.94444444444446,495.3510416666667,283.3333333333333,495.3375C259.7222222222222,495.3239583333333,236.11111111111111,495.3239583333333,212.5,495.3375C188.88888888888889,495.3510416666667,177.08333333333331,495.2635416666667,141.66666666666666,495.41875000000005C106.25,495.5739583333334,0,496.26875,0,496.26875Z"><title>Mohawk</title></path><path fill="#e377c2" d="M0,203.71249999999998C0,203.71249999999998,106.25,180.87447916666667,141.66666666666666,169.09375C177.08333333333331,157.31302083333333,188.88888888888889,142.69635416666668,212.5,133.02812500000002C236.11111111111111,123.35989583333335,259.7222222222222,115.740625,283.3333333333333,111.084375C306.94444444444446,106.428125,330.55555555555554,117.23854166666669,354.1666666666667,105.09062500000002C377.7777777777778,92.94270833333334,401.3888888888889,53.87135416666666,425,38.19687499999999C448.6111111111111,22.52239583333332,472.2222222222223,17.680208333333326,495.83333333333337,11.043749999999989C519.4444444444445,4.4072916666666515,543.0555555555555,-1.7244791666666959,566.6666666666666,-1.6218750000000277C590.2777777777777,-1.5192708333333595,613.8888888888889,5.573437499999988,637.5,11.659374999999997C661.1111111111111,17.745312500000004,684.7222222222223,23.65260416666669,708.3333333333334,34.893750000000026C731.9444444444445,46.13489583333336,755.5555555555555,75.53906250000003,779.1666666666666,79.10625000000002C802.7777777777777,82.6734375,850,56.296874999999986,850,56.296874999999986L850,382.15000000000003C850,382.15000000000003,802.7777777777777,395.65156249999995,779.1666666666666,394.5875C755.5555555555555,393.5234375,731.9444444444445,380.1927083333333,708.3333333333334,375.765625C684.7222222222223,371.3385416666667,661.1111111111111,371.21250000000003,637.5,368.02500000000003C613.8888888888889,364.83750000000003,590.2777777777777,358.0447916666667,566.6666666666666,356.640625C543.0555555555555,355.2364583333333,519.4444444444445,357.7739583333333,495.83333333333337,359.6C472.2222222222223,361.4260416666667,448.6111111111111,364.87395833333335,425,367.596875C401.3888888888889,370.3197916666667,377.7777777777778,373.28541666666666,354.1666666666667,375.9375C330.55555555555554,378.58958333333334,306.94444444444446,382.04895833333336,283.3333333333333,383.50937500000003C259.7222222222222,384.9697916666667,236.11111111111111,383.33958333333334,212.5,384.7C188.88888888888889,386.06041666666664,177.08333333333331,387.00104166666665,141.66666666666666,391.671875C106.25,396.34270833333335,0,412.72499999999997,0,412.72499999999997Z"><title>New York City</title></path><path fill="#7f7f7f" d="M0,499.26875C0,499.26875,106.25,498.5739583333334,141.66666666666666,498.41875000000005C177.08333333333331,498.2635416666667,188.88888888888889,498.3510416666667,212.5,498.3375C236.11111111111111,498.3239583333333,259.7222222222222,498.3239583333333,283.3333333333333,498.3375C306.94444444444446,498.3510416666667,330.55555555555554,498.44062500000007,354.1666666666667,498.41875000000005C377.7777777777778,498.396875,401.3888888888889,499.5307291666667,425,498.20625C448.6111111111111,496.88177083333335,472.2222222222223,490.58489583333335,495.83333333333337,490.471875C519.4444444444445,490.3588541666667,543.0555555555555,496.29947916666663,566.6666666666666,497.528125C590.2777777777777,498.75677083333335,613.8888888888889,497.7578125,637.5,497.84375C661.1111111111111,497.9296875,684.7222222222223,499.1609375,708.3333333333334,498.04375C731.9444444444445,496.9265625,755.5555555555555,492.3671875,779.1666666666666,491.140625C802.7777777777777,489.9140625,850,490.684375,850,490.684375L850,494.09999999999997C850,494.09999999999997,802.7777777777777,493.34791666666666,779.1666666666666,494.33125C755.5555555555555,495.31458333333336,731.9444444444445,499.0552083333333,708.3333333333334,500C684.7222222222223,500.9447916666667,661.1111111111111,500,637.5,500C613.8888888888889,500,590.2777777777777,500.9088541666667,566.6666666666666,500C543.0555555555555,499.0911458333333,519.4444444444445,494.546875,495.83333333333337,494.546875C472.2222222222223,494.546875,448.6111111111111,499.0911458333333,425,500C401.3888888888889,500.9088541666667,377.7777777777778,500,354.1666666666667,500C330.55555555555554,500,306.94444444444446,500,283.3333333333333,500C259.7222222222222,500,236.11111111111111,500,212.5,500C188.88888888888889,500,177.08333333333331,500,141.66666666666666,500C106.25,500,0,500,0,500Z"><title>North Country</title></path><path fill="#bcbd22" d="M0,489.140625C0,489.140625,106.25,472.9661458333333,141.66666666666666,472.46875C177.08333333333331,471.9713541666667,188.88888888888889,483.8609375,212.5,486.15625C236.11111111111111,488.4515625,259.7222222222222,486.2005208333333,283.3333333333333,486.24062499999997C306.94444444444446,486.2807291666666,330.55555555555554,486.45052083333337,354.1666666666667,486.396875C377.7777777777778,486.3432291666667,401.3888888888889,486.53385416666663,425,485.91875C448.6111111111111,485.30364583333335,472.2222222222223,483.2526041666667,495.83333333333337,482.70625C519.4444444444445,482.15989583333334,543.0555555555555,482.4,566.6666666666666,482.640625C590.2777777777777,482.88125,613.8888888888889,483.8802083333333,637.5,484.15C661.1111111111111,484.41979166666664,684.7222222222223,484.2489583333333,708.3333333333334,484.259375C731.9444444444445,484.26979166666666,755.5555555555555,484.4213541666667,779.1666666666666,484.2125C802.7777777777777,484.0036458333333,850,483.00624999999997,850,483.00624999999997L850,487.684375C850,487.684375,802.7777777777777,487.98854166666666,779.1666666666666,488.140625C755.5555555555555,488.29270833333334,731.9444444444445,488.5552083333333,708.3333333333334,488.596875C684.7222222222223,488.6385416666667,661.1111111111111,488.4630208333333,637.5,488.390625C613.8888888888889,488.3182291666667,590.2777777777777,488.315625,566.6666666666666,488.1625C543.0555555555555,488.00937500000003,519.4444444444445,487.13958333333335,495.83333333333337,487.471875C472.2222222222223,487.8041666666667,448.6111111111111,489.7010416666667,425,490.15625C401.3888888888889,490.6114583333333,377.7777777777778,490.1921875,354.1666666666667,490.203125C330.55555555555554,490.2140625,306.94444444444446,490.2255208333333,283.3333333333333,490.22187499999995C259.7222222222222,490.2182291666666,236.11111111111111,491.9536458333333,212.5,490.18125000000003C188.88888888888889,488.40885416666674,177.08333333333331,479.33854166666674,141.66666666666666,479.58750000000003C106.25,479.8364583333333,0,491.67499999999995,0,491.67499999999995Z"><title>Southern Tier</title></path><path fill="#17becf" d="M0,480.55937500000005C0,480.55937500000005,106.25,483.36718750000006,141.66666666666666,482.58750000000003C177.08333333333331,481.8078125,188.88888888888889,479.0541666666666,212.5,475.88124999999997C236.11111111111111,472.7083333333333,259.7222222222222,466.0864583333333,283.3333333333333,463.55C306.94444444444446,461.0135416666667,330.55555555555554,461.4395833333333,354.1666666666667,460.66249999999997C377.7777777777778,459.88541666666663,401.3888888888889,457.4135416666667,425,458.8875C448.6111111111111,460.3614583333333,472.2222222222223,472.8265625,495.83333333333337,469.50625C519.4444444444445,466.1859375,543.0555555555555,438.59479166666665,566.6666666666666,438.965625C590.2777777777777,439.3364583333333,613.8888888888889,466.14374999999995,637.5,471.73125C661.1111111111111,477.31875,684.7222222222223,471.8963541666667,708.3333333333334,472.490625C731.9444444444445,473.08489583333335,755.5555555555555,475.5734375,779.1666666666666,475.296875C802.7777777777777,475.0203125,850,470.83125,850,470.83125L850,480.00624999999997C850,480.00624999999997,802.7777777777777,481.0036458333333,779.1666666666666,481.2125C755.5555555555555,481.4213541666667,731.9444444444445,481.26979166666666,708.3333333333334,481.259375C684.7222222222223,481.2489583333333,661.1111111111111,486.2078125,637.5,481.15C613.8888888888889,476.09218749999997,590.2777777777777,451.15312500000005,566.6666666666666,450.9125C543.0555555555555,450.671875,519.4444444444445,476.4328125,495.83333333333337,479.70625C472.2222222222223,482.9796875,448.6111111111111,471.8572916666667,425,470.553125C401.3888888888889,469.24895833333335,377.7777777777778,471.5786458333333,354.1666666666667,471.88124999999997C330.55555555555554,472.1838541666666,306.94444444444446,470.48958333333337,283.3333333333333,472.36875000000003C259.7222222222222,474.2479166666667,236.11111111111111,480.28229166666665,212.5,483.15625C188.88888888888889,486.03020833333335,177.08333333333331,489.1151041666667,141.66666666666666,489.6125C106.25,490.1098958333333,0,486.140625,0,486.140625Z"><title>Western</title></path></g><g id="xAxis" transform="translate(0,500)" fill="none" font-size="10" font-family="sans-serif" text-anchor="middle"><path class="domain" stroke="currentColor" d="M0.5,0.5H850.5"/><g class="tick" opacity="1" transform="translate(0.5,0)"><line stroke="currentColor" y2="6"/><text fill="currentColor" y="9" dy="0.71em">2,009</text></g><g class="tick" opacity="1" transform="translate(71.33333333333333,0)"><line stroke="currentColor" y2="6"/><text fill="currentColor" y="9" dy="0.71em">2,010</text></g><g class="tick" opacity="1" transform="translate(142.16666666666666,0)"><line stroke="currentColor" y2="6"/><text fill="currentColor" y="9" dy="0.71em">2,011</text></g><g class="tick" opacity="1" transform="translate(213,0)"><line stroke="currentColor" y2="6"/><text fill="currentColor" y="9" dy="0.71em">2,012</text></g><g class="tick" opacity="1" transform="translate(283.8333333333333,0)"><line stroke="currentColor" y2="6"/><text fill="currentColor" y="9" dy="0.71em">2,013</text></g><g class="tick" opacity="1" transform="translate(354.6666666666667,0)"><line stroke="currentColor" y2="6"/><text fill="currentColor" y="9" dy="0.71em">2,014</text></g><g class="tick" opacity="1" transform="translate(425.5,0)"><line stroke="currentColor" y2="6"/><text fill="currentColor" y="9" dy="0.71em">2,015</text></g><g class="tick" opacity="1" transform="translate(496.33333333333337,0)"><line stroke="currentColor" y2="6"/><text fill="currentColor" y="9" dy="0.71em">2,016</text></g><g class="tick" opacity="1" transform="translate(567.1666666666666,0)"><line stroke="currentColor" y2="6"/><text fill="currentColor" y="9" dy="0.71em">2,017</text></g><g class="tick" opacity="1" transform="translate(638,0)"><line stroke="currentColor" y2="6"/><text fill="currentColor" y="9" dy="0.71em">2,018</text></g><g class="tick" opacity="1" transform="translate(708.8333333333334,0)"><line stroke="currentColor" y2="6"/><text fill="currentColor" y="9" dy="0.71em">2,019</text></g><g class="tick" opacity="1" transform="translate(779.6666666666666,0)"><line stroke="currentColor" y2="6"/><text fill="currentColor" y="9" dy="0.71em">2,020</text></g><g class="tick" opacity="1" transform="translate(850.5,0)"><line stroke="currentColor" y2="6"/><text fill="currentColor" y="9" dy="0.71em">2,021</text></g></g><g id="yAxis" fill="none" font-size="10" font-family="sans-serif" text-anchor="end"><path class="domain" stroke="currentColor" d="M0.5,500.5V0.5"/><g class="tick" opacity="1" transform="translate(0,500.5)"><line stroke="currentColor" x2="-6"/><text fill="currentColor" x="-9" dy="0.32em">0</text></g><g class="tick" opacity="1" transform="translate(0,438)"><line stroke="currentColor" x2="-6"/><text fill="currentColor" x="-9" dy="0.32em">20,000</text></g><g class="tick" opacity="1" transform="translate(0,375.5)"><line stroke="currentColor" x2="-6"/><text fill="currentColor" x="-9" dy="0.32em">40,000</text></g><g class="tick" opacity="1" transform="translate(0,313)"><line stroke="currentColor" x2="-6"/><text fill="currentColor" x="-9" dy="0.32em">60,000</text></g><g class="tick" opacity="1" transform="translate(0,250.5)"><line stroke="currentColor" x2="-6"/><text fill="currentColor" x="-9" dy="0.32em">80,000</text></g><g class="tick" opacity="1" transform="translate(0,188)"><line stroke="currentColor" x2="-6"/><text fill="currentColor" x="-9" dy="0.32em">100,000</text></g><g class="tick" opacity="1" transform="translate(0,125.5)"><line stroke="currentColor" x2="-6"/><text fill="currentColor" x="-9" dy="0.32em">120,000</text></g><g class="tick" opacity="1" transform="translate(0,63)"><line stroke="currentColor" x2="-6"/><text fill="currentColor" x="-9" dy="0.32em">140,000</text></g><g class="tick" opacity="1" transform="translate(0,0.5)"><line stroke="currentColor" x2="-6"/><text fill="currentColor" x="-9" dy="0.32em">160,000</text></g></g><text y="496" x="850" text-anchor="end" style="font-family: Arial, sans-serif; font-size: 12px; fill: rgb(123, 123, 123); font-weight: bold;">YEAR</text><text x="4" text-anchor="start" dominant-baseline="hanging" style="font-family: Arial, sans-serif; font-size: 12px; fill: rgb(123, 123, 123); font-weight: bold;">TOTAL.HOMELESS</text><g id="labels"><text x="566.6666666666666" y="471.596875" text-anchor="middle" alignment-baseline="middle" style="font-family: Arial, sans-serif; font-size: 10px; fill: black; font-weight: bold; stroke-width: 2px; paint-order: stroke; stroke: white; stroke-linecap: round; stroke-linejoin: round;">Capital</text><text x="495.83333333333337" y="461.3578125" text-anchor="middle" alignment-baseline="middle" style="font-family: Arial, sans-serif; font-size: 10px; fill: black; font-weight: bold; stroke-width: 2px; paint-order: stroke; stroke: white; stroke-linecap: round; stroke-linejoin: round;">Central</text><text x="566.6666666666666" y="446.5125" text-anchor="middle" alignment-baseline="middle" style="font-family: Arial, sans-serif; font-size: 10px; fill: black; font-weight: bold; stroke-width: 2px; paint-order: stroke; stroke: white; stroke-linecap: round; stroke-linejoin: round;">Finger Lakes</text><text x="566.6666666666666" y="427.2625" text-anchor="middle" alignment-baseline="middle" style="font-family: Arial, sans-serif; font-size: 10px; fill: black; font-weight: bold; stroke-width: 2px; paint-order: stroke; stroke: white; stroke-linecap: round; stroke-linejoin: round;">Hudson Valley</text><text x="566.6666666666666" y="399.553125" text-anchor="middle" alignment-baseline="middle" style="font-family: Arial, sans-serif; font-size: 10px; fill: black; font-weight: bold; stroke-width: 2px; paint-order: stroke; stroke: white; stroke-linecap: round; stroke-linejoin: round;">Long Island</text><text x="637.5" y="496.1171875" text-anchor="middle" alignment-baseline="middle" style="font-family: Arial, sans-serif; font-size: 10px; fill: black; font-weight: bold; stroke-width: 2px; paint-order: stroke; stroke: white; stroke-linecap: round; stroke-linejoin: round;">Mohawk</text><text x="566.6666666666666" y="204.509375" text-anchor="middle" alignment-baseline="middle" style="font-family: Arial, sans-serif; font-size: 10px; fill: black; font-weight: bold; stroke-width: 2px; paint-order: stroke; stroke: white; stroke-linecap: round; stroke-linejoin: round;">New York City</text><text x="495.83333333333337" y="495.509375" text-anchor="middle" alignment-baseline="middle" style="font-family: Arial, sans-serif; font-size: 10px; fill: black; font-weight: bold; stroke-width: 2px; paint-order: stroke; stroke: white; stroke-linecap: round; stroke-linejoin: round;">North Country</text><text x="141.66666666666666" y="485.028125" text-anchor="middle" alignment-baseline="middle" style="font-family: Arial, sans-serif; font-size: 10px; fill: black; font-weight: bold; stroke-width: 2px; paint-order: stroke; stroke: white; stroke-linecap: round; stroke-linejoin: round;">Southern Tier</text><text x="566.6666666666666" y="459.9390625" text-anchor="middle" alignment-baseline="middle" style="font-family: Arial, sans-serif; font-size: 10px; fill: black; font-weight: bold; stroke-width: 2px; paint-order: stroke; stroke: white; stroke-linecap: round; stroke-linejoin: round;">Western</text></g></g><text x="4" y="4" style="font-family: Arial, sans-serif; font-size: 12px; fill: black; font-weight: bold; dominant-baseline: hanging;"/></g></g><g id="legend" transform="translate(1000,50)"><g transform="translate(5,0)"><g class="legendColor" transform="translate(0,0)"><g class="legendCells" transform="translate(0,16)"><g class="cell" transform="translate(0, 0)"><rect class="swatch" height="15" width="15" style="fill: rgb(31, 119, 180);"/><text class="label" transform="translate( 20, 12.5)" font-family="&quot;Arial&quot;, sans-serif" font-size="10px"><tspan x="0" dy="0em">Capital</tspan></text></g><g class="cell" transform="translate(0, 21)"><rect class="swatch" height="15" width="15" style="fill: rgb(255, 127, 14);"/><text class="label" transform="translate( 20, 12.5)" font-family="&quot;Arial&quot;, sans-serif" font-size="10px"><tspan x="0" dy="0em">Central</tspan></text></g><g class="cell" transform="translate(0, 42)"><rect class="swatch" height="15" width="15" style="fill: rgb(44, 160, 44);"/><text class="label" transform="translate( 20, 12.5)" font-family="&quot;Arial&quot;, sans-serif" font-size="10px"><tspan x="0" dy="0em">Finger Lakes</tspan></text></g><g class="cell" transform="translate(0, 63)"><rect class="swatch" height="15" width="15" style="fill: rgb(214, 39, 40);"/><text class="label" transform="translate( 20, 12.5)" font-family="&quot;Arial&quot;, sans-serif" font-size="10px"><tspan x="0" dy="0em">Hudson Valley</tspan></text></g><g class="cell" transform="translate(0, 84)"><rect class="swatch" height="15" width="15" style="fill: rgb(148, 103, 189);"/><text class="label" transform="translate( 20, 12.5)" font-family="&quot;Arial&quot;, sans-serif" font-size="10px"><tspan x="0" dy="0em">Long Island</tspan></text></g><g class="cell" transform="translate(0, 105)"><rect class="swatch" height="15" width="15" style="fill: rgb(140, 86, 75);"/><text class="label" transform="translate( 20, 12.5)" font-family="&quot;Arial&quot;, sans-serif" font-size="10px"><tspan x="0" dy="0em">Mohawk</tspan></text></g><g class="cell" transform="translate(0, 126)"><rect class="swatch" height="15" width="15" style="fill: rgb(227, 119, 194);"/><text class="label" transform="translate( 20, 12.5)" font-family="&quot;Arial&quot;, sans-serif" font-size="10px"><tspan x="0" dy="0em">New York City</tspan></text></g><g class="cell" transform="translate(0, 147)"><rect class="swatch" height="15" width="15" style="fill: rgb(127, 127, 127);"/><text class="label" transform="translate( 20, 12.5)" font-family="&quot;Arial&quot;, sans-serif" font-size="10px"><tspan x="0" dy="0em">North Country</tspan></text></g><g class="cell" transform="translate(0, 168)"><rect class="swatch" height="15" width="15" style="fill: rgb(188, 189, 34);"/><text class="label" transform="translate( 20, 12.5)" font-family="&quot;Arial&quot;, sans-serif" font-size="10px"><tspan x="0" dy="0em">Southern Tier</tspan></text></g><g class="cell" transform="translate(0, 189)"><rect class="swatch" height="15" width="15" style="fill: rgb(23, 190, 207);"/><text class="label" transform="translate( 20, 12.5)" font-family="&quot;Arial&quot;, sans-serif" font-size="10px"><tspan x="0" dy="0em">Western</tspan></text></g></g><text class="legendTitle" font-family="&quot;Arial&quot;, sans-serif" font-size="12px" font-weight="bold"><tspan x="0" dy="0em">Colors</tspan></text></g></g></g></svg>