<svg xmlns="http://www.w3.org/2000/svg" width="700" height="750"><rect width="700" height="750" x="0" y="0" fill="#FFFFFF" id="backgorund"/><g id="viz"><clipPath id="serieClipPath"><rect x="-70" y="-50" width="700" height="750"/></clipPath><g transform="translate(0,0)"><g transform="translate(70,50)" clip-path="url(#serieClipPath)"><g id="axis"><g transform="translate(0,650)" fill="none" font-size="10" font-family="sans-serif" text-anchor="middle"><path class="domain" stroke="currentColor" d="M0.5,6V0.5H580.5V6"/><g class="tick" opacity="1" transform="translate(0.5,0)"><line stroke="currentColor" y2="6"/><text fill="currentColor" y="9" dy="0.71em">2,009</text></g><g class="tick" opacity="1" transform="translate(48.83333333333333,0)"><line stroke="currentColor" y2="6"/><text fill="currentColor" y="9" dy="0.71em">2,010</text></g><g class="tick" opacity="1" transform="translate(97.16666666666666,0)"><line stroke="currentColor" y2="6"/><text fill="currentColor" y="9" dy="0.71em">2,011</text></g><g class="tick" opacity="1" transform="translate(145.5,0)"><line stroke="currentColor" y2="6"/><text fill="currentColor" y="9" dy="0.71em">2,012</text></g><g class="tick" opacity="1" transform="translate(193.83333333333331,0)"><line stroke="currentColor" y2="6"/><text fill="currentColor" y="9" dy="0.71em">2,013</text></g><g class="tick" opacity="1" transform="translate(242.16666666666669,0)"><line stroke="currentColor" y2="6"/><text fill="currentColor" y="9" dy="0.71em">2,014</text></g><g class="tick" opacity="1" transform="translate(290.5,0)"><line stroke="currentColor" y2="6"/><text fill="currentColor" y="9" dy="0.71em">2,015</text></g><g class="tick" opacity="1" transform="translate(338.83333333333337,0)"><line stroke="currentColor" y2="6"/><text fill="currentColor" y="9" dy="0.71em">2,016</text></g><g class="tick" opacity="1" transform="translate(387.16666666666663,0)"><line stroke="currentColor" y2="6"/><text fill="currentColor" y="9" dy="0.71em">2,017</text></g><g class="tick" opacity="1" transform="translate(435.5,0)"><line stroke="currentColor" y2="6"/><text fill="currentColor" y="9" dy="0.71em">2,018</text></g><g class="tick" opacity="1" transform="translate(483.83333333333337,0)"><line stroke="currentColor" y2="6"/><text fill="currentColor" y="9" dy="0.71em">2,019</text></g><g class="tick" opacity="1" transform="translate(532.1666666666666,0)"><line stroke="currentColor" y2="6"/><text fill="currentColor" y="9" dy="0.71em">2,020</text></g><g class="tick" opacity="1" transform="translate(580.5,0)"><line stroke="currentColor" y2="6"/><text fill="currentColor" y="9" dy="0.71em">2,021</text></g><text x="580" dy="-5" text-anchor="end" style="font-family: Arial, sans-serif; font-size: 12px; fill: rgb(123, 123, 123); font-weight: bold;">YEAR</text></g><g transform="translate(0,0)" fill="none" font-size="10" font-family="sans-serif" text-anchor="end"><path class="domain" stroke="currentColor" d="M0.5,650.5V0.5"/><g class="tick" opacity="1" transform="translate(0,650.5)"><line stroke="currentColor" x2="-6"/><text fill="currentColor" x="-9" dy="0.32em">85,000</text></g><g class="tick" opacity="1" transform="translate(0,604.0714285714286)"><line stroke="currentColor" x2="-6"/><text fill="currentColor" x="-9" dy="0.32em">90,000</text></g><g class="tick" opacity="1" transform="translate(0,557.6428571428572)"><line stroke="currentColor" x2="-6"/><text fill="currentColor" x="-9" dy="0.32em">95,000</text></g><g class="tick" opacity="1" transform="translate(0,511.2142857142857)"><line stroke="currentColor" x2="-6"/><text fill="currentColor" x="-9" dy="0.32em">100,000</text></g><g class="tick" opacity="1" transform="translate(0,464.7857142857143)"><line stroke="currentColor" x2="-6"/><text fill="currentColor" x="-9" dy="0.32em">105,000</text></g><g class="tick" opacity="1" transform="translate(0,418.35714285714283)"><line stroke="currentColor" x2="-6"/><text fill="currentColor" x="-9" dy="0.32em">110,000</text></g><g class="tick" opacity="1" transform="translate(0,371.9285714285714)"><line stroke="currentColor" x2="-6"/><text fill="currentColor" x="-9" dy="0.32em">115,000</text></g><g class="tick" opacity="1" transform="translate(0,325.5)"><line stroke="currentColor" x2="-6"/><text fill="currentColor" x="-9" dy="0.32em">120,000</text></g><g class="tick" opacity="1" transform="translate(0,279.0714285714286)"><line stroke="currentColor" x2="-6"/><text fill="currentColor" x="-9" dy="0.32em">125,000</text></g><g class="tick" opacity="1" transform="translate(0,232.6428571428571)"><line stroke="currentColor" x2="-6"/><text fill="currentColor" x="-9" dy="0.32em">130,000</text></g><g class="tick" opacity="1" transform="translate(0,186.2142857142857)"><line stroke="currentColor" x2="-6"/><text fill="currentColor" x="-9" dy="0.32em">135,000</text></g><g class="tick" opacity="1" transform="translate(0,139.7857142857143)"><line stroke="currentColor" x2="-6"/><text fill="currentColor" x="-9" dy="0.32em">140,000</text></g><g class="tick" opacity="1" transform="translate(0,93.35714285714289)"><line stroke="currentColor" x2="-6"/><text fill="currentColor" x="-9" dy="0.32em">145,000</text></g><g class="tick" opacity="1" transform="translate(0,46.92857142857141)"><line stroke="currentColor" x2="-6"/><text fill="currentColor" x="-9" dy="0.32em">150,000</text></g><g class="tick" opacity="1" transform="translate(0,0.5)"><line stroke="currentColor" x2="-6"/><text fill="currentColor" x="-9" dy="0.32em">155,000</text></g><text x="4" text-anchor="start" dominant-baseline="hanging" style="font-family: Arial, sans-serif; font-size: 12px; fill: rgb(123, 123, 123); font-weight: bold;">TOTAL.HOMELESS</text></g></g><g id="viz"><g><path d="M0,639.1171428571429L96.66666666666666,536.25L145,429.0835714285714L193.33333333333331,363.8792857142857L241.66666666666669,346.06928571428574L290,147.29928571428576L338.33333333333337,66.61571428571429L386.66666666666663,28.98071428571432L435,68.44499999999996L483.33333333333337,137.48428571428576L531.6666666666666,268.85857142857145L580,201.08214285714288" stroke="#1f77b4" fill="none"/><text font-family="sans-serif" font-size="10" class="labels" x="386.66666666666663" y="28.98071428571432" dx="0" dy="-4" text-anchor="middle"/></g></g></g><text y="4" x="4" style="font-family: Arial, sans-serif; font-size: 12px; fill: black; font-weight: bold; dominant-baseline: hanging;"/></g><g id="grid"><rect x="0" y="0" width="700" height="750" fill="none" stroke="#ccc"/></g></g></svg>