<svg xmlns="http://www.w3.org/2000/svg" width="805" height="600"><rect width="805" height="600" x="0" y="0" fill="#FFFFFF" id="backgorund"/><g transform="translate(50,50)" id="visualization"><g><rect x="0" y="5.684341886080802e-14" height="6.560756837259681" width="5" fill="black"><title>2009: 20251</title></rect><rect x="0" y="21.56075683725974" height="8.975644075664384" width="5" fill="black"><title>2011: 27705</title></rect><rect x="0" y="45.53640091292412" height="10.002959266566094" width="5" fill="black"><title>2012: 30876</title></rect><rect x="0" y="70.53936017949022" height="10.496692584426128" width="5" fill="black"><title>2013: 32400</title></rect><rect x="0" y="96.03605276391635" height="11.646145216819463" width="5" fill="black"><title>2014: 35948</title></rect><rect x="0" y="122.68219798073581" height="12.939765386251977" width="5" fill="black"><title>2015: 39941</title></rect><rect x="700" y="75" height="29.68944141425864" width="5" fill="black"><title>CHARTER SCHOOL: 91642</title></rect><rect x="0" y="150.62196336698779" height="40.8353738733511" width="5" fill="black"><title>2020: 126046</title></rect><rect x="0" y="206.4573372403389" height="43.200045452787094" width="5" fill="black"><title>2021: 133345</title></rect><rect x="0" y="264.657382693126" height="45.41892963521718" width="5" fill="black"><title>2019: 140194</title></rect><rect x="0" y="325.0763123283432" height="47.8276614057483" width="5" fill="black"><title>2018: 147629</title></rect><rect x="0" y="387.9039737340915" height="47.89148388843756" width="5" fill="black"><title>2016: 147826</title></rect><rect x="0" y="450.79545762252906" height="49.20454237747089" width="5" fill="black"><title>2017: 151879</title></rect><rect x="700" y="119.68944141425864" height="305.3105585857414" width="5" fill="black"><title>SCHOOL DISTRICT: 942398</title></rect></g><g fill="none" stroke-opacity="1"><g style="mix-blend-mode: multiply;"><path d="M5,0.17186714247036747C352.5,0.17186714247036747,352.5,75.1718671424703,700,75.1718671424703" stroke="rgb(158, 1, 66)" stroke-width="1"/><title>2009 → CHARTER SCHOOL: 1061</title></g><g style="mix-blend-mode: multiply;"><path d="M5,21.85152170128821C352.5,21.85152170128821,352.5,75.6344991489691,700,75.6344991489691" stroke="rgb(205, 55, 75)" stroke-width="1"/><title>2011 → CHARTER SCHOOL: 1795</title></g><g style="mix-blend-mode: multiply;"><path d="M5,45.990771633592566C352.5,45.990771633592566,352.5,76.37963473366601,700,76.37963473366601" stroke="rgb(236, 102, 73)" stroke-width="1"/><title>2012 → CHARTER SCHOOL: 2805</title></g><g style="mix-blend-mode: multiply;"><path d="M5,71.17969082433954C352.5,71.17969082433954,352.5,77.47433609918377,700,77.47433609918377" stroke="rgb(250, 155, 90)" stroke-width="1.2806612896986578"/><title>2013 → CHARTER SCHOOL: 3953</title></g><g style="mix-blend-mode: multiply;"><path d="M5,96.86428716490664C352.5,96.86428716490664,352.5,78.9429011450234,700,78.9429011450234" stroke="rgb(254, 205, 124)" stroke-width="1.656468801980581"/><title>2014 → CHARTER SCHOOL: 5113</title></g><g style="mix-blend-mode: multiply;"><path d="M5,123.73575490309858C352.5,123.73575490309858,352.5,80.82469246837645,700,80.82469246837645" stroke="rgb(254, 240, 165)" stroke-width="2.1071138447255424"/><title>2015 → CHARTER SCHOOL: 6504</title></g><g style="mix-blend-mode: multiply;"><path d="M5,389.18107133186334C352.5,389.18107133186334,352.5,100.14897392750763,700,100.14897392750763" stroke="rgb(242, 249, 172)" stroke-width="2.554195195543693"/><title>2016 → CHARTER SCHOOL: 7884</title></g><g style="mix-blend-mode: multiply;"><path d="M5,452.4271425670186C352.5,452.4271425670186,352.5,103.05775646976906,700,103.05775646976906" stroke="rgb(207, 236, 158)" stroke-width="3.26336988897915"/><title>2017 → CHARTER SCHOOL: 10073</title></g><g style="mix-blend-mode: multiply;"><path d="M5,326.94012320606555C352.5,326.94012320606555,352.5,97.00806545201345,700,97.00806545201345" stroke="rgb(152, 213, 164)" stroke-width="3.727621755444664"/><title>2018 → CHARTER SCHOOL: 11506</title></g><g style="mix-blend-mode: multiply;"><path d="M5,266.7670883137983C352.5,266.7670883137983,352.5,93.03454895361881,700,93.03454895361881" stroke="rgb(94, 181, 171)" stroke-width="4.219411241344629"/><title>2019 → CHARTER SCHOOL: 13024</title></g><g style="mix-blend-mode: multiply;"><path d="M5,152.86368757494878C352.5,152.86368757494878,352.5,84.11997359870024,700,84.11997359870024" stroke="rgb(66, 131, 180)" stroke-width="4.483448415922014"/><title>2020 → CHARTER SCHOOL: 13839</title></g><g style="mix-blend-mode: multiply;"><path d="M5,208.73891000348152C352.5,208.73891000348152,352.5,88.64327056980386,700,88.64327056980386" stroke="rgb(94, 79, 162)" stroke-width="4.56314552628525"/><title>2021 → CHARTER SCHOOL: 14085</title></g><g style="mix-blend-mode: multiply;"><path d="M5,3.4522455611002076C352.5,3.4522455611002076,352.5,122.79795269041817,700,122.79795269041817" stroke="rgb(158, 1, 66)" stroke-width="6.217022552319059"/><title>2009 → SCHOOL DISTRICT: 19190</title></g><g style="mix-blend-mode: multiply;"><path d="M5,26.3393437391204C352.5,26.3393437391204,352.5,130.10352114038142,700,130.10352114038142" stroke="rgb(205, 55, 75)" stroke-width="8.394114347607443"/><title>2011 → SCHOOL DISTRICT: 25910</title></g><g style="mix-blend-mode: multiply;"><path d="M5,50.99225126687561C352.5,50.99225126687561,352.5,138.84768722679974,700,138.84768722679974" stroke="rgb(236, 102, 73)" stroke-width="9.094217825229197"/><title>2012 → SCHOOL DISTRICT: 28071</title></g><g style="mix-blend-mode: multiply;"><path d="M5,76.42803711655262C352.5,76.42803711655262,352.5,148.0028117867781,700,148.0028117867781" stroke="rgb(250, 155, 90)" stroke-width="9.216031294727477"/><title>2013 → SCHOOL DISTRICT: 28447</title></g><g style="mix-blend-mode: multiply;"><path d="M5,102.68735977331637C352.5,102.68735977331637,352.5,157.60566564156127,700,157.60566564156127" stroke="rgb(254, 205, 124)" stroke-width="9.989676414838884"/><title>2014 → SCHOOL DISTRICT: 30835</title></g><g style="mix-blend-mode: multiply;"><path d="M5,130.20563759622456C352.5,130.20563759622456,352.5,168.01682961974396,700,168.01682961974396" stroke="rgb(254, 240, 165)" stroke-width="10.83265154152644"/><title>2015 → SCHOOL DISTRICT: 33437</title></g><g style="mix-blend-mode: multiply;"><path d="M5,413.12681327608215C352.5,413.12681327608215,352.5,356.39018316506133,700,356.39018316506133" stroke="rgb(242, 249, 172)" stroke-width="45.33728869289389"/><title>2016 → SCHOOL DISTRICT: 139942</title></g><g style="mix-blend-mode: multiply;"><path d="M5,477.02941375575404C352.5,477.02941375575404,352.5,402.0294137557541,700,402.0294137557541" stroke="rgb(207, 236, 158)" stroke-width="45.94117248849174"/><title>2017 → SCHOOL DISTRICT: 141806</title></g><g style="mix-blend-mode: multiply;"><path d="M5,350.8539539089397C352.5,350.8539539089397,352.5,311.67151899346254,700,311.67151899346254" stroke="rgb(152, 213, 164)" stroke-width="44.100039650303664"/><title>2018 → SCHOOL DISTRICT: 136123</title></g><g style="mix-blend-mode: multiply;"><path d="M5,289.47655313140694C352.5,289.47655313140694,352.5,269.0217399713745,700,269.0217399713745" stroke="rgb(94, 181, 171)" stroke-width="41.19951839387258"/><title>2019 → SCHOOL DISTRICT: 127170</title></g><g style="mix-blend-mode: multiply;"><path d="M5,173.28137451162436C352.5,173.28137451162436,352.5,191.60911811922173,700,191.60911811922173" stroke="rgb(66, 131, 180)" stroke-width="36.35192545742911"/><title>2020 → SCHOOL DISTRICT: 112207</title></g><g style="mix-blend-mode: multiply;"><path d="M5,230.33893272987507C352.5,230.33893272987507,352.5,229.10353081118723,700,229.10353081118723" stroke="rgb(94, 79, 162)" stroke-width="38.636899926501876"/><title>2021 → SCHOOL DISTRICT: 119260</title></g></g><g><text x="9" y="3.280378418629897" text-anchor="start"><tspan alignment-baseline="middle" x="9" style="font-family: Arial, sans-serif; font-size: 10px; fill: black; font-weight: bold;">2009</tspan></text><text x="9" y="26.04857887509193" text-anchor="start"><tspan alignment-baseline="middle" x="9" style="font-family: Arial, sans-serif; font-size: 10px; fill: black; font-weight: bold;">2011</tspan></text><text x="9" y="50.53788054620717" text-anchor="start"><tspan alignment-baseline="middle" x="9" style="font-family: Arial, sans-serif; font-size: 10px; fill: black; font-weight: bold;">2012</tspan></text><text x="9" y="75.78770647170327" text-anchor="start"><tspan alignment-baseline="middle" x="9" style="font-family: Arial, sans-serif; font-size: 10px; fill: black; font-weight: bold;">2013</tspan></text><text x="9" y="101.85912537232608" text-anchor="start"><tspan alignment-baseline="middle" x="9" style="font-family: Arial, sans-serif; font-size: 10px; fill: black; font-weight: bold;">2014</tspan></text><text x="9" y="129.1520806738618" text-anchor="start"><tspan alignment-baseline="middle" x="9" style="font-family: Arial, sans-serif; font-size: 10px; fill: black; font-weight: bold;">2015</tspan></text><text x="696" y="89.84472070712931" text-anchor="end"><tspan alignment-baseline="middle" x="696" style="font-family: Arial, sans-serif; font-size: 10px; fill: black; font-weight: bold;">CHARTER SCHOOL</tspan></text><text x="9" y="171.03965030366334" text-anchor="start"><tspan alignment-baseline="middle" x="9" style="font-family: Arial, sans-serif; font-size: 10px; fill: black; font-weight: bold;">2020</tspan></text><text x="9" y="228.05735996673243" text-anchor="start"><tspan alignment-baseline="middle" x="9" style="font-family: Arial, sans-serif; font-size: 10px; fill: black; font-weight: bold;">2021</tspan></text><text x="9" y="287.3668475107346" text-anchor="start"><tspan alignment-baseline="middle" x="9" style="font-family: Arial, sans-serif; font-size: 10px; fill: black; font-weight: bold;">2019</tspan></text><text x="9" y="348.99014303121737" text-anchor="start"><tspan alignment-baseline="middle" x="9" style="font-family: Arial, sans-serif; font-size: 10px; fill: black; font-weight: bold;">2018</tspan></text><text x="9" y="411.8497156783103" text-anchor="start"><tspan alignment-baseline="middle" x="9" style="font-family: Arial, sans-serif; font-size: 10px; fill: black; font-weight: bold;">2016</tspan></text><text x="9" y="475.3977288112645" text-anchor="start"><tspan alignment-baseline="middle" x="9" style="font-family: Arial, sans-serif; font-size: 10px; fill: black; font-weight: bold;">2017</tspan></text><text x="696" y="272.34472070712934" text-anchor="end"><tspan alignment-baseline="middle" x="696" style="font-family: Arial, sans-serif; font-size: 10px; fill: black; font-weight: bold;">SCHOOL DISTRICT</tspan></text></g><g><text x="2.5" y="-3.999999999999943" text-anchor="middle" style="font-family: Arial, sans-serif; font-size: 12px; fill: rgb(123, 123, 123); font-weight: bold;">YEAR</text><text x="702.5" y="71" text-anchor="middle" style="font-family: Arial, sans-serif; font-size: 12px; fill: rgb(123, 123, 123); font-weight: bold;">LEA.TYPE</text></g></g></svg>